<svg width="718" height="588" viewBox="0 0 718 588" fill="none" xmlns="http://www.w3.org/2000/svg">
<path d="M116.139 147.433C156.355 165.632 192.728 192.15 222.063 225.276C250.321 257.024 270.584 294.529 293.849 329.656C305.073 346.821 317.265 363.556 331.244 378.569C345.987 394.519 362.925 408.1 380.983 420.025C417.41 444.316 457.485 462.461 493.504 487.398C525.282 509.579 555.241 537.323 570.726 573.472C572.706 577.928 574.384 582.749 575.783 587.463C575.901 587.99 576.816 587.7 576.816 587.7C565.518 550.27 538.906 520.922 508.978 497.686C474.693 471.168 435.392 452.678 398.545 430.314C378.873 418.411 359.966 405.356 343.221 389.6C327.8 374.996 314.607 358.358 302.49 341.01C278.623 306.615 258.973 269.185 232.566 236.382C205.082 202.202 170.355 173.908 131.313 153.912C126.492 151.415 121.617 149.058 116.688 146.841C116.128 146.625 115.719 147.271 116.139 147.433Z" fill="#8F8E69"/>
<path d="M267.828 55.783C298.412 69.7959 316.598 99.757 327.111 130.46C338.119 162.8 340.829 197.086 347.425 230.458C350.738 247.311 355.247 263.981 362.166 279.812C369.483 296.278 379.782 310.839 392.34 323.699C405.662 337.496 420.663 349.851 434.782 362.83C449.493 376.358 463.848 390.392 477.762 404.738C505.397 433.516 531.439 463.929 555.275 495.903C558.363 499.982 561.452 504.061 564.486 508.279C564.798 508.72 565.573 508.376 565.261 507.935C541.727 475.595 516.374 444.644 489.18 415.554C475.567 400.842 461.405 386.722 446.942 372.968C432.565 359.408 417.532 346.719 403.155 333.159C389.51 320.202 376.768 306.146 367.945 289.422C359.723 274.054 354.602 257.309 350.674 240.381C342.906 206.718 340.884 171.893 330.812 138.79C321.698 108.625 306.343 77.9858 278.891 60.8414C275.522 58.7427 272.046 56.9239 268.517 55.2449C267.871 54.8359 267.408 55.6215 267.828 55.783Z" fill="#8F8E69"/>
<path d="M442.074 463.279C436.909 464.183 431.861 467.702 430.57 473.147C429.44 478.173 432.431 483.339 437.026 485.588C442.041 487.999 448.315 486.719 452.641 483.404C457.549 479.831 462.5 473.224 461.553 466.918C461.553 466.918 461.467 466.724 461.327 466.67L461.187 466.616C455.171 464.302 448.628 462.107 442.074 463.279Z" fill="#8F8E69"/>
<path d="M441.443 384.343C436.137 385.193 431.23 388.765 429.938 394.211C428.808 399.236 431.799 404.402 436.395 406.652C441.549 409.116 447.683 407.782 452.01 404.468C456.917 400.895 461.868 394.287 460.921 387.981C460.835 387.787 460.835 387.787 460.835 387.787L460.555 387.68C454.4 385.312 447.997 383.17 441.443 384.343Z" fill="#8F8E69"/>
<path d="M330.49 393.055C325.27 394.099 320.277 397.478 318.985 402.923C317.801 408.089 320.793 413.254 325.442 415.364C330.457 417.775 336.731 416.494 341.003 413.32C345.911 409.747 350.861 403.14 349.968 396.693C349.882 396.5 349.742 396.446 349.742 396.446L349.462 396.338C343.447 394.024 337.044 391.882 330.49 393.055Z" fill="#706F52"/>
<path d="M283.302 338.287C278.083 339.331 273.089 342.71 271.798 348.155C270.614 353.321 273.605 358.486 278.254 360.596C283.269 363.007 289.403 361.673 293.869 358.412C298.777 354.839 303.727 348.232 302.781 341.925L302.555 341.678C302.415 341.624 302.415 341.624 302.415 341.624C296.399 339.31 290.05 337.028 283.302 338.287Z" fill="#8F8E69"/>
<path d="M236.869 266.946C231.563 267.796 226.656 271.369 225.364 276.814C224.18 281.98 227.172 287.146 231.821 289.255C236.835 291.666 243.109 290.385 247.382 287.211C252.289 283.638 257.24 277.031 256.347 270.585L256.121 270.337L255.981 270.283C249.966 267.969 243.423 265.774 236.869 266.946Z" fill="#8F8E69"/>
<path d="M190.887 208.627C185.527 209.617 180.674 213.05 179.382 218.495C178.198 223.66 181.189 228.826 185.838 230.936C190.993 233.4 197.127 232.066 201.54 228.945C206.447 225.373 211.398 218.765 210.451 212.459L210.225 212.211L210.085 212.158C203.844 209.596 197.44 207.454 190.887 208.627Z" fill="#706F52"/>
<path d="M133.798 162.899C128.439 163.889 123.585 167.322 122.293 172.767C121.109 177.932 124.101 183.098 128.75 185.208C133.905 187.672 140.039 186.338 144.451 183.217C149.359 179.645 154.309 173.037 153.362 166.731C153.362 166.731 153.276 166.537 153.136 166.483L152.997 166.43C146.895 163.922 140.352 161.726 133.798 162.899Z" fill="#8F8E69"/>
<path d="M112.297 128.611C109.123 124.338 103.602 121.572 98.2753 122.896C93.142 124.133 90.0101 129.352 90.1606 134.389C90.3756 140.093 94.3357 144.828 99.2967 147.379C104.677 150.091 112.964 151.512 118.119 147.713L118.28 147.293L118.334 147.153C117.301 140.653 116.376 133.873 112.297 128.611Z" fill="#706F52"/>
<path d="M441.086 432.867C441.99 427.594 440.548 421.739 435.996 418.543C431.67 415.594 425.643 416.648 422.016 420.232C417.948 424.127 417.001 430.348 418.378 435.535C419.82 441.389 424.34 448.428 430.592 449.708C430.732 449.762 430.926 449.676 430.926 449.676L431.173 449.45C435.424 444.661 439.837 439.453 441.086 432.867Z" fill="#706F52"/>
<path d="M468.466 367.115C471.329 362.595 472.029 356.601 468.822 351.995C465.841 347.636 460.008 346.517 455.219 348.529C450.043 350.713 446.857 356.072 446.319 361.647C445.619 367.641 447.287 375.831 452.678 379.35C452.818 379.404 452.958 379.458 452.958 379.458L453.292 379.425C458.899 376.122 464.979 372.84 468.466 367.115Z" fill="#8F8E69"/>
<path d="M487.813 427.876C482.411 427.725 476.933 430.275 474.522 435.29C472.359 440.079 474.382 445.675 478.514 448.71C483.012 452.046 489.329 451.907 494.366 449.669C499.844 447.118 505.978 441.609 506.366 435.173C506.366 435.173 506.333 434.839 506.194 434.786L506.107 434.592C500.415 431.439 494.496 428.038 487.813 427.876Z" fill="#8F8E69"/>
<path d="M516.095 417.395C519.689 413.478 521.616 407.634 519.378 402.598C517.366 397.809 511.823 395.516 506.744 396.614C501.191 397.69 497.08 402.532 495.422 407.676C493.689 413.434 493.689 421.785 498.23 426.262L498.65 426.423L498.704 426.283C504.913 424.336 511.456 422.356 516.095 417.395Z" fill="#706F52"/>
<path d="M561.453 470.656C565.048 466.739 566.974 460.895 564.736 455.859C562.584 451.016 557.042 448.724 552.102 449.875C546.549 450.951 542.438 455.793 540.78 460.937C539.047 466.695 538.907 474.992 543.448 479.469L543.868 479.631L544.008 479.684C550.271 477.597 556.815 475.617 561.453 470.656Z" fill="#706F52"/>
<path d="M391.607 337.711C386.302 338.561 381.394 342.134 380.103 347.579C378.973 352.605 381.964 357.77 386.559 360.02C391.714 362.484 397.848 361.15 402.314 357.889C407.222 354.317 412.173 347.709 411.226 341.403C411.226 341.403 411.14 341.209 411 341.155L410.86 341.102C404.704 338.734 398.161 336.538 391.607 337.711Z" fill="#8F8E69"/>
<path d="M408.741 311.539C410.065 306.427 409.011 300.4 404.566 296.924C400.348 293.696 394.483 294.33 390.49 297.612C386.196 301.26 384.829 307.319 385.819 312.679C386.927 318.565 391.005 325.916 397.096 327.616L397.43 327.584L397.624 327.498C402.381 323.064 407.159 318.157 408.741 311.539Z" fill="#706F52"/>
<path d="M353.04 284.331C347.713 283.567 341.891 285.342 338.974 290.002C336.165 294.382 337.553 300.376 341.191 303.863C345.14 307.791 351.468 308.459 356.763 306.802C362.585 305.026 369.397 300.259 370.538 293.953L370.366 293.565L370.42 293.426C365.05 289.433 359.594 285.246 353.04 284.331Z" fill="#8F8E69"/>
<path d="M377.502 264.994C380.365 260.474 381.204 254.533 378.191 249.841C375.21 245.483 369.431 244.223 364.696 246.096C359.434 248.086 356.248 253.445 355.57 258.966C354.73 264.907 356.204 273.182 361.542 276.841C361.682 276.895 361.822 276.949 361.822 276.949L362.155 276.917C367.848 273.807 373.929 270.525 377.502 264.994Z" fill="#8F8E69"/>
<path d="M335.802 223.097C331.013 220.934 324.89 220.987 320.736 224.689C316.829 228.165 316.409 234.267 319.057 238.657C321.876 243.436 327.698 245.836 333.154 245.847C339.137 245.739 347.09 243.017 349.91 237.357L349.878 237.023C349.878 237.023 349.932 236.883 349.792 236.829C345.961 231.341 341.99 225.798 335.802 223.097Z" fill="#8F8E69"/>
<path d="M364.762 211.271C368.809 207.849 371.295 202.221 369.638 196.926C368.013 191.965 362.88 189.027 357.682 189.597C352.011 190.145 347.501 194.353 345.37 199.475C342.938 204.964 342.131 213.326 346.177 218.255C346.177 218.255 346.457 218.362 346.596 218.416L346.79 218.33C353.064 217.05 359.672 215.737 364.762 211.271Z" fill="#706F52"/>
<path d="M329.843 164.273C325.678 160.905 319.813 159.452 314.809 162.023C310.192 164.423 308.319 170.127 309.75 175.174C311.354 180.609 316.358 184.3 321.663 185.538C327.582 186.851 335.868 186.184 339.979 181.342L340.001 180.868L339.915 180.674C337.72 174.691 335.159 168.406 329.843 164.273Z" fill="#8F8E69"/>
<path d="M309.097 109.237C304.146 107.494 297.948 108.161 294.159 112.164C290.565 116.081 290.812 122.118 293.707 126.283C297.053 130.943 302.951 132.73 308.342 132.074C314.401 131.353 321.956 127.996 324.27 121.98L324.238 121.646L324.152 121.453C319.966 116.47 315.36 111.325 309.097 109.237Z" fill="#8F8E69"/>
<path d="M282.83 55.611C278.557 52.5223 272.638 51.2091 267.72 53.9747C263.19 56.568 261.457 62.3254 263.135 67.1467C264.932 72.4953 269.99 76.0469 275.349 77.1448C281.322 78.318 289.576 77.3175 293.601 72.2813L293.709 72.0015L293.623 71.8077C290.954 65.8026 288.199 59.6038 282.83 55.611Z" fill="#8F8E69"/>
<path d="M356.435 158.603C361.192 156.257 364.969 151.447 364.561 145.829C364.324 140.599 359.815 136.455 354.768 135.799C349.161 134.927 343.662 137.951 340.379 142.309C336.742 147.173 333.922 154.921 336.504 160.733L336.924 160.894L337.064 160.948C343.639 161.39 350.462 161.605 356.435 158.603Z" fill="#706F52"/>
<path d="M332.299 91.503C335.388 87.2308 336.561 81.2582 333.742 76.4799C331.009 71.8953 325.144 70.4423 320.322 72.1209C314.974 73.9178 311.508 79.1694 310.55 84.5824C309.571 90.469 310.571 98.7232 315.661 102.608L316.135 102.63L316.329 102.544C322.194 99.8214 328.307 96.8729 332.299 91.503Z" fill="#8F8E69"/>
<path d="M396.91 405.756C397.954 400.537 396.566 394.543 391.96 391.486C387.634 388.537 381.801 389.506 378.035 393.035C373.967 396.931 372.879 403.097 374.203 408.424C375.645 414.279 380.164 421.317 386.309 422.878C386.449 422.932 386.643 422.845 386.643 422.845L386.89 422.619C391.249 417.551 395.661 412.342 396.91 405.756Z" fill="#8F8E69"/>
<path d="M345.622 364.989C347.226 359.985 346.365 353.873 342.168 350.171C338.197 346.716 332.246 347.157 328.167 350.245C323.647 353.646 322.086 359.791 322.936 365.096C323.851 371.069 327.402 378.538 333.525 380.572L333.859 380.54L334.052 380.453C338.616 376.106 343.62 371.446 345.622 364.989Z" fill="#8F8E69"/>
<path d="M301.943 304.023C305.311 299.858 306.904 294.047 304.472 289.096C302.073 284.48 296.423 282.467 291.569 283.812C286.049 285.222 282.217 290.172 280.979 295.477C279.526 301.342 279.913 309.521 284.702 313.772C284.788 313.966 284.982 313.88 284.982 313.88C284.982 313.88 285.176 313.794 285.316 313.847C291.353 311.512 297.584 309.091 301.943 304.023Z" fill="#706F52"/>
<path d="M256.768 235.254C260.277 231.143 261.73 225.278 259.298 220.328C256.952 215.571 251.248 213.698 246.449 214.903C240.928 216.313 237.097 221.263 235.719 226.515C234.266 232.38 234.739 240.752 239.528 245.003C239.668 245.057 239.808 245.111 239.808 245.111C239.808 245.111 240.001 245.025 240.141 245.079C245.985 242.83 252.496 240.516 256.768 235.254Z" fill="#8F8E69"/>
<path d="M204.146 180.001C207.655 175.891 209.108 170.026 206.676 165.075C204.33 160.318 198.626 158.446 193.687 159.597C188.166 161.007 184.335 165.957 183.097 171.262C181.644 177.127 181.977 185.446 186.766 189.697L187.185 189.858L187.379 189.772C193.556 187.491 199.927 185.124 204.146 180.001Z" fill="#8F8E69"/>
</svg>
