<svg width="592" height="719" viewBox="0 0 592 719" fill="none" xmlns="http://www.w3.org/2000/svg">
<path d="M443.824 117.69C425.339 157.775 398.563 193.959 365.23 223.058C333.282 251.091 295.634 271.086 260.343 294.101C243.098 305.203 226.277 317.276 211.165 331.148C195.111 345.777 181.409 362.618 169.357 380.59C144.808 416.844 126.378 456.79 101.187 492.63C78.7802 524.25 50.8233 554.011 14.5652 569.238C10.0959 571.187 5.26278 572.831 0.539301 574.196C0.0111483 574.311 0.295169 575.228 0.295169 575.228C37.804 564.196 67.3404 537.793 90.7881 508.031C117.549 473.935 136.318 434.767 158.943 398.08C170.986 378.493 184.175 359.678 200.049 343.046C214.762 327.73 231.494 314.655 248.928 302.662C283.492 279.039 321.06 259.656 354.049 233.482C388.424 206.242 416.964 171.717 437.237 132.818C439.768 128.014 442.16 123.156 444.412 118.243C444.631 117.685 443.989 117.272 443.824 117.69Z" fill="#8F8E69"/>
<path d="M534.394 270.026C520.164 300.51 490.074 318.483 459.297 328.777C426.88 339.555 392.575 342.022 359.157 348.38C342.281 351.574 325.58 355.964 309.7 362.771C293.183 369.971 278.549 380.165 265.6 392.632C251.708 405.856 239.247 420.769 226.168 434.795C212.536 449.409 198.401 463.665 183.956 477.476C154.983 504.906 124.385 530.731 92.2427 554.339C88.1421 557.399 84.0414 560.458 79.8013 563.463C79.3579 563.771 79.6967 564.549 80.1401 564.24C112.646 540.936 143.777 515.803 173.059 488.817C187.867 475.309 202.088 461.248 215.944 446.883C229.606 432.603 242.401 417.66 256.063 403.379C269.117 389.827 283.263 377.186 300.049 368.481C315.475 360.369 332.256 355.366 349.212 351.559C382.929 344.03 417.767 342.256 450.941 332.42C481.171 323.52 511.918 308.383 529.257 281.053C531.379 277.7 533.223 274.237 534.927 270.719C535.341 270.076 534.558 269.608 534.394 270.026Z" fill="#8F8E69"/>
<path d="M125.67 441.373C124.803 436.201 121.32 431.129 115.884 429.799C110.866 428.633 105.679 431.588 103.397 436.167C100.951 441.164 102.187 447.447 105.47 451.797C109.008 456.73 115.58 461.727 121.893 460.825C121.893 460.825 122.087 460.741 122.142 460.601L122.197 460.462C124.554 454.463 126.796 447.935 125.67 441.373Z" fill="#8F8E69"/>
<path d="M204.609 441.303C203.796 435.991 200.259 431.058 194.823 429.728C189.805 428.562 184.618 431.517 182.336 436.096C179.835 441.233 181.126 447.377 184.409 451.726C187.947 456.659 194.519 461.657 200.832 460.755C201.026 460.67 201.026 460.67 201.026 460.67L201.136 460.391C203.548 454.252 205.735 447.865 204.609 441.303Z" fill="#8F8E69"/>
<path d="M196.685 330.291C195.678 325.064 192.335 320.046 186.899 318.716C181.742 317.495 176.555 320.45 174.413 325.084C171.966 330.082 173.202 336.365 176.346 340.66C179.884 345.592 186.456 350.59 192.908 349.743C193.103 349.658 193.157 349.518 193.157 349.518L193.267 349.239C195.624 343.24 197.811 336.853 196.685 330.291Z" fill="#706F52"/>
<path d="M251.787 283.493C250.78 278.267 247.437 273.249 242.001 271.919C236.844 270.698 231.657 273.653 229.514 278.287C227.068 283.284 228.358 289.428 231.587 293.917C235.125 298.85 241.697 303.847 248.01 302.946L248.259 302.721C248.314 302.582 248.314 302.582 248.314 302.582C250.671 296.583 252.997 290.25 251.787 283.493Z" fill="#8F8E69"/>
<path d="M323.456 237.568C322.643 232.256 319.106 227.324 313.67 225.993C308.513 224.773 303.326 227.727 301.183 232.361C298.737 237.359 299.973 243.642 303.117 247.937C306.654 252.869 313.227 257.867 319.679 257.02L319.928 256.796L319.983 256.656C322.34 250.657 324.582 244.13 323.456 237.568Z" fill="#8F8E69"/>
<path d="M382.1 192.001C381.149 186.635 377.75 181.757 372.314 180.427C367.157 179.206 361.97 182.161 359.828 186.795C357.327 191.932 358.617 198.075 361.707 202.51C365.244 207.442 371.816 212.44 378.129 211.538L378.379 211.314L378.433 211.174C381.039 204.951 383.226 198.563 382.1 192.001Z" fill="#706F52"/>
<path d="M428.233 135.239C427.281 129.872 423.883 124.995 418.447 123.664C413.29 122.444 408.103 125.398 405.961 130.032C403.459 135.169 404.75 141.313 407.839 145.747C411.377 150.68 417.949 155.677 424.262 154.775C424.262 154.775 424.456 154.691 424.511 154.551L424.566 154.412C427.117 148.328 429.359 141.801 428.233 135.239Z" fill="#8F8E69"/>
<path d="M462.673 113.983C466.968 110.839 469.773 105.338 468.487 100.001C467.286 94.8594 462.089 91.6906 457.052 91.8052C451.347 91.9797 446.584 95.9061 443.998 100.849C441.247 106.21 439.768 114.486 443.53 119.668L443.948 119.833L444.088 119.887C450.595 118.901 457.381 118.024 462.673 113.983Z" fill="#706F52"/>
<path d="M156.088 440.601C161.355 441.542 167.219 440.142 170.448 435.613C173.428 431.308 172.416 425.274 168.858 421.622C164.992 417.526 158.779 416.535 153.582 417.875C147.717 419.275 140.647 423.745 139.322 429.988C139.267 430.128 139.352 430.322 139.352 430.322L139.576 430.571C144.334 434.856 149.511 439.305 156.088 440.601Z" fill="#706F52"/>
<path d="M221.644 468.448C226.144 471.342 232.133 472.085 236.762 468.911C241.141 465.961 242.302 460.136 240.324 455.333C238.176 450.141 232.84 446.918 227.269 446.34C221.28 445.598 213.079 447.207 209.521 452.573C209.467 452.713 209.412 452.852 209.412 452.852L209.442 453.186C212.705 458.816 215.944 464.92 221.644 468.448Z" fill="#8F8E69"/>
<path d="M160.747 487.362C160.937 481.961 158.425 476.465 153.428 474.019C148.654 471.822 143.044 473.805 139.98 477.916C136.612 482.39 136.706 488.708 138.909 493.76C141.42 499.256 146.886 505.429 153.319 505.863C153.319 505.863 153.652 505.833 153.707 505.693L153.902 505.609C157.095 499.938 160.538 494.044 160.747 487.362Z" fill="#8F8E69"/>
<path d="M171.027 515.718C174.919 519.34 180.748 521.308 185.801 519.106C190.604 517.128 192.936 511.602 191.874 506.515C190.838 500.954 186.025 496.809 180.893 495.115C175.148 493.341 166.797 493.282 162.288 497.791L162.123 498.209L162.263 498.264C164.166 504.487 166.099 511.044 171.027 515.718Z" fill="#706F52"/>
<path d="M117.445 560.697C121.336 564.319 127.166 566.287 132.218 564.085C137.076 561.967 139.408 556.441 138.292 551.493C137.256 545.933 132.442 541.787 127.31 540.093C121.565 538.32 113.269 538.121 108.76 542.63L108.596 543.048L108.541 543.188C110.584 549.466 112.517 556.023 117.445 560.697Z" fill="#706F52"/>
<path d="M251.594 391.8C250.781 386.489 247.244 381.556 241.808 380.226C236.79 379.06 231.603 382.014 229.321 386.593C226.82 391.731 228.111 397.874 231.34 402.363C234.877 407.296 241.449 412.293 247.762 411.392C247.762 411.392 247.957 411.307 248.011 411.167L248.066 411.028C250.478 404.889 252.72 398.362 251.594 391.8Z" fill="#8F8E69"/>
<path d="M277.643 409.119C282.745 410.479 288.779 409.468 292.287 405.048C295.545 400.853 294.952 394.983 291.699 390.967C288.081 386.647 282.032 385.237 276.666 386.189C270.772 387.256 263.393 391.282 261.649 397.36L261.679 397.694L261.763 397.889C266.163 402.677 271.036 407.49 277.643 409.119Z" fill="#706F52"/>
<path d="M305.246 353.613C306.048 348.291 304.314 342.457 299.675 339.507C295.315 336.667 289.311 338.012 285.798 341.625C281.842 345.546 281.13 351.869 282.749 357.176C284.483 363.01 289.202 369.856 295.5 371.042L295.889 370.872L296.028 370.927C300.059 365.586 304.284 360.16 305.246 353.613Z" fill="#8F8E69"/>
<path d="M324.409 378.211C328.909 381.106 334.843 381.988 339.556 379.008C343.936 376.059 345.236 370.289 343.398 365.54C341.445 360.264 336.108 357.04 330.592 356.323C324.658 355.441 316.372 356.856 312.675 362.168C312.62 362.307 312.565 362.447 312.565 362.447L312.595 362.78C315.665 368.495 318.903 374.599 324.409 378.211Z" fill="#8F8E69"/>
<path d="M366.601 336.811C368.799 332.037 368.788 325.914 365.116 321.733C361.668 317.802 355.57 317.339 351.16 319.955C346.362 322.74 343.92 328.545 343.871 334.001C343.936 339.985 346.601 347.957 352.242 350.817L352.575 350.787C352.575 350.787 352.715 350.842 352.77 350.702C358.285 346.91 363.856 342.979 366.601 336.811Z" fill="#8F8E69"/>
<path d="M378.221 365.854C381.614 369.925 387.225 372.451 392.531 370.831C397.504 369.242 400.478 364.13 399.945 358.928C399.437 353.253 395.261 348.714 390.154 346.546C384.683 344.075 376.327 343.208 371.37 347.219C371.37 347.219 371.26 347.498 371.205 347.638L371.29 347.832C372.526 354.115 373.791 360.732 378.221 365.854Z" fill="#706F52"/>
<path d="M425.466 331.269C428.864 327.128 430.358 321.274 427.822 316.251C425.455 311.618 419.765 309.704 414.708 311.099C409.262 312.664 405.535 317.642 404.259 322.938C402.904 328.848 403.512 337.139 408.326 341.284L408.799 341.309L408.993 341.224C414.992 339.072 421.295 336.555 425.466 331.269Z" fill="#8F8E69"/>
<path d="M480.647 310.914C482.426 305.977 481.803 299.773 477.827 295.957C473.935 292.334 467.896 292.539 463.711 295.404C459.028 298.717 457.199 304.602 457.817 309.998C458.495 316.062 461.798 323.64 467.797 325.997L468.131 325.967L468.325 325.882C473.338 321.732 478.515 317.163 480.647 310.914Z" fill="#8F8E69"/>
<path d="M534.459 285.029C537.578 280.779 538.933 274.869 536.202 269.932C533.641 265.383 527.896 263.609 523.063 265.253C517.702 267.012 514.115 272.045 512.979 277.396C511.763 283.36 512.705 291.621 517.712 295.682L517.991 295.792L518.186 295.707C524.21 293.081 530.428 290.37 534.459 285.029Z" fill="#8F8E69"/>
<path d="M430.947 357.901C433.259 362.674 438.042 366.486 443.662 366.117C448.894 365.918 453.069 361.438 453.762 356.396C454.674 350.795 451.689 345.275 447.354 341.961C442.516 338.289 434.788 335.414 428.958 337.956L428.794 338.374L428.739 338.514C428.251 345.086 427.987 351.907 430.947 357.901Z" fill="#706F52"/>
<path d="M498.216 334.242C502.466 337.362 508.431 338.577 513.229 335.792C517.833 333.091 519.327 327.237 517.683 322.404C515.924 317.042 510.697 313.54 505.291 312.543C499.412 311.522 491.151 312.464 487.229 317.526L487.204 317.999L487.289 318.194C489.97 324.078 492.875 330.212 498.216 334.242Z" fill="#8F8E69"/>
<path d="M183.512 396.619C188.724 397.7 194.728 396.355 197.817 391.771C200.796 387.466 199.87 381.626 196.367 377.834C192.5 373.739 186.342 372.608 181.005 373.893C175.141 375.294 168.071 379.763 166.466 385.897C166.412 386.036 166.496 386.23 166.496 386.23L166.721 386.48C171.758 390.874 176.935 395.324 183.512 396.619Z" fill="#8F8E69"/>
<path d="M224.642 345.622C229.635 347.261 235.753 346.444 239.485 342.273C242.968 338.327 242.569 332.373 239.51 328.272C236.142 323.728 230.008 322.124 224.697 322.936C218.718 323.808 211.224 327.306 209.146 333.415L209.176 333.748L209.261 333.943C213.576 338.537 218.2 343.574 224.642 345.622Z" fill="#8F8E69"/>
<path d="M285.918 302.377C290.058 305.775 295.858 307.409 300.826 305.012C305.46 302.645 307.512 297.01 306.202 292.147C304.831 286.616 299.909 282.75 294.612 281.475C288.758 279.98 280.576 280.309 276.291 285.067C276.097 285.152 276.182 285.346 276.182 285.346C276.182 285.346 276.266 285.541 276.211 285.68C278.504 291.734 280.88 297.982 285.918 302.377Z" fill="#706F52"/>
<path d="M355.006 257.692C359.092 261.23 364.946 262.724 369.914 260.328C374.687 258.016 376.6 252.325 375.429 247.517C374.059 241.987 369.136 238.12 363.894 236.705C358.04 235.21 349.664 235.624 345.379 240.383C345.324 240.522 345.27 240.662 345.27 240.662C345.27 240.662 345.354 240.856 345.299 240.995C347.507 246.855 349.774 253.382 355.006 257.692Z" fill="#8F8E69"/>
<path d="M410.631 205.464C414.716 209.001 420.571 210.496 425.539 208.099C430.312 205.787 432.225 200.097 431.109 195.15C429.739 189.619 424.816 185.753 419.519 184.477C413.665 182.982 405.344 183.257 401.059 188.015L400.894 188.434L400.979 188.628C403.216 194.821 405.538 201.209 410.631 205.464Z" fill="#8F8E69"/>
</svg>
