<svg width="680" height="727" viewBox="0 0 680 727" fill="none" xmlns="http://www.w3.org/2000/svg">
<g clip-path="url(#clip0_125_136)">
<path d="M0 214C0 95.8 95.8 0 214 0H466C584.2 0 680 95.8 680 214V513C680 631.2 584.2 727 466 727H0V214Z" fill="#03BFF9"/>
<path d="M623.466 577.575C623.635 577.801 626.003 576.278 625.891 576.335C625.101 576.729 624.256 577.18 623.466 577.575ZM516.958 499.089C525.584 508.28 534.324 517.301 543.232 526.153C544.416 527.337 545.544 528.465 546.728 529.649C549.378 532.299 552.085 534.893 554.735 537.486C556.764 539.46 558.851 541.49 560.937 543.463C563.982 546.339 567.026 549.214 570.071 552.09C570.24 552.259 570.409 552.428 570.578 552.597C571.537 553.499 572.495 554.345 573.454 555.247C575.878 557.502 578.303 559.758 580.784 562.013C581.348 562.521 581.911 563.028 582.475 563.535C582.757 563.817 583.096 564.099 583.377 564.381C583.998 564.945 584.618 565.509 585.294 566.073C586.591 567.257 587.944 568.441 589.298 569.625C590.425 570.64 591.497 571.598 592.624 572.613C593.978 573.797 595.331 574.981 596.628 576.165C597.642 577.068 598.714 577.97 599.729 578.872C601.364 580.281 602.999 581.691 604.578 583.101C604.916 583.382 605.254 583.721 605.649 584.003C606.72 584.961 607.848 585.863 608.919 586.822C609.145 586.991 609.539 586.991 609.765 586.822C610.949 585.863 612.189 584.905 613.373 584.003C613.599 583.834 613.768 583.721 613.994 583.552C614.501 583.157 615.065 582.762 615.629 582.424C618.166 580.676 620.816 579.041 623.579 577.575C622.846 576.616 620.76 573.515 618.166 569.512C616.926 567.595 615.572 565.509 614.163 563.31C613.881 562.915 613.599 562.464 613.317 562.013C612.866 561.337 612.415 560.66 611.964 559.983C610.893 558.348 609.821 556.713 608.75 555.134C607.848 553.781 606.946 552.484 606.1 551.244C604.352 548.65 602.717 546.451 601.477 544.985C595.5 537.712 589.636 530.608 583.885 523.56C583.096 522.601 582.306 521.643 581.573 520.684C580.276 519.105 578.98 517.527 577.683 515.891C576.442 514.369 575.202 512.79 573.961 511.268C566.744 502.303 559.64 493.225 552.479 483.753C554.678 482.851 556.877 481.892 559.076 480.99C559.866 480.652 559.414 479.411 558.569 479.75C556.257 480.708 553.945 481.667 551.634 482.682C548.589 478.622 545.544 474.619 542.443 470.615C541.936 469.939 540.808 470.728 541.372 471.405C544.36 475.352 547.348 479.298 550.337 483.245C539.229 487.925 528.178 492.887 517.296 498.018C516.901 498.243 516.619 498.751 516.958 499.089Z" fill="#FA9464"/>
<path d="M546.728 529.649C549.378 532.299 552.085 534.893 554.735 537.487C556.764 539.46 558.851 541.49 560.937 543.463C561.05 543.407 561.162 543.294 561.275 543.238C564.151 541.264 567.816 541.208 570.635 539.178C573.51 537.092 574.187 533.201 576.16 530.382C578.134 527.507 580.784 525.251 583.829 523.673C583.039 522.714 582.25 521.756 581.517 520.797C580.22 519.218 578.923 517.64 577.626 516.004C567.928 517.358 558.625 521.023 550.619 526.661C549.322 527.619 548.025 528.634 546.728 529.649Z" fill="#DE6B45"/>
<path d="M377.521 671.961C380.397 672.469 383.216 673.202 385.866 673.991C386.881 674.273 387.952 674.611 388.967 674.95C390.771 675.175 392.576 675.344 394.662 675.457C396.861 675.626 398.947 676.415 400.582 677.712C405.487 655.779 409.773 635.65 414.509 615.578C415.749 610.334 416.99 605.147 418.287 599.903C419.809 593.87 421.331 587.781 422.966 581.578C425.053 582.762 427.139 583.89 429.225 585.074C429.958 585.525 430.691 584.341 429.902 583.89C427.703 582.65 425.504 581.409 423.305 580.225C424.601 575.32 425.898 570.414 427.139 565.565C427.364 564.72 426.067 564.381 425.842 565.227C424.601 570.02 423.361 574.812 422.064 579.605C411.521 573.741 400.808 568.103 390.038 562.69C389.7 562.521 389.136 562.634 389.023 563.085C387.614 572.444 386.261 581.804 385.077 591.164C384.456 595.956 383.893 600.805 383.329 605.598C380.735 627.587 378.818 649.746 377.521 671.961Z" fill="#FA9464"/>
<path d="M383.272 605.485C386.092 605.71 388.798 606.274 391.335 607.74C392.914 608.642 394.38 609.713 395.959 610.616C396.974 611.179 398.045 611.631 399.229 611.912C402.668 612.702 406.108 612.364 409.547 613.378C410.957 613.829 412.31 614.393 413.55 615.07C413.889 615.239 414.171 615.408 414.452 615.577C414.565 615.07 414.678 614.619 414.791 614.111C415.185 612.42 415.58 610.672 416.031 608.981C416.313 607.74 416.595 606.556 416.933 605.316C416.99 605.146 416.99 604.977 417.046 604.808C417.441 603.173 417.835 601.482 418.286 599.846C417.892 599.226 417.272 598.831 416.595 598.55C416.426 598.493 416.257 598.437 416.088 598.38C414.903 597.986 413.494 597.873 412.423 597.647C408.701 596.745 404.98 595.843 401.315 594.997C397.368 594.039 393.478 593.137 389.531 592.178C388.065 591.84 386.599 591.445 385.133 591.107C384.851 593.306 384.569 595.561 384.287 597.76L383.893 600.974C383.78 601.651 383.723 602.327 383.667 603.06C383.441 603.85 383.385 604.695 383.272 605.485Z" fill="#DE6B45"/>
<path d="M289.901 228.843C290.86 225.009 292.438 221.513 294.356 218.074C294.468 217.848 294.581 217.623 294.694 217.397C294.694 217.341 294.75 217.341 294.75 217.284C294.863 217.341 295.032 217.341 295.145 217.397C295.427 217.453 295.709 217.51 295.991 217.566C296.667 217.679 297.287 217.623 297.908 217.397C299.204 216.89 300.05 215.536 300.896 214.521C302.757 212.379 304.448 210.123 306.252 207.925C306.365 207.812 306.422 207.699 306.534 207.586C306.703 207.361 306.873 207.192 307.042 206.966C307.267 206.684 307.549 206.346 307.831 206.064C307.944 205.951 308 205.838 308.113 205.726C308.395 205.387 308.733 205.049 309.072 204.654C309.748 203.921 310.481 203.188 311.214 202.455C312.285 201.328 313.357 200.2 314.315 199.016C314.484 198.847 314.597 198.678 314.766 198.452C315.217 197.888 315.612 197.324 315.95 196.704C316.571 195.689 317.134 194.562 317.473 193.378V193.321C317.755 192.363 317.98 191.291 317.98 190.22C317.98 190.164 317.98 190.164 317.98 190.107C317.98 189.656 317.304 189.656 317.304 190.107C317.247 190.107 317.247 190.164 317.191 190.164C316.627 190.615 316.063 191.066 315.499 191.517C312.737 193.716 310.03 195.915 307.549 198.396C305.35 200.538 303.49 202.906 301.685 205.331C301.122 206.064 300.614 206.853 300.107 207.586C298.584 209.785 297.062 212.041 295.652 214.352C295.201 215.085 294.75 215.762 294.356 216.495C294.017 216.382 293.792 216.89 294.074 217.059C291.987 220.724 290.24 224.501 289.225 228.617C289.112 229.068 289.788 229.294 289.901 228.843Z" fill="#FA9464"/>
<path d="M154.919 264.646C155.201 265.323 155.483 266.056 155.765 266.789C156.272 268.255 160.952 272.54 167.493 278.066C167.887 278.404 168.338 278.742 168.733 279.137C169.24 279.588 169.804 280.039 170.368 280.49C188.354 295.319 216.885 316.463 219.535 316.068C220.155 316.012 220.775 315.899 221.339 315.786C221.79 315.73 222.297 315.617 222.748 315.504C225.342 314.94 227.936 314.207 230.417 313.08C234.815 311.163 238.479 308.174 241.919 304.904C245.697 301.352 288.774 250.494 292.495 247.393C293.115 246.886 293.735 246.322 294.356 245.814C298.302 242.488 301.685 239.894 305.35 236.624C306.534 235.552 307.775 234.425 309.072 233.241C309.072 233.354 309.128 233.466 309.184 233.523C309.354 233.692 309.692 233.692 309.692 233.354C309.748 233.072 309.748 232.79 309.805 232.508C310.143 232.169 311.778 220.893 313.3 211.477C313.357 211.082 313.413 210.631 313.47 210.236C313.921 207.192 314.372 204.429 314.766 202.399C314.992 201.159 315.161 200.144 315.33 199.523C315.781 199.185 316.176 198.903 316.627 198.565C316.683 198.508 316.74 198.452 316.74 198.396V198.227C316.74 198.001 316.514 197.775 316.232 197.945C316.007 198.114 315.781 198.283 315.556 198.452C315.725 197.832 315.838 197.212 316.007 196.591C316.007 196.535 316.007 196.479 316.063 196.422C316.176 195.971 315.499 195.802 315.387 196.253C315.33 196.535 315.105 197.324 314.823 198.339C314.597 199.129 314.315 200.087 314.033 201.046C313.864 201.722 313.639 202.343 313.47 202.963C313.075 204.372 312.737 205.556 312.624 205.895C311.947 206.402 311.722 205.387 311.553 204.147C311.44 203.527 311.383 202.906 311.271 202.399C311.101 201.722 310.876 201.328 310.481 201.497C305.012 204.26 306.985 199.974 301.742 205.331C295.991 211.251 289.507 218.186 288.435 219.596C287.195 221.175 286.518 223.092 285.954 224.952C285.052 227.828 284.15 230.703 283.248 233.579C282.064 234.481 280.034 236.285 277.328 238.71C263.006 251.509 231.093 281.167 222.41 280.377C221.057 280.265 208.709 270.397 199.462 263.237C195.515 260.136 192.132 257.598 190.441 256.527C189.99 256.245 189.651 256.076 189.426 256.02L184.126 257.26L181.307 257.937L176.683 259.064L167.944 261.151L155.37 264.139C154.975 264.083 154.806 264.364 154.919 264.646Z" fill="#FA9464"/>
<path d="M129.265 202.399C129.321 202.85 129.377 203.301 129.434 203.752C129.659 205.331 130.054 206.966 131.125 208.263C132.084 209.447 133.493 210.011 134.903 210.574C135.974 211.026 137.102 211.42 138.173 211.702C140.598 212.322 142.966 212.435 145.503 211.42C147.364 210.687 149.112 209.616 151.141 209.56C152.833 209.503 154.412 210.123 155.821 210.913C158.415 212.322 160.783 214.352 163.715 215.142C166.196 215.818 168.789 215.254 170.65 213.394C171.665 212.379 172.398 211.026 172.624 209.616C172.849 208.094 172.511 206.628 172.342 205.105C172.342 204.88 172.285 204.598 172.285 204.372C172.003 197.212 178.657 192.024 180.292 185.371C180.743 183.567 180.855 181.762 180.799 179.902C180.799 179.62 180.799 179.394 180.743 179.112C180.686 177.703 180.461 176.293 180.235 174.884C180.123 174.32 180.066 173.756 179.953 173.192C179.841 172.628 179.784 172.064 179.671 171.501C179.277 169.076 178.882 166.652 178.6 164.227C178.544 163.776 178.487 163.269 178.431 162.818C178.318 161.634 178.205 160.449 178.149 159.209C177.811 152.048 178.713 144.718 181.927 138.291C182.04 138.291 182.152 138.291 182.265 138.347C182.321 138.347 182.434 138.347 182.434 138.347C182.716 138.234 182.773 137.783 182.434 137.727C182.378 137.727 182.265 137.727 182.209 137.671C182.773 136.543 183.449 135.472 184.182 134.4C184.408 134.062 183.844 133.724 183.618 134.062C183.054 134.851 182.547 135.697 182.096 136.543C181.927 136.881 181.701 137.219 181.532 137.558C178.093 137.107 174.653 137.783 171.665 139.644C168.451 141.674 166.478 144.888 164.392 147.989C163.264 149.624 162.136 151.203 160.614 152.443C158.64 154.135 156.216 154.924 153.791 155.713C151.931 156.333 150.239 157.123 148.604 158.081C147.025 159.04 145.503 160.168 144.15 161.521C143.812 161.803 143.53 162.141 143.248 162.479C140.88 164.96 138.906 167.836 137.215 170.88C135.523 173.869 134.057 177.083 132.817 180.184C130.167 187.175 128.419 194.843 129.265 202.399Z" fill="#2E0807"/>
<path d="M303.772 219.483C303.772 220.047 303.828 220.611 303.997 221.231C304.561 223.374 306.14 225.065 306.252 227.433C306.365 230.478 305.181 233.579 305.294 236.68C306.478 235.609 307.718 234.481 309.015 233.297C309.015 233.41 309.072 233.523 309.128 233.579C309.297 233.748 309.635 233.748 309.635 233.41C309.692 233.128 309.692 232.846 309.748 232.564C310.087 232.226 311.722 220.949 313.244 211.533C313.075 211.364 312.793 211.308 312.398 211.308H312.342C312.173 211.308 312.004 211.364 311.778 211.42C311.496 211.533 311.271 211.702 311.045 211.871C311.045 211.871 311.045 211.871 310.989 211.928C310.989 211.928 310.989 211.928 310.932 211.928C310.425 212.323 309.974 212.774 309.635 213.112C308.564 214.014 306.985 215.254 305.576 216.044C305.35 215.818 305.012 215.762 304.73 215.875C304.617 215.931 304.505 216.044 304.448 216.157C304.448 216.157 304.448 216.157 304.448 216.213C304.392 216.326 304.392 216.439 304.335 216.495C304.166 216.608 304.053 216.833 304.053 217.059C304.053 217.115 304.053 217.115 304.053 217.172C304.053 217.228 304.053 217.284 304.11 217.341C303.828 218.074 303.772 218.807 303.772 219.483Z" fill="#DE6B45"/>
<path d="M182.829 265.831C182.885 267.24 183.167 268.65 184.013 269.947C184.126 270.06 184.182 270.229 184.295 270.341C185.592 272.146 187.621 273.217 189.595 274.176C193.091 275.867 196.192 277.502 198.955 280.321C199.293 280.66 199.8 280.547 200.026 280.209C200.195 279.983 200.308 279.758 200.421 279.588C201.154 278.179 201.154 276.882 200.815 275.585C200.308 273.555 199.011 271.582 198.447 269.496C197.827 267.184 199.011 265.38 199.518 263.35C195.572 260.249 192.189 257.712 190.497 256.64C190.046 256.358 189.708 256.189 189.482 256.133L184.182 257.373C183.844 258.388 183.505 259.403 183.393 260.192C183.336 260.756 183.224 261.32 183.167 261.828C182.942 263.124 182.772 264.478 182.829 265.831Z" fill="#DE6B45"/>
<path d="M132.704 215.367C133.888 215.762 135.016 216.269 136.143 216.777C136.312 217.171 136.482 217.566 136.707 217.961C138.06 220.836 139.47 223.655 140.936 226.475C141.105 226.756 141.218 227.095 141.387 227.377C141.613 227.771 141.838 228.222 142.064 228.617C144.544 233.297 147.307 237.864 150.465 242.093C150.859 242.6 151.254 243.164 151.705 243.672C152.607 244.799 153.509 245.927 154.468 246.998C158.753 251.847 163.489 256.301 167.831 261.094C167.887 261.15 167.944 261.207 168 261.263C170.03 263.519 172.06 265.83 173.977 268.142C176.288 270.961 178.544 273.78 180.743 276.656C180.912 276.938 181.363 276.825 181.363 276.487C181.419 273.949 182.716 271.976 184.238 270.172C184.802 269.495 185.423 268.875 185.986 268.198C186.888 267.183 187.847 266.169 188.58 265.097C189.426 263.857 190.102 262.447 190.328 260.868C190.497 259.572 190.328 258.275 190.328 256.978C190.328 256.809 190.328 256.64 190.328 256.414C190.328 256.301 190.328 256.189 190.328 256.076C190.441 254.892 190.779 253.877 191.794 253.088C192.189 252.806 192.696 252.58 193.034 252.185C195.008 250.156 191.343 248.013 189.99 246.942C184.013 242.6 176.965 240.063 170.255 237.018C163.377 233.917 157.344 229.745 151.254 225.29C146.687 221.964 142.12 218.694 137.045 216.269C136.876 216.213 136.764 216.156 136.594 216.044C136.369 215.593 136.2 215.198 135.974 214.747C135.805 214.352 135.185 214.69 135.41 215.085C135.467 215.254 135.579 215.423 135.636 215.593C134.734 215.198 133.775 214.803 132.817 214.465C132.591 214.408 132.478 214.521 132.422 214.69C132.422 215.085 132.478 215.311 132.704 215.367Z" fill="#F2BB55"/>
<path d="M312.285 236.849L327.34 240.965C329.426 241.529 331.456 240.232 331.794 237.977L339.744 188.416C340.083 186.217 338.673 183.961 336.587 183.341L321.532 179.225C319.446 178.661 317.416 179.958 317.078 182.214L309.128 231.775C308.733 234.03 310.199 236.285 312.285 236.849Z" fill="#2E0807"/>
<path d="M314.09 233.974L325.874 237.188C327.509 237.639 329.088 236.624 329.37 234.876L336.756 189.205C337.038 187.457 335.91 185.709 334.275 185.258L322.491 182.044C320.856 181.593 319.277 182.608 318.995 184.356L311.609 230.027C311.327 231.775 312.455 233.523 314.09 233.974Z" fill="white"/>
<path d="M79.3652 723.214C82.2407 723.101 85.1163 722.988 87.9918 722.819C88.6121 722.819 89.1759 722.763 89.7961 722.763C90.1344 722.763 90.3599 722.537 90.4727 722.255C91.1493 720.225 93.1227 715.264 95.8855 708.385C104.287 687.466 120.187 648.731 132.197 619.13C138.342 603.963 143.473 591.22 145.954 584.567C146.123 584.116 146.292 583.664 146.462 583.157C146.462 583.101 146.518 583.044 146.518 583.044C148.942 576.56 151.423 570.076 153.848 563.592C154.186 562.633 154.581 561.675 154.919 560.716C155.821 558.292 156.723 555.924 157.625 553.499C159.148 549.496 160.614 545.549 162.136 541.546C162.305 541.038 161.741 540.644 161.29 540.7C151.254 542.335 141.162 543.689 131.069 544.816C131.407 543.745 131.745 542.73 132.084 541.659C132.366 540.813 131.012 540.475 130.787 541.32C130.392 542.561 129.998 543.745 129.603 544.985C127.122 545.267 124.641 545.493 122.104 545.775C121.258 545.831 121.258 547.184 122.104 547.128C124.472 546.902 126.784 546.677 129.152 546.395C127.799 550.567 126.333 555.36 124.698 560.66C124.416 561.506 124.19 562.408 123.908 563.254C122.047 569.343 120.074 575.94 117.988 582.988C117.931 583.213 117.875 583.383 117.819 583.608C114.605 594.377 111.222 605.992 107.839 617.776C101.355 640.274 94.8142 663.334 89.5706 682.166C87.0333 691.301 84.8344 699.42 83.0301 705.96C80.8311 714.08 79.3088 719.887 78.8013 722.312C78.6322 722.763 78.9141 723.27 79.3652 723.214Z" fill="#2E0807"/>
<path d="M101.186 197.945C101.468 200.144 102.031 202.286 102.933 204.26C103.723 205.951 104.738 207.473 106.035 208.939C106.26 209.221 106.542 209.447 106.768 209.729C111.447 214.409 118.101 217.51 124.077 219.934C126.727 221.005 130.843 223.204 133.775 221.908C135.354 221.175 136.2 219.652 136.707 218.017C136.764 217.735 136.876 217.51 136.933 217.228C136.989 217.059 137.046 216.833 137.102 216.664V216.608C137.44 214.972 137.835 213.337 138.173 211.702C138.85 208.601 139.47 205.556 140.203 202.512C140.936 199.241 141.782 195.971 142.74 192.757C144.206 187.796 145.898 182.89 147.702 178.098C148.491 175.955 149.394 173.812 150.239 171.67C150.634 172.065 151.141 172.346 151.874 172.346C152.72 172.403 152.72 171.05 151.874 170.993C151.367 170.993 151.085 170.599 150.916 170.091C151.311 169.133 151.762 168.174 152.156 167.159C152.495 166.37 151.311 165.693 150.972 166.483C150.859 166.765 150.747 166.99 150.634 167.272C150.634 166.37 150.69 165.58 150.69 165.186C150.578 164.227 150.465 163.269 150.239 162.31C150.07 161.577 149.845 160.901 149.619 160.168C149.394 159.491 149.112 158.871 148.83 158.194C147.702 155.713 146.236 153.402 144.601 151.259C142.797 148.947 140.767 146.805 138.681 144.719C138.173 144.211 137.666 143.76 137.158 143.253C136.933 143.083 136.764 142.858 136.538 142.689C135.918 142.125 135.298 141.505 134.677 140.884C133.042 139.362 131.182 137.84 129.095 137.558C128.137 137.445 127.235 137.558 126.389 137.84C126.051 137.953 125.712 138.122 125.374 138.347C125.092 138.516 124.867 138.629 124.641 138.855C124.077 139.249 123.57 139.7 123.062 140.264C122.047 141.279 121.145 142.52 120.356 143.76C119.116 145.621 118.101 147.538 117.255 148.891C114.097 154.022 111.278 159.378 108.967 164.96C108.346 166.37 107.782 167.779 107.275 169.189C104.118 177.139 100.002 188.359 101.186 197.945Z" fill="#FA9464"/>
<path d="M126.22 134.175C126.22 134.626 126.22 135.077 126.276 135.585V135.697C126.276 136.374 126.333 137.107 126.389 137.784C126.445 139.137 126.558 140.434 126.727 141.787C127.291 147.143 127.855 153.627 129.546 159.266C129.941 160.675 130.449 162.028 131.012 163.269C131.351 164.058 131.745 164.791 132.14 165.468C133.042 167.047 134.959 168.907 137.44 170.881C140.316 173.192 143.981 175.617 147.758 177.985C154.017 181.819 160.614 185.315 164.448 186.95C168.113 188.529 172.962 188.641 175.555 187.345C178.093 186.048 179.784 183.003 180.968 179.902C181.081 179.62 181.194 179.338 181.307 179.056C182.152 176.688 182.66 174.32 182.998 172.854C182.998 172.798 182.998 172.798 182.998 172.741C183.506 170.486 184.069 168.005 184.52 165.863C184.52 165.806 184.52 165.806 184.52 165.75C184.746 164.791 184.915 163.889 185.084 163.1C185.366 161.803 185.592 160.788 185.704 160.168C185.704 160.055 185.761 159.942 185.761 159.829C190.046 160.393 196.925 160.168 196.981 155.432C197.038 153.007 191.85 139.813 191.907 136.656C192.019 132.878 192.358 133.216 192.978 129.439C193.203 128.142 193.429 126.789 193.655 125.492C193.655 125.436 193.655 125.323 193.711 125.266C193.936 123.97 194.106 122.729 194.218 121.432C194.218 121.376 194.218 121.263 194.218 121.207C195.064 112.862 194.669 104.348 190.723 97.0746C189.651 95.0448 188.242 93.1278 186.55 91.3235C186.494 91.2671 186.494 91.2671 186.437 91.2671C186.381 91.1543 186.268 91.098 186.156 91.098C186.099 91.098 185.986 91.098 185.874 91.098C185.648 90.0831 185.141 89.1809 184.351 88.4479C181.645 85.9107 176.852 85.7415 173.469 84.9522C165.237 82.9787 155.878 80.1032 147.476 83.0351C140.823 85.3468 137.045 91.8309 134.057 97.8076C130.731 104.517 128.532 111.791 127.348 119.233C126.784 122.955 126.445 126.676 126.333 130.454C126.22 131.638 126.22 132.935 126.22 134.175Z" fill="#FA9464"/>
<path d="M146.687 399.177C147.307 402.278 149.675 404.985 151.48 407.804C153.397 410.792 155.314 413.781 157.287 416.713C159.261 419.757 161.234 422.802 163.207 425.79C164.843 428.328 166.534 430.865 168.169 433.402C169.861 435.996 171.496 438.533 173.187 441.127C177.698 448.062 182.152 454.941 186.663 461.876C191.399 469.206 195.966 476.817 201.154 483.922C203.183 486.741 205.326 489.391 207.638 491.985C207.75 492.097 207.863 492.21 207.976 492.323C210.119 494.691 212.43 496.834 214.855 498.694C220.098 502.697 225.962 505.629 232.446 507.321C233.687 507.659 234.927 507.941 236.168 508.167C247.896 510.309 259.962 509.576 271.802 509.294C272.31 509.294 272.817 509.294 273.381 509.238C282.684 509.012 291.931 508.787 301.234 508.505C306.365 508.336 311.496 508.167 316.627 507.998C325.987 507.659 335.403 507.208 344.762 506.701C359.873 505.855 375.04 504.727 390.095 503.205C388.516 509.125 386.712 514.989 385.133 520.853C384.118 524.687 383.16 528.577 382.427 532.468C381.919 535.231 381.524 538.05 381.355 540.869C380.961 546.282 380.961 551.695 381.13 557.051C381.186 558.461 381.243 559.87 381.299 561.28C381.468 564.437 381.637 567.595 381.806 570.752C381.976 573.402 382.088 576.052 382.257 578.702C382.314 580.281 382.37 581.86 382.427 583.439C382.596 589.077 382.539 594.659 382.032 600.297C382.032 600.636 382.37 601.03 382.709 600.974C383.103 600.918 383.498 600.918 383.893 600.861C386.712 600.636 389.475 600.748 392.237 601.03C400.526 601.932 408.645 604.639 416.933 605.259C416.99 605.259 416.99 605.259 417.046 605.259C421.106 605.541 425.222 605.372 429.45 604.188C433.848 602.947 438.134 601.425 442.757 601.03C446.929 600.692 451.102 601.03 455.218 601.538C463.562 602.553 471.851 604.301 480.308 603.511C480.59 603.511 480.929 603.342 480.985 603.004C482.113 596.576 482.846 590.148 483.297 583.664C483.409 582.085 483.466 580.563 483.579 578.984C483.917 573.177 484.03 567.369 484.086 561.562C484.142 559.25 484.142 556.995 484.199 554.683C484.312 544.59 484.481 534.498 485.383 524.462C485.383 524.405 485.383 524.349 485.383 524.292C486.567 525.984 487.751 527.619 488.991 529.198L489.048 529.254C496.942 539.065 507.147 546.564 517.296 553.837C517.916 554.288 518.593 554.739 519.213 555.191C519.495 555.36 519.833 555.247 520.059 555.078C526.317 550.172 532.689 545.267 539.906 541.771C544.698 539.46 549.829 538.67 554.847 537.43C557.046 536.866 559.245 536.246 561.388 535.4C568.661 532.412 574.469 524.518 581.573 520.684C584.505 519.105 587.606 518.259 591.158 518.71C591.666 518.767 592.004 518.09 591.722 517.695C590.876 516.23 589.072 513.636 586.591 510.309C567.421 484.598 506.978 411.751 506.978 411.751C498.971 401.996 491.36 391.622 482.338 382.713C474.726 375.214 465.705 369.407 454.936 368.166C450.312 367.603 427.815 371.719 399.906 377.131C364.497 384.01 320.405 393.144 292.833 397.88C281.726 399.798 273.324 400.982 269.265 401.038C267.235 400.079 265.374 398.952 263.514 397.655C261.484 396.302 259.567 394.779 257.706 393.144C257.368 392.862 257.03 392.58 256.691 392.242C255.676 391.34 254.662 390.381 253.647 389.423C253.421 389.197 253.196 388.972 252.914 388.746C246.937 383.052 241.073 377.244 235.266 371.38C234.025 370.14 232.841 368.899 231.601 367.659C226.695 362.697 221.903 357.623 217.054 352.604C216.208 353.112 215.362 353.563 214.573 354.127C212.712 355.311 210.852 356.551 208.934 357.735C206.623 359.258 204.255 360.724 201.83 362.077C198.785 363.825 195.741 365.516 192.752 367.264C191.963 367.715 191.174 368.166 190.384 368.617C185.197 371.606 180.01 374.65 174.935 377.864C166.196 383.446 157.907 389.141 150.239 396.076C149.112 397.204 147.928 398.219 146.687 399.177Z" fill="#2E0807"/>
<path d="M82.4663 226.982C84.4397 221.062 87.2589 215.424 90.8674 210.293C93.9122 205.951 97.5207 201.891 99.8324 197.155C106.88 201.666 114.21 205.782 121.709 209.503C128.25 212.717 134.677 216.326 141.387 219.314C143.417 220.78 145.503 222.302 147.477 223.881C160.614 234.086 170.876 247.337 182.378 259.234C188.073 265.097 194.218 270.228 200.533 275.359C206.679 280.377 211.923 285.903 215.475 293.064C222.241 306.934 223.481 322.834 228.33 337.381C234.42 355.593 243.949 372.564 256.24 387.337C256.635 387.788 256.353 388.465 255.789 388.521C248.91 389.141 242.314 391.34 236.45 395.061C230.868 398.614 226.695 403.406 222.749 408.594C219.366 412.991 215.982 417.446 211.472 420.772C206.961 424.099 201.605 426.129 196.248 427.538C189.539 429.343 182.66 430.527 175.894 431.936C172.398 432.669 168.846 433.346 165.35 434.079C162.587 434.643 132.422 435.996 129.603 435.714C127.855 435.545 108.177 363.543 97.5207 338.903C87.5972 315.899 80.2673 290.583 78.4631 265.492C77.5609 252.58 78.3503 239.33 82.4663 226.982Z" fill="#F2BB55"/>
<path d="M205.551 417.107C205.721 419.363 206.059 421.618 206.341 423.873C206.905 428.384 207.468 432.951 206.848 437.518C206.679 438.702 206.51 439.943 206.51 441.127V441.352C206.51 443.326 206.905 445.243 208.314 446.765C209.555 448.118 211.246 448.908 212.938 448.682C213.107 448.682 213.332 448.626 213.502 448.569C213.614 448.626 213.671 448.682 213.84 448.682C215.926 448.851 218.069 448.795 220.098 448.569C222.467 448.344 224.778 448.006 227.146 447.78C228.951 447.554 230.755 447.442 232.559 447.329C235.829 447.16 239.1 447.16 242.37 447.329C242.821 447.329 243.272 447.385 243.667 447.442C245.302 447.554 246.937 447.724 248.516 447.949C254.605 448.795 260.582 450.148 266.671 451.107C268.306 451.389 269.885 451.614 271.52 451.783C272.366 451.896 273.212 451.952 274.001 452.009C277.44 452.291 280.767 452.178 284.094 451.84C287.646 451.501 291.142 450.825 294.694 449.979C294.807 449.923 294.976 449.923 295.089 449.866C298.641 448.964 302.193 448.006 305.745 447.216C310.594 446.145 315.499 445.356 320.574 445.412C321.871 445.412 323.111 445.468 324.408 445.581C328.242 445.863 332.076 446.483 335.854 447.273C339.913 448.118 343.86 449.19 347.863 450.261C348.935 450.543 350.288 451.107 351.698 451.501C353.502 452.009 355.306 452.234 356.716 451.501C357.843 450.881 358.464 449.753 358.802 448.513C359.084 447.667 359.197 446.709 359.309 445.919C359.479 444.848 359.648 443.833 359.817 442.762C359.873 442.311 359.93 441.86 359.986 441.409C360.719 436.447 361.283 431.372 362.58 426.523C363.031 424.888 363.538 423.253 364.215 421.674C365.85 417.728 368.105 414.626 370.924 412.089C373.349 409.89 376.224 408.142 379.495 406.676C380.058 406.394 380.679 406.169 381.243 405.887C385.753 403.857 390.433 401.771 393.421 397.711C397.763 391.848 396.635 383.897 399.624 377.47C399.68 377.357 399.68 377.244 399.68 377.188C399.68 376.737 399.003 376.511 398.609 376.737C386.148 372.903 373.18 375.947 361.114 379.951C349.724 383.728 338.222 388.465 326.043 388.408C319.897 388.352 313.921 386.886 307.831 385.927C302.08 384.969 296.667 384.969 290.916 385.645C284.376 386.378 278.061 386.717 272.253 382.995C267.968 380.233 264.641 376.286 261.089 372.734C259.172 370.816 257.142 369.125 255 367.546C249.869 363.825 244.061 361.231 237.746 359.991C236.957 359.822 236.168 359.709 235.378 359.596C235.096 359.54 234.815 359.822 234.702 360.047C233.687 362.697 232.616 365.235 231.375 367.772C231.037 368.448 230.699 369.181 230.36 369.858C228.5 373.523 226.413 377.019 224.102 380.402C222.692 382.432 221.226 384.405 219.647 386.378C219.253 386.829 218.858 387.28 218.463 387.732C213.22 393.821 207.017 399.628 205.551 407.86C205.27 410.962 205.27 414.006 205.551 417.107Z" fill="#D18971"/>
<path d="M326.945 194.9C327.114 193.942 327.396 190.897 327.847 190.051C327.904 189.938 328.073 189.826 328.242 189.826C328.975 189.882 332.189 190.728 333.035 191.01C333.655 191.179 333.88 191.179 333.824 191.63C333.598 193.378 333.317 195.069 332.978 196.817C332.922 197.043 332.696 197.212 332.471 197.099C331.174 196.761 328.637 196.028 327.34 195.633C326.832 195.577 326.832 195.464 326.945 194.9Z" fill="#F2BB55"/>
<path d="M330.046 208.996C328.749 208.658 326.212 207.925 324.915 207.53C324.464 207.417 324.464 207.304 324.521 206.741C324.69 205.782 324.972 202.737 325.423 201.892C325.479 201.779 325.648 201.666 325.818 201.666C326.551 201.722 329.764 202.568 330.61 202.85C331.23 203.019 331.456 203.019 331.4 203.47C331.174 205.218 330.892 206.91 330.554 208.658C330.554 208.939 330.272 209.052 330.046 208.996Z" fill="#F2BB55"/>
<path d="M329.482 200.538C329.539 200.143 329.652 198.903 329.877 198.508C329.934 198.452 329.99 198.396 330.046 198.396C330.328 198.396 331.681 198.79 332.02 198.903C332.302 198.959 332.358 198.959 332.358 199.185C332.245 199.918 332.132 200.594 332.02 201.327C332.02 201.44 331.907 201.497 331.794 201.44C331.23 201.271 330.215 200.989 329.652 200.82C329.426 200.82 329.426 200.764 329.482 200.538Z" fill="#F2BB55"/>
<path d="M328.862 198.283C328.749 199.016 328.637 199.693 328.524 200.426C328.524 200.539 328.411 200.595 328.298 200.539C327.735 200.369 326.72 200.088 326.156 199.918C325.93 199.862 325.987 199.806 325.987 199.58C326.043 199.185 326.156 197.945 326.381 197.55C326.438 197.494 326.494 197.438 326.551 197.438C326.832 197.438 328.186 197.832 328.524 197.945C328.806 198.058 328.919 198.058 328.862 198.283Z" fill="#F2BB55"/>
<path d="M319.164 204.541C319.221 204.485 319.277 204.429 319.333 204.429C319.615 204.429 320.969 204.823 321.307 204.936C321.589 204.993 321.645 204.993 321.645 205.218C321.532 205.951 321.42 206.628 321.307 207.361C321.307 207.473 321.194 207.53 321.081 207.473C320.517 207.304 319.503 207.022 318.939 206.853C318.77 206.797 318.77 206.74 318.77 206.515C318.826 206.177 318.939 204.88 319.164 204.541Z" fill="#F2BB55"/>
<path d="M318.431 193.772C318.6 192.645 318.939 188.98 319.503 188.021C319.615 187.852 319.784 187.739 319.954 187.739C320.856 187.796 324.633 188.867 325.648 189.149C326.381 189.318 326.663 189.318 326.607 189.882C326.325 191.968 325.987 193.998 325.592 196.028C325.536 196.31 325.254 196.479 324.972 196.422C323.393 195.971 320.405 195.125 318.882 194.674C318.262 194.562 318.318 194.449 318.431 193.772Z" fill="#F2BB55"/>
<path d="M323.224 210.067C323.337 209.898 323.506 209.785 323.675 209.785C324.577 209.842 328.355 210.913 329.37 211.195C330.103 211.364 330.385 211.364 330.328 211.928C330.046 214.014 329.708 216.044 329.313 218.074C329.257 218.355 328.975 218.525 328.693 218.468C327.114 218.017 324.126 217.171 322.604 216.72C322.04 216.551 322.04 216.438 322.153 215.762C322.322 214.691 322.66 211.026 323.224 210.067Z" fill="#F2BB55"/>
<path d="M322.265 197.55C324.013 198.226 324.69 200.256 323.844 201.835C323.788 201.948 323.731 202.004 323.675 202.06C323.28 202.793 322.378 203.244 321.363 203.188C319.728 203.075 318.544 201.553 318.657 199.974C318.713 198.114 320.461 196.873 322.265 197.55Z" fill="#F2BB55"/>
<path d="M147.984 329.036C148.153 329.882 148.322 330.728 148.435 331.517C148.491 331.799 148.717 331.968 148.942 332.025C149.281 332.081 149.619 331.968 149.732 331.574C150.521 328.303 151.31 324.977 152.833 321.988V321.932C153.002 321.65 153.115 321.368 153.284 321.086C154.412 319.113 156.047 317.534 157.456 315.786C158.189 314.941 158.922 314.038 159.486 313.023C160.501 311.276 161.234 309.415 161.741 307.498C162.249 305.524 162.587 303.438 162.756 301.352C162.813 300.676 162.869 300.055 162.925 299.379C163.095 299.435 163.264 299.548 163.433 299.604C163.546 299.661 163.602 299.661 163.715 299.661C164.335 299.661 164.561 298.589 163.884 298.307C163.828 298.307 163.828 298.251 163.771 298.251C163.546 298.138 163.32 298.025 163.038 297.913C163.038 297.349 163.095 296.841 163.095 296.278C163.151 295.432 161.798 295.319 161.741 296.221C161.741 296.56 161.685 296.898 161.685 297.236C159.937 296.334 157.795 295.263 156.554 295.432C156.047 295.488 155.708 295.657 155.257 296.052C154.242 297.067 153.904 299.322 153.509 300.675C153.397 301.127 153.284 301.521 153.171 301.972C152.776 303.551 152.438 305.186 151.987 306.765C150.859 310.655 147.533 313.587 146.856 317.478C146.8 317.647 146.8 317.816 146.8 317.985V318.042C146.743 318.324 146.743 318.605 146.687 318.887C146.518 322.158 147.364 325.71 147.984 329.036Z" fill="#E3963D"/>
<path d="M125.994 302.198C129.434 305.017 132.929 307.723 136.425 310.43C136.369 310.542 136.312 310.599 136.256 310.712C136.031 311.106 136.651 311.445 136.82 311.05C136.876 310.993 136.876 310.881 136.933 310.824C138.624 312.121 140.992 313.813 143.924 315.842C144.826 316.463 145.841 317.139 146.856 317.816C147.025 317.929 147.138 318.041 147.307 318.098C147.984 318.549 148.604 319 149.337 319.451C149.506 319.564 149.675 319.677 149.845 319.789C150.859 320.466 151.874 321.143 152.889 321.819C153.961 322.496 155.032 323.229 156.103 323.962C156.159 324.018 156.272 324.074 156.329 324.131C156.667 324.356 157.005 324.582 157.344 324.807C157.569 324.977 157.851 325.146 158.077 325.315C158.697 325.71 159.317 326.161 159.994 326.555C160.614 326.95 161.29 327.401 161.911 327.796C163.151 328.585 164.391 329.431 165.632 330.22C165.688 330.277 165.801 330.333 165.857 330.333C165.914 330.389 166.027 330.446 166.083 330.446C180.968 340.087 197.883 350.744 208.991 357.623C215.475 361.626 220.042 364.389 221.057 364.953C224.158 366.588 227.315 368.336 230.586 369.689C231.939 370.253 233.292 370.76 234.702 371.155C234.927 371.211 235.096 371.267 235.322 371.324C235.829 371.437 236.28 371.549 236.788 371.662C239.551 372.226 242.314 372.339 245.076 371.831C246.148 371.662 247.219 371.38 248.29 370.986C250.771 370.083 253.083 368.787 255.338 367.321C256.804 366.362 258.27 365.291 259.68 364.22C265.262 359.934 294.694 321.932 313.977 294.304C314.146 294.022 314.372 293.74 314.541 293.515C316.232 291.09 317.867 288.722 319.39 286.467C319.954 285.621 320.517 284.832 321.025 284.042C323.393 280.49 325.423 277.333 327.002 274.626C328.186 272.653 329.088 270.961 329.821 269.552C329.877 269.495 329.877 269.382 329.821 269.326C329.99 269.213 330.103 268.875 329.877 268.706C327.791 267.24 325.705 265.718 323.675 264.252C322.716 263.575 321.702 262.673 320.63 261.94C320.01 261.545 319.333 261.207 318.657 260.981C317.36 260.643 316.345 261.094 315.33 261.883C315.274 261.94 315.217 261.996 315.161 261.996C314.879 262.222 313.582 263.519 311.496 265.605C310.368 266.676 309.072 268.029 307.606 269.495C307.042 270.059 306.478 270.623 305.858 271.243C291.142 285.959 263.852 313.305 259.454 317.083C253.647 322.101 246.599 328.303 238.31 326.273C234.758 325.428 231.601 323.341 228.669 321.143C228.105 320.691 226.188 319.225 223.312 317.027C222.748 316.575 222.128 316.124 221.508 315.617C220.437 314.828 219.309 313.925 218.125 312.967C214.291 309.979 209.611 306.314 204.593 302.423C200.026 298.871 195.121 295.037 190.272 291.259C189.2 290.414 188.129 289.568 187.058 288.722C184.859 287.03 182.716 285.283 180.574 283.647C177.134 280.941 173.808 278.347 170.763 275.979C164.222 270.848 158.753 266.563 155.539 264.082L155.483 264.026C155.314 263.913 155.088 263.97 154.975 264.195C154.863 264.477 154.806 264.759 154.694 265.041C149.45 281.956 145.503 294.078 136.933 309.753C133.493 307.047 130.054 304.34 126.671 301.634C126.163 301.465 125.656 301.972 125.994 302.198Z" fill="#FA9464"/>
<path d="M325.366 234.368C324.972 235.383 324.803 236.511 324.859 237.638C325.536 245.137 323.111 253.595 320.856 261.038C320.63 261.714 320.123 262.785 319.333 264.195C318.77 263.688 311.327 265.717 311.327 265.661C312.849 261.094 314.259 251.001 315.105 246.321C316.289 239.837 317.36 233.353 317.585 226.756C317.698 223.937 317.867 221.062 318.544 218.242C318.939 216.495 319.615 213.224 321.532 212.491C325.254 211.082 324.352 220.949 324.239 222.471C324.07 225.234 324.69 230.647 325.366 234.368Z" fill="#FA9464"/>
<path d="M143.924 315.899C143.924 316.012 143.981 316.068 144.037 316.125C144.037 316.125 145.277 316.914 146.856 317.929C147.025 318.042 147.138 318.098 147.307 318.211C147.984 318.606 148.66 319.057 149.337 319.508C149.506 319.621 149.675 319.733 149.844 319.846C150.972 320.579 152.1 321.312 152.946 321.82C153.96 322.44 154.637 322.891 154.637 322.891C155.596 321.538 156.723 318.493 157.625 315.617C158.246 313.531 158.753 311.558 158.979 310.317C158.979 310.205 159.035 310.092 159.035 309.979C159.091 309.641 159.148 309.246 159.204 308.908C159.599 306.54 160.163 304.51 161.741 302.48C162.08 302.029 162.474 301.578 162.869 301.127C163.32 300.619 163.771 300.168 164.222 299.717C164.448 299.435 164.73 299.21 164.955 298.928C167.323 296.278 168.451 293.571 169.353 290.132C169.635 289.117 169.861 288.046 169.973 287.031C170.086 286.185 170.143 285.396 170.143 284.55C170.143 283.084 170.255 281.675 170.424 280.321C170.594 279.25 170.763 278.122 170.932 276.938C170.988 276.6 170.763 276.262 170.424 276.205C170.312 276.149 170.255 276.149 170.143 276.149C169.24 276.205 168.338 276.938 167.493 277.897C166.139 279.476 164.899 281.618 164.11 282.689C161.741 285.791 159.655 289.004 157.513 292.275C157.118 292.895 156.723 293.459 156.329 294.079C153.171 298.984 143.811 313.7 143.924 315.899Z" fill="#DE6B45"/>
<path d="M315.669 268.48C316.401 270.397 317.304 272.202 318.206 274.062C318.149 274.175 318.149 274.288 318.262 274.401C318.319 274.457 318.375 274.513 318.431 274.57C318.6 274.908 318.77 275.246 318.939 275.585C319.108 275.923 319.503 275.754 319.559 275.472C320.687 276.205 321.983 276.543 323.393 276.43C324.803 276.318 325.93 275.641 326.889 274.739C327.34 274.344 327.735 273.893 328.129 273.386C333.486 266.563 339.011 259.459 343.466 251.847C343.578 251.847 345.495 247.167 346.736 243.953C347.3 242.487 347.751 241.303 347.863 241.022C349.048 237.808 350.344 234.65 350.908 231.267C351.641 226.813 350.514 222.697 348.766 218.75C348.484 218.186 348.258 217.566 347.92 217.002C347.92 216.326 347.864 215.649 347.751 214.972C347.638 214.07 347.412 213.168 347.131 212.266C346.116 209.221 344.48 206.346 342.845 203.47C342.394 202.681 341.943 201.891 341.492 201.102V201.046C341.267 199.692 340.759 198.396 339.744 197.663C339.35 197.324 338.842 197.099 338.278 197.042C337.545 196.93 336.812 197.155 336.305 197.719C335.008 199.129 335.572 201.666 335.628 203.357C335.797 206.458 335.91 209.672 335.346 212.717C334.67 216.382 332.978 219.878 331.174 223.204C330.385 224.614 329.595 226.023 328.806 227.433C327.622 229.237 326.381 231.042 325.085 232.79C324.746 233.241 324.464 233.635 324.126 234.086C323.619 234.763 323.055 235.496 322.491 236.173C321.758 237.131 321.025 238.033 320.236 238.935C319.841 239.443 319.446 239.894 318.995 240.345C317.698 241.867 316.289 243.333 315.725 245.307C315.217 246.998 315.217 248.859 315.274 250.663C315.274 251.509 315.274 252.298 315.274 253.088C315.217 255.907 315.161 258.726 315.161 261.545C315.161 261.658 315.161 261.771 315.161 261.883C315.161 262.786 315.048 263.744 315.048 264.703C315.105 266.056 315.217 267.296 315.669 268.48Z" fill="#FA9464"/>
<path d="M111.955 252.073C113.759 244.687 115.62 235.44 122.217 230.76C127.404 227.095 134.17 226.588 140.485 226.644C147.476 232.508 154.412 238.485 161.685 244.067C165.745 247.168 169.973 249.987 174.202 252.862C174.541 254.328 177.078 255.512 176.965 256.415C176.852 257.429 176.683 258.388 176.57 259.403C176.852 259.967 172.624 275.416 167.098 281.392C164.11 284.606 160.952 287.595 158.697 291.429C155.99 295.996 154.524 301.183 152.833 306.201C151.48 310.148 150.126 314.546 147.646 317.929C146.349 319.733 145.165 320.297 143.191 319.226C141.218 318.155 139.414 316.068 137.778 314.602C135.918 312.911 134.057 311.163 132.253 309.415C128.362 305.637 124.641 301.691 121.089 297.518C115.845 291.429 111.617 284.888 110.207 276.825C108.741 268.537 109.981 260.08 111.955 252.073Z" fill="#F2BB55"/>
<path d="M373.631 721.522C374.815 723.608 376.337 724.567 378.705 724.849C382.088 725.3 385.64 725.187 389.023 725.3C390.038 725.356 390.997 725.356 392.012 725.412C392.519 725.412 393.027 725.469 393.534 725.469C404.191 725.976 414.96 726.653 425.673 726.935C426.124 726.935 426.575 726.935 427.026 726.935C430.634 726.991 434.243 727.047 437.852 726.935C440.84 726.878 448.339 726.314 445.914 721.24C444.843 718.928 441.573 717.801 439.487 716.842C436.78 715.602 434.018 714.53 431.198 713.459C430.804 713.29 430.409 713.177 430.014 713.008C430.014 713.008 429.958 713.008 429.901 712.952C422.741 710.358 415.355 708.272 408.476 705.114C405.149 703.536 401.822 701.506 399.736 698.348C397.425 694.796 397.65 690.737 398.552 686.79C398.721 686.564 398.891 686.339 399.06 686.113C399.567 685.38 400.131 684.647 400.469 683.858C400.751 683.181 400.92 682.504 401.033 681.772C401.146 681.151 401.202 680.531 401.259 679.854C401.315 678.896 401.371 677.937 401.484 676.979C401.653 675.626 401.992 674.329 402.837 673.032C403.007 672.75 403.176 672.525 403.345 672.299C404.078 671.284 404.754 670.382 404.98 669.029C405.318 667.225 405.206 665.702 403.345 665.251H403.288C402.33 665.026 401.428 665.026 400.469 665.082C397.086 665.364 393.591 666.943 390.208 666.548C388.685 666.379 387.219 665.928 385.753 665.42C384.738 665.082 383.78 664.687 382.821 664.405C381.581 664.011 379.551 662.77 378.198 663.109C378.141 663.109 378.141 663.109 378.085 663.165C375.999 663.842 376.732 667.619 376.901 669.029C376.901 669.085 376.901 669.142 376.901 669.198C377.07 670.608 377.352 672.017 377.521 673.483C377.634 674.554 377.747 675.682 377.69 676.753C377.634 677.43 377.578 678.163 377.465 678.84C377.239 680.249 376.957 681.659 376.901 683.125C376.901 683.237 376.901 683.407 376.901 683.519C376.901 685.436 377.239 687.297 377.408 689.158C376.901 690.962 376.055 692.654 375.153 694.289C373.856 696.657 372.729 699.025 371.939 701.562C371.77 702.07 371.657 702.577 371.545 703.084C371.488 703.366 371.432 703.705 371.375 703.987C370.248 709.907 370.812 716.447 373.631 721.522Z" fill="#5E5CD1"/>
<path d="M578.134 568.497C580.558 569.85 583.265 570.527 585.351 572.388C585.576 572.557 585.802 572.782 585.971 573.008C586.986 574.023 587.888 575.207 588.79 576.278C589.185 576.729 589.523 577.124 589.974 577.575C590.82 578.421 591.722 579.041 592.681 579.492C592.906 579.605 593.188 579.718 593.414 579.83C594.767 580.451 596.177 580.845 597.586 581.296C598.827 581.691 600.067 582.142 601.251 582.819C601.307 582.819 601.307 582.875 601.364 582.875C601.871 583.157 602.322 583.552 602.661 583.946C604.183 585.638 604.465 587.95 605.649 589.979C606.438 591.22 607.397 592.347 608.581 593.25C608.75 593.362 608.919 593.475 609.088 593.644C609.314 593.813 609.596 593.983 609.821 594.095C609.821 594.321 609.878 594.546 609.878 594.772C610.16 597.478 610.611 600.241 611.569 602.666C612.077 604.075 612.753 605.372 613.599 606.5C615.403 608.868 617.828 609.939 620.647 610.559C622.226 610.898 623.692 611.236 625.158 611.631C626.342 611.969 627.469 612.42 628.597 612.984C629.217 613.322 629.894 613.66 630.514 614.111C634.292 616.705 637.506 620.145 640.72 623.528C642.693 625.614 644.61 627.644 646.753 629.448C648.444 630.914 650.192 632.38 651.996 633.677C652.504 634.015 652.955 634.41 653.462 634.748C653.8 635.03 654.195 635.255 654.59 635.537C657.635 637.623 660.792 639.428 664.175 640.894C667.333 642.303 670.659 643.375 674.099 643.995C675.734 644.277 677.933 644.728 679.342 643.6C681.034 642.19 680.357 640.104 679.342 638.526C678.271 636.89 676.974 635.312 675.621 633.789C674.493 632.549 673.366 631.308 672.351 630.068C671.843 629.504 671.336 628.884 670.885 628.32C670.546 627.925 670.208 627.474 669.87 627.08C668.799 625.839 667.784 624.542 666.712 623.302C663.668 619.693 660.679 616.085 657.635 612.476C656.902 611.574 656.112 610.672 655.379 609.77C650.474 603.906 645.569 598.042 640.494 592.291C638.239 589.641 635.927 587.047 633.615 584.51C633.446 584.341 633.277 584.115 633.108 583.946C633.108 583.946 633.051 583.89 633.051 583.834C631.867 582.48 630.627 581.184 629.386 579.887C628.484 578.421 627.469 577.124 626.285 575.883C625.778 575.376 625.27 574.925 624.763 574.417C622.226 572.219 620.816 569.512 619.407 566.693C619.237 566.355 619.068 566.016 618.899 565.622C618.279 564.381 617.659 563.141 616.982 561.9C616.982 561.844 616.926 561.788 616.926 561.788C616.757 561.449 616.531 561.167 616.362 560.829C615.516 559.476 614.67 558.292 613.712 557.164C612.697 556.036 611.569 555.078 610.16 554.176C610.047 554.119 609.991 554.063 609.878 554.007C608.299 552.992 607.34 551.977 606.495 550.624C606.156 550.06 605.818 549.44 605.48 548.707C604.747 547.128 604.07 545.831 602.717 544.647C602.435 544.365 601.984 544.365 601.702 544.647C601.646 544.703 601.589 544.76 601.533 544.816C596.007 550.68 590.2 556.318 584.223 561.731C583.885 562.013 583.603 562.295 583.265 562.577C583.039 562.802 582.757 563.028 582.532 563.254C581.066 564.55 579.6 565.847 578.077 567.144C577.626 567.651 577.739 568.272 578.134 568.497Z" fill="#5E5CD1"/>
<path d="M347.412 443.213C365.455 442.931 383.441 441.127 401.146 437.575C408.476 436.109 416.144 433.515 423.699 434.305C431.988 435.207 437.344 441.522 440.784 448.626C444.11 455.505 446.14 462.835 450.2 469.319C453.695 474.901 457.924 479.863 462.097 484.881C471.231 495.932 477.715 507.885 483.579 520.91C484.086 522.094 484.65 523.278 485.214 524.462C485.214 524.406 485.214 524.349 485.214 524.293C486.398 525.984 487.582 527.619 488.822 529.198L488.879 529.255C486.229 523.56 483.748 517.809 481.041 512.17C478.053 505.855 474.839 499.71 470.892 493.958C466.945 488.264 462.266 483.076 457.924 477.664C452.737 471.179 448.677 464.526 445.633 456.802C443.208 450.656 440.896 444.285 436.329 439.323C426.067 428.272 410.844 434.305 398.158 436.673C381.412 439.83 364.384 441.522 347.356 441.747C346.567 441.86 346.567 443.213 347.412 443.213Z" fill="#3C377A"/>
<path d="M2.23245 222.02C2.85267 225.685 4.48779 229.237 5.78461 232.733C6.34845 234.199 6.91229 235.722 7.47612 237.188C8.43464 239.781 9.39316 242.375 10.4081 245.025C10.69 245.871 11.0283 246.66 11.3102 247.449C12.3815 250.268 13.3964 253.088 14.4113 255.907C15.8773 259.966 17.3432 264.026 18.8092 268.086C20.3316 272.258 21.7975 276.487 23.2635 280.716C24.7295 284.832 26.1391 289.004 27.5487 293.12C29.4657 298.758 31.3827 304.397 33.2998 310.091C33.92 312.008 34.5966 313.926 35.2168 315.843C37.0211 321.312 38.8254 326.781 40.6296 332.25C41.9828 336.423 43.336 340.651 44.6892 344.88C45.7605 348.263 46.8318 351.59 47.9031 354.973C50.4404 362.979 52.8649 370.986 55.2893 379.048C55.9096 381.135 56.5862 383.277 57.2064 385.42C59.1798 391.904 61.0969 398.444 62.9575 404.985C63.7469 407.635 64.5362 410.341 65.2692 412.991C65.6075 414.119 65.8895 415.19 66.2278 416.318C68.5959 424.494 70.9076 432.669 73.1629 440.901C74.2342 444.735 75.2491 448.569 76.3204 452.403C77.0534 455.166 77.8428 457.985 78.5757 460.748C79.3651 463.624 80.1545 466.499 80.8875 469.431C84.3832 482.512 87.7663 495.65 91.0929 508.787V508.843C91.3748 509.858 91.6003 510.873 91.8823 511.888C92.0514 512.508 92.2206 513.185 92.3897 513.805C93.4046 517.808 94.4195 521.868 95.378 525.871C95.8291 527.619 96.0546 529.818 97.0695 531.397C97.2387 531.679 97.4078 531.904 97.6334 532.13C97.9153 532.468 98.2536 532.694 98.5919 532.919C100.114 533.821 102.031 533.708 103.836 533.652C103.948 533.652 104.061 533.652 104.117 533.652C107.895 533.596 111.673 533.483 115.394 533.483C123.513 533.427 131.689 533.539 139.808 533.821C142.74 533.934 145.729 534.047 148.66 534.216C152.833 534.441 157.005 534.667 161.178 534.949C162.136 538.219 163.095 541.433 164.053 544.703C164.673 546.789 165.294 548.932 165.914 551.018C166.139 551.864 167.436 551.469 167.211 550.624C166.478 548.03 165.688 545.493 164.955 542.955C164.166 540.305 163.433 537.712 162.644 535.062C164.73 535.231 166.76 535.4 168.846 535.569C170.594 535.738 172.398 535.851 174.146 536.02C178.769 536.471 183.393 536.922 188.016 537.486C190.61 537.768 193.147 538.106 195.741 538.445C199.067 538.896 202.394 539.347 205.721 539.798C207.13 540.023 208.54 540.193 209.949 540.418C210.795 540.531 211.133 539.234 210.288 539.121C208.258 538.783 206.172 538.501 204.142 538.219C201.943 537.881 199.744 537.599 197.489 537.317C194.613 536.922 191.737 536.584 188.862 536.246C184.295 535.738 179.671 535.231 175.048 534.78C173.244 534.611 171.439 534.441 169.635 534.272C167.154 534.047 164.673 533.878 162.193 533.708C158.697 521.755 155.201 509.802 151.649 497.905C148.209 486.177 144.77 474.506 141.274 462.834L140.372 459.902C139.526 456.971 138.624 454.039 137.778 451.107C136.764 447.78 135.805 444.453 134.79 441.127C134.283 439.379 133.719 437.575 133.211 435.827C131.294 429.455 129.321 423.084 127.347 416.713C127.009 415.641 126.671 414.57 126.333 413.499C125.374 410.51 124.472 407.466 123.513 404.477C121.484 398.05 119.454 391.622 117.368 385.194C116.804 383.503 116.296 381.811 115.732 380.176C110.884 365.404 105.809 350.688 100.509 336.028C99.6068 333.547 98.7047 331.066 97.7461 328.529C96.5057 325.259 95.3217 321.988 94.0812 318.718C93.6301 317.534 93.1791 316.35 92.728 315.166C92.2769 313.982 91.8259 312.798 91.3748 311.67C91.262 311.388 91.1493 311.106 91.0365 310.824C89.4578 306.821 87.879 302.818 86.3003 298.871C85.3982 296.559 84.4396 294.248 83.4811 291.936C82.6917 290.075 81.9588 288.215 81.1694 286.41C79.9853 283.591 78.8013 280.828 77.6172 278.066C76.997 276.6 76.3204 275.134 75.7002 273.668C75.3619 272.822 74.9108 271.92 74.4597 270.961C74.0651 270.172 73.6704 269.27 73.2193 268.368C73.1629 268.255 73.1065 268.142 73.0502 268.029C72.8246 267.578 72.5991 267.127 72.3736 266.62C69.2725 260.474 65.0437 252.862 60.9841 245.758C60.2511 244.461 59.4617 243.164 58.7287 241.867C57.4883 239.781 56.3043 237.751 55.1766 235.891C53.3723 232.902 51.6808 230.252 50.384 228.279C50.2148 227.997 49.9893 227.715 49.7638 227.433C49.2563 226.7 48.8052 226.024 48.2978 225.347C47.0574 223.655 45.8169 222.02 44.5765 220.554C43.618 219.427 42.6594 218.355 41.6445 217.341C38.2051 213.845 34.653 211.251 30.7625 209.616C28.0561 208.488 25.1805 207.812 22.0795 207.586C17.9071 207.304 13.2836 207.924 8.09634 209.56C2.7399 210.969 1.3867 216.946 2.23245 222.02Z" fill="#5E5CD1"/>
<path d="M91.0365 508.618V508.674C91.262 509.689 91.4875 510.704 91.8258 511.719C91.8822 511.945 91.9386 512.17 91.995 512.339C92.5588 514.256 93.179 516.173 93.6301 518.034C93.7993 518.711 93.9684 519.331 94.0812 520.007C94.9833 523.785 95.9982 527.619 96.9567 531.228C97.0695 531.735 97.2387 532.186 97.3514 532.694C98.028 535.175 98.7046 537.543 99.3812 539.742C101.411 546.451 103.272 551.808 104.399 554.063C105.696 556.6 107.162 559.025 109.474 560.66C110.094 561.111 110.771 561.506 111.504 561.788C115.281 563.31 119.736 563.141 123.795 563.31C124.021 563.31 124.19 563.31 124.416 563.31C125.543 563.366 134.79 563.479 148.83 563.535C150.408 563.535 152.043 563.535 153.735 563.535C154.581 563.535 155.426 563.535 156.272 563.535C157.118 563.535 158.02 563.535 158.922 563.535C161.741 563.535 164.673 563.592 167.774 563.592C169.635 563.592 171.552 563.592 173.526 563.592C177.416 563.592 181.476 563.648 185.704 563.648C187.903 563.648 190.159 563.648 192.47 563.648C197.263 563.648 202.168 563.705 207.187 563.705C210.739 563.705 214.291 563.705 217.899 563.761C222.015 563.761 226.188 563.817 230.36 563.817C233.743 563.817 237.126 563.817 240.566 563.874C241.693 563.874 242.821 563.874 244.005 563.874C248.572 563.874 253.083 563.874 257.537 563.93C261.202 563.93 264.811 563.93 268.363 563.987C276.764 563.987 284.939 564.043 292.608 564.043C301.798 564.043 310.312 564.043 317.755 564.043C334.895 564.043 346.285 563.93 347.356 563.817C349.329 563.535 350.739 562.802 351.698 561.788C351.867 561.618 352.036 561.393 352.205 561.167C354.742 557.559 353.163 551.244 352.318 546.902C352.149 545.944 351.979 544.985 351.81 544.083C351.416 541.884 351.077 539.967 350.795 538.106C350.401 535.626 350.062 533.37 349.668 531.002C349.329 528.972 348.991 526.886 348.54 524.574C348.371 523.616 348.145 522.545 347.92 521.473C347.751 520.74 347.638 519.951 347.469 519.162C347.187 517.865 346.961 516.512 346.736 515.158C346.228 512.226 345.721 509.238 344.762 506.475C344.537 505.855 344.311 505.291 344.086 504.727C343.522 503.431 341.492 500.16 335.685 500.16C330.554 500.104 316.852 499.935 298.697 499.709C289.506 499.597 279.132 499.427 268.137 499.315C256.353 499.145 243.836 498.976 231.206 498.807C225.737 498.751 220.268 498.638 214.855 498.582C191.85 498.243 169.522 497.905 151.762 497.623C130.449 497.285 115.676 497.003 114.266 496.89C104.794 496.214 97.2387 495.65 93.7429 497.567C91.4312 498.807 90.8109 501.626 90.6982 504.051C90.5854 505.686 90.7545 507.152 91.0365 508.618Z" fill="#5E5CD1"/>
<path d="M201.041 492.154C201.548 493.282 202.45 494.579 203.804 494.466C204.931 494.353 205.833 493 206.848 492.605C207.638 492.324 208.427 492.267 209.273 492.324C209.78 492.38 210.288 492.436 210.795 492.605C211.866 492.887 212.881 493.395 213.84 494.071C214.347 494.41 214.798 494.241 214.911 493.79C215.982 488.433 215.588 482.738 213.502 476.931C212.374 473.83 210.852 470.841 210.795 467.684C210.682 464.245 211.866 461.2 212.599 458.042C213.558 454.208 214.178 449.585 211.472 445.412C209.724 442.706 206.961 440.733 204.085 440.394C204.029 438.646 203.804 436.899 203.522 435.094C203.353 434.249 201.999 434.249 202.168 435.094C202.507 436.899 202.676 438.646 202.676 440.338C202.394 440.338 202.168 440.394 201.887 440.451C201.041 440.62 201.717 441.917 202.507 441.748C202.563 441.748 202.62 441.748 202.676 441.748C202.62 443.834 202.338 445.92 201.83 448.006C201.21 450.656 200.59 453.25 200.872 456.182C201.21 459.79 202.789 463.399 203.804 467.007C204.988 471.123 204.875 474.506 203.522 478.058C202.056 482.062 198.729 487.08 201.041 492.154Z" fill="#D18971"/>
<path d="M294.468 492.154C294.976 493.281 295.878 494.578 297.231 494.465C298.359 494.353 299.261 492.999 300.276 492.605C300.445 492.548 300.67 492.492 300.84 492.436C301.291 492.323 301.742 492.266 302.249 492.266C303.941 492.266 305.745 492.943 307.267 494.014C307.775 494.353 308.226 494.183 308.339 493.732C309.41 488.376 309.015 482.681 306.929 476.874C305.801 473.773 304.335 470.784 304.223 467.627C304.11 464.187 305.294 461.143 306.027 457.985C306.985 454.151 307.606 449.528 304.899 445.355C303.151 442.649 300.389 440.676 297.513 440.337C297.457 438.589 297.231 436.841 296.949 435.037C296.78 434.191 295.427 434.191 295.596 435.037C295.934 436.841 296.103 438.589 296.103 440.281C295.821 440.281 295.596 440.337 295.314 440.394C294.468 440.563 295.145 441.86 295.934 441.69C295.991 441.69 296.047 441.69 296.103 441.69C296.047 443.777 295.765 445.863 295.258 447.949C294.637 450.599 294.017 453.193 294.299 456.125C294.637 459.733 296.216 463.342 297.231 466.95C298.415 471.066 298.302 474.449 296.949 478.001C295.483 482.061 292.157 487.079 294.468 492.154Z" fill="#D18971"/>
<path d="M227.879 445.975C229.402 445.863 230.924 445.863 232.503 445.863C232.841 450.035 232.559 454.095 231.488 457.929C230.586 461.143 227.992 464.244 228.443 467.965C228.725 470.164 230.022 472.307 230.417 474.506C231.037 477.55 230.078 480.144 229.233 482.738C228.105 486.402 227.259 490.011 229.345 494.183C229.627 494.691 230.473 494.86 230.642 494.353C230.924 493.338 231.375 492.774 231.995 492.379C232.39 492.154 232.785 492.041 233.292 491.984C234.138 491.872 235.096 491.984 236.111 492.154C236.562 492.21 237.07 492.323 237.521 492.379C238.93 492.605 240.34 492.661 241.355 492.097C242.821 491.251 242.934 488.94 243.046 487.305C243.554 480.313 240.34 472.814 241.073 465.879C241.637 460.241 245.471 454.151 243.836 447.949C243.216 445.694 241.975 445.412 239.72 445.073C237.69 444.791 235.66 444.622 233.687 444.566C233.574 443.777 233.461 442.987 233.349 442.198C233.179 441.352 231.826 441.352 231.995 442.198C232.108 442.987 232.221 443.777 232.334 444.51C230.755 444.51 229.176 444.566 227.597 444.622C226.752 444.679 227.034 446.032 227.879 445.975Z" fill="#D18971"/>
<path d="M319.841 444.679C321.363 444.566 322.886 444.51 324.464 444.566C324.803 448.738 324.521 452.798 323.449 456.632C322.547 459.846 319.954 462.947 320.405 466.668C320.687 468.867 321.927 471.01 322.378 473.209C322.998 476.254 322.04 478.847 321.194 481.441C320.066 485.106 319.221 488.714 321.307 492.887C321.589 493.394 322.434 493.563 322.604 493.056C322.829 492.267 323.167 491.759 323.562 491.364C323.9 491.026 324.352 490.857 324.859 490.744C325.987 490.519 327.396 490.744 328.806 490.97C329.313 491.026 329.764 491.139 330.272 491.139C331.399 491.252 332.471 491.252 333.316 490.744C334.782 489.898 334.895 487.587 335.008 485.952C335.515 478.96 332.302 471.461 333.035 464.526C333.598 458.887 337.433 452.798 335.797 446.596C335.177 444.341 333.88 444.059 331.681 443.72C329.652 443.438 327.622 443.269 325.648 443.213C325.536 442.424 325.423 441.634 325.31 440.845C325.141 439.999 323.788 439.999 323.957 440.845C324.07 441.634 324.182 442.424 324.295 443.157C322.716 443.157 321.081 443.213 319.559 443.326C318.657 443.382 318.939 444.735 319.841 444.679Z" fill="#D18971"/>
<path d="M264.021 442.423C263.119 442.423 263.457 443.72 264.303 443.776C264.641 443.776 265.036 443.777 265.487 443.72C266.333 448.513 267.122 453.305 267.291 458.042C267.461 463.003 266.22 467.063 265.431 471.743C264.811 475.408 266.446 478.17 267.517 481.892C268.645 485.951 266.502 489.278 268.081 493.338C268.306 493.958 269.152 493.958 269.378 493.507C270.562 490.97 274.17 491.646 276.764 492.266C277.159 492.379 277.61 492.097 277.497 491.59C275.58 485.557 275.354 479.636 274.96 473.716C274.621 468.247 274.339 462.721 274.114 457.309C274.057 454.828 274.057 452.347 273.888 449.81C273.776 448.287 273.663 445.412 272.591 443.889C270.844 441.408 266.164 442.48 264.021 442.423Z" fill="#FFC4B6"/>
<path d="M349.273 443.269C349.611 443.269 350.006 443.269 350.457 443.212C351.303 448.005 352.092 452.798 352.261 457.534C352.431 462.496 351.19 466.555 350.401 471.179C349.781 474.844 351.472 477.606 352.487 481.328C353.615 485.387 351.472 488.714 353.051 492.774C353.276 493.394 354.122 493.394 354.348 492.943C354.911 491.759 355.926 491.251 357.223 491.138C357.674 491.082 358.125 491.082 358.576 491.138C359.648 491.195 360.775 491.477 361.79 491.702C362.185 491.815 362.636 491.533 362.523 491.026C360.606 484.993 360.381 479.072 359.986 473.152C359.648 467.683 359.366 462.157 359.14 456.688C359.084 454.207 359.084 451.726 358.915 449.189C358.802 447.667 358.689 444.791 357.618 443.269C355.814 440.844 351.19 441.859 348.991 441.803C348.089 441.916 348.371 443.269 349.273 443.269Z" fill="#D18971"/>
<path d="M335.177 520.12C332.02 520.515 328.975 521.417 325.761 521.699C322.04 522.037 318.262 521.755 314.541 521.586C311.045 521.417 307.606 521.248 304.11 521.699C300.445 522.15 297.231 523.616 293.679 524.405C287.082 525.871 280.485 522.375 273.832 522.319C270.449 522.319 267.009 522.545 263.626 522.263C261.822 522.093 259.172 522.037 257.932 520.458C255.564 517.414 259.736 515.158 262.386 515.44C265.6 515.778 268.701 516.963 271.915 517.357C275.693 517.865 279.47 517.977 283.248 517.752C290.634 517.357 297.851 516.117 305.294 516.568C313.921 517.075 322.547 518.541 331.174 517.414C336.361 516.737 341.436 515.553 346.623 515.384C346.849 516.737 347.074 518.09 347.356 519.387C347.525 520.176 347.694 520.966 347.807 521.699C343.747 520.909 339.575 519.556 335.177 520.12Z" fill="#EEDED4"/>
<path d="M262.33 541.941C262.837 537.768 267.404 537.204 270.787 537.43C278.173 537.937 285.334 540.813 292.777 539.742C299.148 538.84 304.561 535.851 311.214 536.697C314.879 537.148 318.431 538.276 322.04 539.009C326.438 539.911 330.666 539.742 335.064 539.065C338.335 538.558 341.605 537.937 344.931 537.825C346.454 537.768 348.033 537.825 349.499 537.994C349.893 538.05 350.288 538.107 350.683 538.219C350.964 540.08 351.303 541.997 351.697 544.196C349.442 544.591 347.13 545.775 344.931 545.662C341.774 545.436 338.786 544.027 335.628 543.519C327.734 542.279 320.574 544.985 313.018 546.677C306.196 548.256 299.317 548.086 292.382 547.692C285.052 547.297 277.779 546.846 270.505 546.451C267.348 546.282 261.766 546.79 262.33 541.941Z" fill="#EEDED4"/>
<path d="M107.839 384.913C106.034 384.743 103.384 384.687 102.144 383.108C99.7759 380.064 103.948 377.808 106.598 378.09C109.699 378.429 112.744 379.556 115.902 380.007C116.465 381.699 116.973 383.39 117.537 385.025C114.266 385.025 111.053 385.195 107.839 384.913Z" fill="#EEDED4"/>
<path d="M111.729 408.424C112.237 404.252 116.804 403.688 120.187 403.914C121.314 403.97 122.498 404.139 123.626 404.309C124.585 407.297 125.487 410.342 126.445 413.33C124.303 413.217 122.104 413.104 119.961 412.935C116.747 412.766 111.165 413.217 111.729 408.424Z" fill="#EEDED4"/>
<path d="M171.27 532.074C173.3 529.593 175.668 527.506 177.98 525.364C180.968 522.545 183.224 519.5 185.197 515.948C187.734 511.324 190.553 506.081 195.797 504.107C200.928 502.19 205.326 505.009 208.934 508.505C213.896 513.298 219.027 517.47 224.496 521.699C229.853 525.815 234.025 530.551 238.028 535.964C242.99 542.73 248.854 547.748 255.564 552.766C260.131 556.206 264.641 559.758 268.363 564.099C264.811 564.099 261.202 564.099 257.537 564.043C257.424 563.93 257.312 563.817 257.199 563.705C253.196 559.194 247.501 556.713 243.046 552.71C238.198 548.312 234.871 542.674 229.796 538.501C224.609 534.216 219.365 530.1 214.686 525.195C212.43 522.883 210.288 520.459 208.201 517.978C206.115 515.497 203.296 511.042 199.631 510.93C196.192 510.817 191.963 515.61 190.102 518.203C188.411 520.515 187.847 523.334 186.156 525.646C182.772 530.382 176.458 531.341 173.695 536.753C171.27 541.546 171.157 547.128 169.128 552.09C166.985 557.164 162.023 559.42 159.035 563.705C155.426 563.705 152.043 563.648 148.886 563.648C152.776 557.897 159.768 551.751 161.347 549.44C165.068 543.801 166.929 537.317 171.27 532.074Z" fill="#EEDED4"/>
<path d="M196.361 552.034C201.492 550.117 205.89 552.936 209.498 556.431C212.261 559.081 215.08 561.562 217.956 563.93C214.347 563.93 210.795 563.93 207.243 563.874C205.382 561.506 203.071 558.856 200.251 558.8C197.714 558.743 194.669 561.393 192.527 563.818C190.215 563.818 187.96 563.818 185.761 563.818C188.298 559.194 191.117 554.007 196.361 552.034Z" fill="#EEDED4"/>
<path d="M36.57 280.265C41.7573 284.212 45.535 289.568 50.9478 293.346C56.4734 297.18 62.0553 300.845 67.1298 305.355C69.5543 307.498 71.9224 309.753 74.1778 312.009C76.4895 314.32 79.647 318.549 83.2555 318.324C86.2439 318.154 89.4577 314.264 91.3748 311.501C92.2769 313.869 93.179 316.237 94.0812 318.549C92.5024 321.143 90.529 323.455 87.6535 324.808C82.6917 327.119 78.0683 324.695 74.1778 321.481C68.8214 317.083 63.3521 313.418 57.5446 309.641C51.8499 305.976 47.2828 301.634 42.8849 296.56C37.3593 290.245 31.1008 285.734 23.9965 281.28C23.7145 281.111 23.4326 280.885 23.0943 280.716C21.6283 276.487 20.106 272.315 18.64 268.086C23.7709 272.033 32.3412 277.107 36.57 280.265Z" fill="#EEDED4"/>
<path d="M45.7041 253.426C47.2829 255.907 49.4818 257.993 51.8499 259.854C52.9212 260.7 54.0489 261.489 55.1202 262.278C56.9808 263.575 58.4468 265.379 60.2511 266.789C60.7585 267.127 61.2096 267.466 61.717 267.804C62.3936 268.255 63.0702 268.762 63.6905 269.214C65.7203 270.68 67.6937 272.202 69.6671 273.837C71.2459 275.134 72.9937 276.318 74.798 277.107C75.7002 277.502 76.6587 277.784 77.6172 277.953C76.997 276.487 76.3204 275.021 75.7002 273.555C75.3619 272.709 74.9108 271.807 74.4597 270.849C74.065 270.059 73.6703 269.157 73.2193 268.255C73.1629 268.142 73.1065 268.029 73.0501 267.917C72.8246 267.466 72.5991 267.015 72.3735 266.507C69.5544 263.857 66.7916 261.094 64.1979 258.275C63.2958 257.26 62.3936 256.302 61.3787 255.512C60.9277 255.174 60.4766 254.836 59.9692 254.61C58.6159 253.934 56.6989 253.257 57.0936 251.396C57.3191 250.325 57.9957 249.536 58.6159 248.69C58.9542 248.182 59.3489 247.675 59.7436 247.168C60.1383 246.66 60.533 246.153 60.9277 245.702C60.1947 244.405 59.4053 243.108 58.6723 241.811C57.4319 239.725 56.2478 237.695 55.1202 235.834C53.7106 237.752 52.1882 239.669 50.6095 241.473C49.9329 242.262 49.2563 242.995 48.5797 243.728C46.0988 246.209 43.4488 249.818 45.7041 253.426Z" fill="#EEDED4"/>
<path d="M122.329 515.609C132.196 516.004 151.649 512.114 152.438 518.429C152.495 518.767 152.72 519.162 152.438 519.387C150.577 521.022 148.04 521.022 145.616 521.079C141.838 521.248 138.004 521.022 134.226 520.853C129.828 520.684 125.487 520.684 121.145 521.304C117.537 521.812 114.041 522.545 110.376 522.263C107.162 522.037 104.005 521.304 100.847 520.684C98.4791 520.233 96.2801 520.064 94.0812 520.064C93.912 519.387 93.7429 518.767 93.6301 518.09C93.179 516.23 92.5588 514.313 91.995 512.396C95.8291 512.452 99.6632 512.621 103.497 513.072C109.812 513.692 116.014 515.384 122.329 515.609Z" fill="#EEDED4"/>
<path d="M136.369 534.047C138.85 533.765 141.387 533.596 143.924 533.54C145.616 533.54 147.871 533.314 149.337 534.498C151.085 535.908 150.916 538.558 149.619 540.249C147.589 542.843 143.868 542.392 141.105 541.659C138.342 540.926 135.861 540.024 132.929 540.193C130.167 540.362 127.46 541.095 124.697 541.377C120.074 541.828 115.507 540.982 110.94 540.306C107.726 539.798 104.456 539.347 101.186 539.516C100.622 539.516 100.058 539.629 99.494 539.742C98.8174 537.543 98.1408 535.175 97.4642 532.694C105.02 533.258 112.406 535.626 120.074 535.513C125.487 535.513 130.9 534.611 136.369 534.047Z" fill="#EEDED4"/>
<path d="M66.0585 382.6C66.1149 382.939 66.3405 383.333 66.0585 383.559C64.1979 385.194 61.6606 385.194 59.2361 385.251C58.5595 385.307 57.8266 385.307 57.15 385.307C56.5297 383.164 55.9095 381.078 55.2329 378.936C61.0404 378.936 65.6639 379.612 66.0585 382.6Z" fill="#EEDED4"/>
<path d="M72.9938 405.605C74.7417 407.015 74.5725 409.665 73.2757 411.356C71.3587 413.781 67.9193 413.555 65.2128 412.879C64.4235 410.229 63.6905 407.522 62.9011 404.872C64.4799 404.759 66.0022 404.647 67.581 404.647C69.2725 404.647 71.5278 404.478 72.9938 405.605Z" fill="#EEDED4"/>
<path d="M128.926 458.38C127.178 458.606 125.712 459.564 124.021 460.015C112.744 462.722 110.376 445.807 108.91 438.477C107.67 432.331 106.598 426.072 104.456 420.096C102.2 413.837 98.3664 408.65 95.0397 402.955C88.7812 392.355 93.0099 394.78 89.7397 383.108C87.7099 375.948 84.1013 369.971 80.6055 363.543C77.5608 357.848 75.3619 351.815 76.5459 345.275C76.6023 345.049 76.8278 344.88 76.997 344.824C83.8194 343.076 90.7546 344.937 97.6898 344.034C99.494 343.809 101.298 343.358 103.046 343.02C103.948 345.5 104.907 347.981 105.809 350.519C103.723 351.308 101.862 352.492 99.7196 353.112C94.7014 354.522 90.8673 350.913 86.0747 350.519C87.7099 361.852 103.441 397.712 105.076 403.181C106.767 408.819 109.812 413.894 112.011 419.306C114.041 424.212 114.718 429.061 114.999 434.304C115.338 440.901 115.563 453.249 124.641 452.46C129.49 452.009 133.324 449.979 137.948 450.938C138.793 453.87 139.695 456.801 140.541 459.733C138.173 459.733 135.861 459.621 133.55 459.057C131.915 458.662 130.561 458.155 128.926 458.38Z" fill="#EEDED4"/>
<path d="M63.183 345.782C63.634 345.726 63.9723 345.951 64.0287 346.459C65.0436 357.285 72.1479 365.968 76.0384 375.835C78.1246 381.135 78.7448 386.717 79.7597 392.242C80.7746 397.881 82.5225 403.237 84.6651 408.537C88.8375 418.799 93.2918 428.441 94.3067 439.604C94.645 443.1 95.2088 446.089 97.0695 449.133C98.1971 450.938 99.4376 452.742 99.7759 454.884C100.114 457.422 99.212 460.184 96.562 460.974C94.1939 461.707 91.5439 460.41 89.2322 460.072C85.6236 459.508 82.0714 460.128 78.5193 460.579C77.7863 457.816 76.9969 454.997 76.2639 452.234C77.448 452.178 78.6321 452.234 79.8161 452.347C82.2406 452.573 84.6087 453.136 87.0332 453.193C89.5141 453.249 90.98 453.08 90.6417 449.81C90.529 448.4 89.8524 446.878 89.5141 445.525C87.9917 439.943 86.1874 434.53 83.8193 429.23C81.8459 424.888 80.1544 420.603 79.4778 415.811C78.8012 410.962 78.914 406 78.1246 401.151C77.2225 395.625 74.4597 391.34 71.6969 386.604C69.3288 382.488 67.75 378.09 66.4532 373.523C65.1 368.787 64.4234 362.528 61.4351 358.525C59.1234 355.48 54.6127 355.311 51.0605 354.973C50.0456 354.86 48.9179 354.916 47.7339 354.916C46.6626 351.533 45.5913 348.207 44.52 344.824C50.835 345.049 56.9808 346.684 63.183 345.782Z" fill="#EEDED4"/>
<path d="M66.1714 416.205C68.5395 424.381 70.8512 432.557 73.1066 440.789C73.3885 440.789 73.5576 440.789 73.614 440.789C76.1513 440.789 81.1694 440.789 88.2173 440.845C90.1344 440.845 92.2206 440.845 94.4759 440.845C98.9302 440.845 103.892 440.901 109.361 440.901C111.335 440.901 113.364 440.901 115.451 440.901C121.484 440.901 128.024 440.958 134.903 440.958C146.743 441.014 159.712 441.07 173.131 441.127C182.434 441.183 191.963 441.183 201.605 441.24C203.24 441.24 204.875 441.24 206.51 441.24C206.679 441.24 206.848 441.24 207.017 441.24C210.908 441.24 214.855 441.296 218.745 441.296C227.936 441.352 237.126 441.409 246.148 441.409C258.214 441.465 269.998 441.522 281.049 441.578C286.011 441.578 290.86 441.634 295.54 441.634C297.457 441.634 299.374 441.634 301.234 441.634C309.579 441.691 317.304 441.747 324.126 441.747C324.577 441.747 325.028 441.747 325.479 441.747C334.275 441.803 341.605 441.86 346.961 441.86C347.525 441.86 348.089 441.86 348.596 441.86C349.329 441.86 350.006 441.86 350.683 441.86C350.852 441.86 351.021 441.803 351.19 441.634C351.19 441.634 351.246 441.578 351.246 441.521C351.359 441.352 351.359 441.07 351.246 440.845C348.709 435.601 346.116 430.47 343.466 425.396C342.169 422.915 340.816 420.434 339.462 418.01C339.237 417.615 338.898 417.671 338.673 417.84C327.904 417.784 273.494 417.333 215.644 416.938C212.317 416.938 208.934 416.882 205.608 416.882C189.313 416.769 172.962 416.656 157.4 416.544C147.025 416.487 136.989 416.431 127.573 416.374C126.107 416.374 124.641 416.374 123.175 416.374C118.89 416.374 114.774 416.318 110.827 416.318C108.121 416.318 105.527 416.262 102.99 416.262C97.577 416.205 92.5589 416.205 87.9918 416.149C85.0599 416.149 82.2971 416.093 79.7598 416.093C74.6853 416.093 70.5129 416.036 67.3554 416.036C66.848 416.205 66.4533 416.205 66.1714 416.205Z" fill="#2E0807"/>
<path d="M133.888 144.268C134.17 145.339 135.016 144.831 135.749 144.662C136.087 144.55 136.425 144.493 136.763 144.493C137.384 144.493 137.948 144.606 138.568 144.662C138.624 144.662 138.681 144.662 138.737 144.662C139.301 144.719 139.865 144.493 140.485 144.38C143.022 143.929 144.657 145.057 146.349 146.636C148.04 148.835 150.408 150.188 154.186 149.398C155.032 149.229 154.693 147.933 153.848 148.102C145.785 149.68 142.909 138.404 142.289 132.54C142.289 132.483 142.289 132.427 142.289 132.427C142.233 132.145 142.233 131.92 142.176 131.694C142.176 131.638 142.176 131.581 142.176 131.525C142.12 131.243 142.064 131.017 142.064 130.792C141.218 126.45 139.752 132.371 138.455 132.765C135.692 133.555 135.41 137.614 134.846 139.926C134.79 140.264 134.677 140.546 134.621 140.885C134.452 141.618 134.283 142.407 134.057 143.14C134.001 143.422 133.832 143.873 133.888 144.268Z" fill="#DE6B45"/>
<path d="M278.23 432.726C278.23 432.726 278.23 432.782 278.23 432.838C278.23 432.838 278.23 432.838 278.23 432.895H278.286C278.399 432.782 278.399 432.726 278.23 432.726ZM244.118 436.109C244.456 437.011 245.133 438.815 246.148 441.465C246.824 443.213 247.614 445.412 248.572 447.893C252.857 459.226 259.792 477.55 268.081 499.427C269.321 502.641 270.505 505.911 271.802 509.238C272.817 512.001 273.888 514.764 274.96 517.583C275.58 519.218 276.2 520.853 276.82 522.488C278.906 528.014 281.049 533.596 283.192 539.347C284.206 541.997 285.221 544.647 286.18 547.297C287.759 551.469 289.337 555.642 290.916 559.87C291.085 560.265 291.198 560.66 291.367 561.054C291.762 562.069 292.157 563.084 292.551 564.099C293.115 565.622 293.679 567.088 294.243 568.61C295.652 572.388 297.118 576.165 298.528 579.999C298.923 581.071 299.374 582.198 299.768 583.326C302.362 590.148 304.956 596.971 307.493 603.737C308.169 605.541 308.902 607.402 309.579 609.206C311.101 613.266 312.624 617.325 314.146 621.272C314.654 622.625 315.161 623.922 315.668 625.219C315.95 626.008 316.232 626.741 316.571 627.531C322.491 643.149 328.073 657.921 333.035 670.89C344.593 701.393 352.487 722.255 352.487 722.255L353.164 722.762C353.164 722.762 360.099 723.044 363.594 723.214C364.046 723.214 364.271 722.368 364.271 722.368C364.271 722.368 352.318 681.377 337.151 629.899C336.756 628.433 336.305 626.967 335.854 625.501C334.67 621.441 333.429 617.269 332.189 613.096C330.892 608.642 329.539 604.131 328.186 599.564C326.607 594.208 325.028 588.795 323.393 583.382C322.998 582.142 322.66 580.845 322.265 579.605C321.42 576.729 320.574 573.797 319.672 570.922C318.995 568.666 318.375 566.411 317.698 564.212C317.416 563.197 317.078 562.182 316.796 561.224C316.458 560.152 316.176 559.137 315.894 558.066C314.766 554.288 313.695 550.567 312.567 546.846C311.552 543.406 310.538 539.967 309.523 536.584C308 531.51 306.534 526.548 305.068 521.642C304.561 519.895 304.053 518.203 303.546 516.511C302.757 513.805 301.967 511.155 301.178 508.561C300.332 505.629 299.43 502.754 298.584 499.935C298.02 498.13 297.513 496.27 296.949 494.522C295.991 491.308 295.032 488.151 294.13 485.049C290.352 472.42 286.969 461.143 284.094 451.896C282.966 448.175 281.895 444.735 280.936 441.747C279.865 438.251 278.906 435.319 278.173 432.895C276.426 433.628 254.041 436.842 244.851 435.376C244.456 435.206 243.892 435.601 244.118 436.109Z" fill="#2E0807"/>
<path d="M99.2121 280.828C102.088 286.354 106.147 290.977 111.222 294.417C106.598 287.312 102.764 279.644 99.8887 271.638C99.6068 270.792 100.904 270.454 101.186 271.299C104.343 280.095 108.685 288.496 113.985 296.165C113.985 296.165 114.041 296.165 114.041 296.221C114.267 296.334 114.379 296.559 114.379 296.728C116.635 299.942 119.059 302.987 121.653 305.919C125.825 310.599 130.336 314.94 135.298 318.831C140.147 322.665 146.067 325.653 149.45 331.01C149.901 331.743 148.717 332.419 148.266 331.686C144.657 325.935 137.778 322.721 132.648 318.436C127.517 314.207 122.837 309.528 118.608 304.397C116.691 302.085 114.83 299.66 113.082 297.18C106.598 293.515 101.467 288.158 98.028 281.505C97.6334 280.772 98.8174 280.095 99.2121 280.828Z" fill="#E3963D"/>
<path d="M182.603 133.498C181.814 136.317 182.265 138.911 183.618 139.306C184.971 139.7 186.663 137.671 187.452 134.851C188.242 132.032 187.791 129.439 186.437 129.044C185.084 128.649 183.393 130.623 182.603 133.498Z" fill="#2E0807"/>
<path d="M178.431 119.854C178.713 121.32 180.122 121.827 181.419 122.109C183.731 122.616 186.043 123.124 188.298 123.8C189.539 124.195 190.779 124.59 192.019 125.041C192.47 125.21 193.034 125.492 193.542 125.436C193.542 125.379 193.542 125.266 193.598 125.21C193.824 123.913 194.049 122.56 194.275 121.263C194.218 121.207 194.218 121.207 194.162 121.15C191.737 119.064 188.918 117.429 185.704 117.034C183.787 116.809 177.754 116.64 178.431 119.854Z" fill="#2E0807"/>
<path d="M31.7775 203.357C32.8487 205.782 35.5552 206.966 38.036 207.361C41.4754 207.868 44.9148 206.797 48.3542 206.797C48.918 206.797 49.4819 206.853 50.0457 206.91C51.2298 207.079 52.4138 207.417 53.5415 207.812C55.9096 208.658 58.2213 209.672 60.815 209.729C62.1118 209.729 63.3522 209.56 64.5927 209.221C64.8182 209.165 65.0437 209.109 65.3257 208.996C66.6225 208.601 67.8629 208.094 69.1597 207.586C69.4417 207.473 69.7236 207.361 70.0619 207.248C70.1746 207.192 70.2874 207.135 70.4566 207.079C70.5129 207.079 70.5129 207.022 70.5693 207.022C73.7268 205.838 76.9407 204.936 80.2109 206.233C81.1694 206.628 82.0152 207.079 82.9173 207.586C84.778 208.714 86.5822 210.067 88.612 210.857C89.1759 211.082 89.6833 211.195 90.1908 211.308C92.5589 211.759 94.7015 211.082 97.0132 210.011C98.8738 209.165 100.678 208.376 102.821 208.545C104.23 208.658 105.527 209.165 106.824 209.616C107.219 209.785 107.67 209.954 108.064 210.067C109.981 210.744 113.815 212.097 115.507 210.236C116.24 209.447 116.466 207.981 116.522 206.684C116.522 206.064 116.522 205.5 116.522 204.993C116.522 204.316 116.522 203.583 116.466 202.85C116.353 201.666 116.184 200.482 115.902 199.354C114.887 195.407 112.575 192.081 111.165 188.359C109.699 184.525 109.699 180.353 110.884 176.463C111.335 175.053 111.898 173.7 112.575 172.459C112.913 172.177 113.195 171.895 113.534 171.614C113.646 171.501 113.759 171.444 113.872 171.332C118.326 168.907 122.047 166.257 125.092 163.607C126.784 162.141 128.306 160.619 129.546 159.209C134.17 154.022 136.256 149.342 136.425 147.087C136.482 146.297 136.594 145.395 136.82 144.493C136.933 144.098 137.046 143.647 137.158 143.196C138.06 139.757 139.639 135.754 141.105 132.709C141.443 131.976 141.782 131.356 142.12 130.736C142.12 130.679 142.176 130.623 142.176 130.566C143.53 128.085 144.545 126.901 146.236 126.394H146.292C146.462 126.338 146.574 126.338 146.743 126.281C147.195 126.168 147.702 126.112 148.266 126.056C148.773 125.999 149.337 125.999 149.901 125.943C152.044 125.887 153.848 126.338 155.596 126.676C157.4 127.014 159.261 127.24 161.403 126.563C164.73 125.492 166.647 122.165 168.056 119.233C170.143 114.892 171.891 110.381 174.315 106.209C178.713 98.5405 181.081 93.5788 190.553 97.0182H190.61C190.779 97.2437 191.174 97.0746 191.174 96.6799C191.174 96.1724 191.174 95.6086 191.117 95.1011C191.174 94.8192 191.174 94.5373 191.174 94.5373C191.117 94.2554 191.061 93.9735 191.005 93.6915C190.948 93.0713 190.892 92.4511 190.779 91.8309C190.666 91.7181 190.61 91.6617 190.497 91.6054C190.102 90.1958 189.539 88.8989 188.749 87.2638C183.111 75.9307 171.27 68.5445 158.584 68.7136C154.017 68.77 149.675 68.9392 145.221 67.6987C141.387 66.6275 137.666 65.0487 133.775 64.1466C126.389 62.3987 118.495 62.5678 111.335 65.2179C105.189 67.4732 99.776 71.4764 95.9419 76.7765C91.6004 82.7531 90.6982 89.8011 88.7812 96.7363C87.7099 100.57 86.1876 104.179 83.5939 107.224C81.2258 109.986 78.2939 112.185 75.7002 114.723C70.7385 119.515 68.2576 125.605 66.9044 132.258C66.3969 134.908 66.0023 137.558 65.6076 140.208C65.1565 143.422 64.7618 146.636 64.0852 149.793C61.6607 154.417 57.432 158.476 54.3309 162.479C54.1053 162.761 53.9362 163.043 53.7106 163.269C53.1468 164.002 52.6394 164.791 52.1883 165.581C49.651 169.866 48.2978 174.715 46.4372 179.338C45.3659 182.045 44.1254 184.638 42.3776 187.006C41.0807 188.811 39.5584 190.446 37.8669 191.912C36.4573 193.208 34.8785 194.336 33.5817 195.746C31.8338 197.832 30.5934 200.707 31.7775 203.357Z" fill="#2E0807"/>
<path d="M7.47607 237.188C8.43459 239.781 9.39311 242.375 10.408 245.025C10.6899 245.871 11.0282 246.66 11.3102 247.45C12.0431 244.969 13.0017 242.488 14.3549 240.289C16.4974 236.68 19.2602 233.692 20.5007 229.576C21.1209 227.49 21.5156 225.347 22.3049 223.317C23.1507 221.118 24.5039 219.314 25.9135 217.397C27.7741 214.86 29.3529 212.21 30.7061 209.391C27.9997 208.263 25.1241 207.586 22.023 207.361C21.4028 208.77 20.9517 210.293 20.3879 211.646C19.373 214.127 18.1889 216.551 16.7794 218.807C15.5389 220.78 14.2985 222.754 13.4527 224.953C12.4942 227.321 11.7048 229.689 10.3516 231.888C9.22396 233.692 8.26544 235.327 7.47607 237.188Z" fill="#EEDED4"/>
<path d="M181.983 162.536C181.983 162.649 181.983 162.761 181.983 162.93C182.209 163.945 183.449 165.299 184.182 165.637C184.239 165.693 184.351 165.693 184.464 165.693C185.366 165.862 186.607 165.073 186.832 164.227C186.945 163.889 186.889 163.494 186.776 163.156C186.719 162.93 186.607 162.705 186.55 162.479C186.212 161.69 185.817 160.957 185.592 160.111C185.479 159.829 185.423 159.491 185.423 159.153C185.423 158.702 184.746 158.702 184.746 159.153C184.746 159.266 184.746 159.378 184.802 159.435C183.731 160.168 182.152 161.239 181.983 162.536Z" fill="#FA9464"/>
<path d="M179.841 178.718C179.841 178.887 180.404 179.113 180.855 179.113C181.025 179.113 181.194 179.113 181.194 179C181.701 177.76 183.054 176.914 183.393 175.617C183.675 174.658 183.224 173.7 182.885 172.685C182.66 172.121 182.491 171.557 182.491 170.937C182.491 170.542 181.814 170.542 181.814 170.937C181.814 171.05 181.814 171.219 181.814 171.332C181.588 171.557 181.419 171.839 181.25 172.121C180.799 172.911 180.517 173.869 180.292 174.771C180.066 176.124 179.953 177.478 179.841 178.718Z" fill="#FA9464"/>
<path d="M170.03 162.48C169.861 164.453 171.045 166.145 172.623 167.329C174.766 168.964 177.303 170.373 179.728 171.445C179.784 171.501 179.841 171.501 179.953 171.557C180.292 171.726 180.743 171.952 181.25 172.178C181.758 172.403 182.265 172.629 182.829 172.798C182.829 172.741 182.829 172.741 182.829 172.685C183.336 170.43 183.9 167.949 184.351 165.806C182.491 165.13 180.574 164.679 178.657 164.171C176.739 163.664 174.822 163.213 172.905 162.536C172.116 162.254 171.327 161.916 170.537 161.577C170.368 161.465 170.086 161.577 170.03 161.803C170.086 162.029 170.086 162.254 170.03 162.48Z" fill="white"/>
<path d="M142.12 130.623C142.12 130.905 142.12 131.243 142.176 131.525C142.176 131.581 142.176 131.638 142.176 131.694C142.233 131.92 142.233 132.145 142.289 132.427C142.458 133.724 142.797 135.077 143.248 136.487C143.36 136.769 143.586 133.442 144.77 131.412C144.939 131.13 145.108 130.848 145.334 130.623C145.559 130.341 145.841 130.115 146.067 129.89C146.123 129.833 146.18 129.777 146.236 129.777C147.138 129.1 148.153 128.593 149.393 128.367C149.675 128.311 150.465 128.367 151.367 128.311C151.874 128.311 152.438 128.255 152.946 128.198C154.017 128.086 154.975 127.804 155.201 127.183C155.934 128.142 156.667 129.157 157.625 129.946C157.964 130.228 158.415 129.777 158.133 129.439C157.174 128.649 156.441 127.635 155.652 126.676C154.75 125.548 153.791 124.421 152.495 123.631C150.521 122.391 147.984 121.94 145.785 122.898C143.248 124.026 141.951 126.789 142.12 130.623Z" fill="#FA9464"/>
<path d="M284.263 234.425C284.658 233.241 285.052 232.057 285.503 230.873C285.616 231.211 285.785 231.493 285.954 231.775C286.067 232.677 286.462 233.466 286.969 234.256C287.589 235.214 288.097 236.173 288.548 237.188C288.435 237.357 288.548 237.639 288.717 237.695C288.774 237.864 288.886 238.033 288.943 238.259C289.112 238.654 289.732 238.484 289.619 238.09C289.563 237.921 289.45 237.695 289.394 237.526C292.269 236.455 294.637 234.65 296.554 232.395L296.611 232.339C297.118 231.718 297.569 231.098 298.02 230.422C298.02 230.365 298.077 230.365 298.077 230.309C299.486 228.166 300.614 225.798 301.403 223.374C301.855 222.077 302.136 220.724 302.475 219.427C302.531 219.258 302.587 219.032 302.644 218.863C302.7 218.637 302.757 218.412 302.813 218.186C303.095 217.171 303.377 216.608 303.997 216.1C304.166 215.931 304.392 215.818 304.617 215.649C305.35 215.198 306.083 214.747 306.873 214.296C306.985 214.24 307.098 214.183 307.211 214.127C307.324 214.07 307.38 214.014 307.493 213.958C308.564 213.394 309.635 212.774 310.763 212.153C310.763 212.153 310.819 212.153 310.819 212.097C310.932 212.041 310.989 211.984 311.101 211.928C311.327 211.759 311.609 211.646 311.834 211.477C311.891 211.42 311.947 211.42 312.004 211.364C312.173 211.251 312.285 211.195 312.398 211.082C312.737 210.857 313.075 210.575 313.413 210.349C313.977 209.898 314.541 209.391 314.992 208.827C315.048 208.77 315.105 208.658 315.161 208.601C316.176 207.304 317.36 204.485 316.007 202.963C316.007 202.906 315.95 202.906 315.894 202.85C315.499 202.455 315.048 202.399 314.654 202.512C314.315 202.625 313.977 202.794 313.639 202.963H313.582C313.526 203.019 313.413 203.019 313.357 203.076C312.68 203.414 312.06 203.809 311.44 204.26C311.214 204.372 311.045 204.542 310.819 204.654C310.707 204.711 310.594 204.823 310.481 204.88C310.086 205.162 309.692 205.444 309.297 205.782C309.128 205.951 308.902 206.064 308.733 206.233C308.395 206.459 308.113 206.684 307.775 206.91C307.267 207.304 306.76 207.643 306.196 207.981C305.068 208.77 303.941 209.503 302.813 210.236C302.757 210.293 302.7 210.293 302.644 210.349C301.911 210.8 301.234 211.251 300.501 211.646C300.332 211.759 300.163 211.815 299.994 211.928C299.261 212.322 298.471 212.774 297.739 213.168C297.062 213.563 296.329 213.958 295.652 214.409C294.468 215.198 293.341 216.044 292.326 217.059C287.702 221.795 285.56 228.166 283.53 234.256C283.473 234.65 284.094 234.82 284.263 234.425Z" fill="#FA9464"/>
<path d="M123.232 139.588C126.615 132.709 126.389 124.646 130.731 118.162C131.238 117.429 132.366 118.106 131.915 118.838C127.855 124.815 127.911 132.258 125.149 138.742C122.442 145.113 116.353 150.019 115.62 157.236C115.507 158.081 114.154 158.081 114.267 157.236C114.943 150.244 120.243 145.621 123.232 139.588Z" fill="#3C377A"/>
<path d="M69.1033 207.586C69.3852 207.474 69.6671 207.361 70.0054 207.248C70.1746 207.192 70.3437 207.135 70.5129 207.079C70.7384 200.313 74.2342 194.28 77.6736 188.134C81.6204 181.086 78.9704 169.471 86.9205 165.017C87.6535 164.622 86.9768 163.438 86.2439 163.833C82.8045 165.75 81.0002 169.133 80.0981 172.911C78.8012 178.38 78.8576 183.511 75.8693 188.472C72.2044 194.449 69.1597 200.82 69.1033 207.586Z" fill="#3C377A"/>
<path d="M66.9044 187.063C67.4118 186.386 68.4831 187.175 67.9756 187.908C65.0437 191.686 63.3522 195.971 62.8447 200.764C62.732 201.61 61.4351 201.44 61.4915 200.595C62.0554 195.577 63.8596 191.009 66.9044 187.063Z" fill="#3C377A"/>
<path d="M113.139 81.7946C113.703 81.118 114.661 82.0765 114.097 82.7531C110.602 86.7563 108.403 91.3798 107.444 96.5671C107.275 97.4128 105.978 97.0745 106.147 96.2288C107.162 90.8159 109.53 85.967 113.139 81.7946Z" fill="#3C377A"/>
<path d="M101.862 78.0732C102.37 77.3966 103.554 78.0732 103.046 78.7498C100.34 82.302 97.4079 88.0531 98.7611 92.6766C98.9866 93.5223 97.6898 93.8606 97.4642 93.0149C95.9419 88.0531 98.9302 81.9637 101.862 78.0732Z" fill="#3C377A"/>
<path d="M147.138 125.323C147.758 124.703 148.717 125.661 148.097 126.281C145.447 128.875 146.01 132.54 146.743 135.81C146.913 136.656 145.616 136.994 145.447 136.148C144.601 132.427 144.093 128.255 147.138 125.323Z" fill="#DE6B45"/>
<path d="M151.592 128.649C151.029 128.029 151.987 127.071 152.551 127.691C153.961 129.213 154.919 131.018 155.145 133.104C155.257 133.95 155.201 134.513 154.863 135.359C154.75 135.585 154.468 135.754 154.412 135.979C153.509 138.46 154.13 139.588 156.216 140.885C156.949 141.336 156.272 142.52 155.539 142.069C153.904 141.054 152.382 139.644 152.382 137.558C152.382 136.769 152.72 136.261 153.002 135.585C153.679 133.893 154.017 133.555 153.566 132.033C153.171 130.736 152.495 129.664 151.592 128.649Z" fill="#DE6B45"/>
<path d="M294.355 217.51C298.246 211.646 303.546 207.135 309.974 204.203C310.763 203.865 311.44 204.992 310.65 205.387C304.448 208.206 299.317 212.548 295.54 218.186C295.032 218.919 293.904 218.243 294.355 217.51Z" fill="#DE6B45"/>
<path d="M288.886 240.683C291.198 238.597 293.51 236.455 295.54 234.087C298.246 230.816 299.599 227.377 300.896 223.374C301.629 221.118 302.418 218.75 303.884 216.833C305.745 214.465 308.508 213.225 311.045 211.871C311.834 211.477 312.511 212.604 311.722 213.055C308.621 214.747 305.632 216.157 303.828 219.427C302.193 222.359 301.742 225.798 300.389 228.899C298.133 234.087 293.904 237.977 289.845 241.698C289.168 242.206 288.21 241.247 288.886 240.683Z" fill="#DE6B45"/>
<path d="M336.587 233.635C337.714 230.985 340.308 230.478 340.534 227.151C340.703 224.558 341.097 222.189 341.661 219.652C342.394 216.213 342 213.168 341.718 209.672C341.492 206.853 341.548 203.978 341.548 201.102C342 201.891 342.451 202.681 342.902 203.47C342.902 205.726 342.902 207.981 343.127 210.236C343.466 213.619 343.635 216.608 342.958 219.934C342.62 221.626 342.169 223.261 342 225.009C341.83 226.362 342.056 227.941 341.661 229.237C340.985 231.436 338.617 232.169 337.771 234.199C337.376 235.101 336.248 234.425 336.587 233.635Z" fill="#DE6B45"/>
<path d="M344.255 234.989C344.932 234.143 345.777 233.41 346.285 232.395C347.074 230.76 346.792 229.238 346.792 227.546C346.736 223.374 347.3 219.145 347.751 214.973C347.863 215.649 347.863 216.326 347.92 217.002C348.202 217.566 348.484 218.13 348.766 218.75C348.427 222.077 348.202 225.404 348.258 228.73C348.258 230.309 348.258 231.719 347.525 233.128C346.454 235.102 344.48 236.398 343.578 238.541C343.24 239.33 341.943 238.992 342.282 238.203C342.733 236.962 343.409 236.004 344.255 234.989Z" fill="#DE6B45"/>
<path d="M160.614 405.549C176.458 391.002 189.2 373.523 198.109 353.958C198.447 353.168 199.631 353.845 199.293 354.634C190.328 374.256 177.472 391.904 161.572 406.507C160.896 407.071 159.937 406.113 160.614 405.549Z" fill="#E3963D"/>
<path d="M479.914 457.196C480.026 456.35 481.323 456.689 481.21 457.534C479.857 467.514 478.786 477.494 477.997 487.53C477.94 488.376 476.587 488.376 476.643 487.53C477.433 477.438 478.56 467.289 479.914 457.196Z" fill="#3C377A"/>
<path d="M482.395 502.359C484.819 496.326 486.116 490.068 486.341 483.527C486.398 482.682 487.751 482.682 487.695 483.527C487.469 490.124 486.116 496.552 483.691 502.698C483.409 503.544 482.056 503.205 482.395 502.359Z" fill="#3C377A"/>
<path d="M398.721 491.759C408.194 486.234 415.693 478.171 420.542 468.304C420.936 467.514 422.121 468.191 421.726 468.98C416.764 479.016 409.096 487.248 399.454 492.887C398.665 493.394 397.988 492.21 398.721 491.759Z" fill="#3C377A"/>
<path d="M392.463 510.874C397.594 506.532 402.837 502.416 408.194 498.413C408.87 497.905 409.547 499.089 408.87 499.597C403.57 503.544 398.439 507.603 393.421 511.832C392.745 512.396 391.786 511.437 392.463 510.874Z" fill="#3C377A"/>
<path d="M246.091 407.24C250.376 398.05 257.199 390.494 265.882 385.138C266.615 384.687 267.291 385.871 266.558 386.322C258.101 391.509 251.504 398.952 247.275 407.917C246.881 408.706 245.753 408.03 246.091 407.24Z" fill="#B73E35"/>
<path d="M356.208 482.738C356.152 484.881 356.321 487.023 356.716 489.11C356.829 489.843 357.054 490.519 357.223 491.196C357.674 491.139 358.125 491.139 358.576 491.196C358.52 491.027 358.52 490.914 358.464 490.745C357.731 488.095 357.505 485.445 357.562 482.682C357.618 481.892 356.265 481.892 356.208 482.738Z" fill="#2E0807"/>
<path d="M328.75 490.914C329.257 490.97 329.708 491.083 330.215 491.083C330.272 489.561 330.441 488.038 330.948 486.516C331.625 484.373 332.02 482.569 331.4 480.426C331.174 479.581 329.821 479.919 330.103 480.765C331.005 483.866 329.201 486.459 328.862 489.504C328.806 489.955 328.806 490.463 328.75 490.914Z" fill="#2E0807"/>
<path d="M323.506 491.308C323.844 490.97 324.295 490.801 324.803 490.688C324.521 487.361 325.31 483.978 326.438 480.708C326.72 479.862 325.423 479.524 325.141 480.37C323.9 483.978 323.111 487.7 323.506 491.308Z" fill="#2E0807"/>
<path d="M300.84 492.493C301.291 492.38 301.742 492.323 302.249 492.323C302.982 488.828 303.377 485.332 303.433 481.78C303.433 480.877 302.08 480.877 302.08 481.78C302.024 485.388 301.629 488.94 300.84 492.493Z" fill="#2E0807"/>
<path d="M236.055 492.154C236.506 492.21 237.013 492.323 237.465 492.379C236.788 488.658 237.295 484.88 238.028 481.103C238.198 480.257 236.901 479.862 236.732 480.764C235.999 484.486 235.435 488.376 236.055 492.154Z" fill="#2E0807"/>
<path d="M231.939 492.38C232.334 492.154 232.728 492.041 233.236 491.985C232.616 488.715 233.179 485.106 233.969 481.949C234.194 481.103 232.898 480.765 232.672 481.611C231.826 484.994 231.262 488.828 231.939 492.38Z" fill="#2E0807"/>
<path d="M209.273 492.323C209.78 492.379 210.288 492.436 210.795 492.605C209.329 489.56 209.837 485.275 210.626 482.287C210.852 481.441 209.555 481.103 209.329 481.948C208.54 485.049 208.089 489.109 209.273 492.323Z" fill="#2E0807"/>
<path d="M130.11 222.19C145.559 226.419 157.287 237.695 168.395 248.69C169.015 249.31 168.056 250.269 167.436 249.649C156.498 238.823 144.939 227.659 129.716 223.487C128.926 223.261 129.321 221.964 130.11 222.19Z" fill="#E3963D"/>
<path d="M218.689 387.731C223.087 391.453 228.105 394.554 233.405 397.148C238.254 399.572 243.272 401.545 248.121 403.35C248.234 403.406 248.347 403.462 248.516 403.462C248.798 403.575 249.136 403.688 249.418 403.801C254.098 405.436 259.059 406.564 264.078 406.225C269.603 405.887 274.79 403.068 280.372 403.181C286.067 403.293 290.916 406.846 296.273 408.199C301.234 409.496 306.309 408.763 311.271 407.578C317.247 406.112 322.998 404.195 329.088 403.519C334.219 402.899 339.462 402.899 344.65 403.519C353.953 404.59 362.974 407.522 371.093 412.089C373.518 409.89 376.394 408.142 379.664 406.676C380.228 406.394 380.848 406.169 381.412 405.887C371.375 402.504 361.959 397.317 351.585 394.949C340.421 392.411 329.2 394.441 318.262 397.26C312.173 398.839 305.576 401.433 299.204 400.305C296.949 399.91 294.863 398.895 292.833 397.937C290.352 396.753 287.871 395.456 285.109 395.118C279.47 394.328 274.001 396.527 268.475 397.317C266.84 397.542 265.205 397.711 263.57 397.768C260.469 397.881 257.311 397.599 254.21 397.091C253.703 397.035 253.195 396.922 252.688 396.809C252.068 396.696 251.448 396.527 250.827 396.415C247.557 395.625 243.836 394.498 240.227 392.975C233.743 390.212 227.541 386.209 224.327 380.458C222.918 382.488 221.452 384.461 219.873 386.435C219.478 386.829 219.083 387.28 218.689 387.731Z" fill="#B73E35"/>
</g>
<defs>
<clipPath id="clip0_125_136">
<rect width="680" height="727" fill="white"/>
</clipPath>
</defs>
</svg>
