<svg width="428" height="724" viewBox="0 0 428 724" fill="none" xmlns="http://www.w3.org/2000/svg">
    <mask id="mask0_123_441" style="mask-type:alpha" maskUnits="userSpaceOnUse" x="0" y="0" width="428" height="727">
        <path d="M214 0C332.2 0 428 95.8 428 214V513C428 631.2 332.2 727 214 727C95.8 727 0 631.2 0 513V214C0 95.8 95.8 0 214 0Z" fill="#FDA455"/>
    </mask>
    <g mask="url(#mask0_123_441)">
        <rect width="428" height="727" rx="214" fill="#FDA455"/>
        <path d="M265.6 318.9C266.7 319.7 267.8 320.6 268.8 321.5C278 329.7 283 341 283.3 350.6C283.5 356.2 282.7 361.5 281.6 366.3C284.9 367.7 288.4 369.1 291 372.9C296.3 380.7 290.1 390.4 288.3 401.2C297.3 401.4 301.3 412.1 303.8 405.3C306.6 397.3 315.6 391.2 327 395.5C333.3 397.9 338.3 404.3 339.8 409.4C340.7 412.7 340.1 415 339 417C339.3 416.7 339.5 416.5 339.7 416.2C351.8 402.4 355.2 362.1 317.6 352.4C303.9 348.9 312.1 324.6 297.3 312C280.9 298.1 265.6 312.1 260.5 314.8C261.2 315.3 262 315.8 262.7 316.3C263.7 317.1 264.7 317.9 265.6 318.9Z" fill="#DC464C"/>
        <path d="M269.2 455.8C268.7 452.3 268.2 448.7 268.1 445.5C267.6 445.5 267.2 445.5 266.8 445.4C262.1 444.1 258.6 442.4 256.2 440.3C252.4 442.3 247.9 444.8 243.2 447.8C247.2 452.2 248.3 457.7 248.7 463.3C253.9 462.2 261.4 460 269.2 455.8Z" fill="#F18554"/>
        <path d="M208.3 399.3C207.4 397.6 206.6 396.1 205.8 394.7C206.6 396 207.4 397.6 208.3 399.3Z" fill="#F18554"/>
        <path d="M257 416.7C263.1 410.9 268.5 417.5 270.9 416.1C273.3 414.7 276.8 404.6 283.1 402.1C283.7 401.9 284.3 401.7 284.9 401.5C279.4 394.5 276.1 387.6 274.5 384.8C273.1 385.3 271.9 385.6 270.9 385.8C271 386 270.9 386.2 270.8 386.3C264.7 391.6 258.6 396.7 252.4 401.8C252.2 402 251.9 402 251.7 401.7C249 397.9 246.3 394.1 243.6 390.3C242.6 388.8 241.3 387.3 240.6 385.7C240.1 384.6 239.5 383.7 240.2 382.6C240.2 382.6 240.2 382.5 240.3 382.5C244.8 377.5 250.7 373.5 256.1 369.3C256.7 368.8 257.5 367.6 258.4 367.7C259.7 367.9 261.1 370.6 261.8 371.6L261.9 371.7C264.7 364.6 262.6 354.1 255 353.2C245.3 352 246.1 363.4 240.7 364.1C239.8 364.2 238.9 363.7 238.1 362.7C237.3 361.7 236.4 360.3 235.7 358.7C234.6 356.5 234.3 353.1 233.6 350.3C225.1 354.7 222.4 352 221.6 349.3C219.1 351.2 216.5 352.9 213.4 351.7C211.8 350.8 212.3 348.8 213.1 347.6C211 350 208.1 351.6 205.3 352.6C204.4 352.9 203.4 353.1 202.4 353.2C201.5 353.3 199.5 353.6 197.4 353.8C197.8 358.8 198.8 363.3 199.6 366.2C201.6 373.6 193.7 383.7 197.7 386.4C200.8 388.5 203.7 389.7 203.7 389.7C203.7 389.7 204.7 391.7 206.2 394.7C207.8 394.2 209.3 393.4 211.4 391.9C215.1 389.1 218.4 391.7 217.5 395.9C217 398.3 214.3 401.8 211.7 404.5C210.7 402.8 209.7 401.1 208.8 399.4C212.6 406.3 217.7 414.5 221 415.5C225.6 416.9 245.6 405.9 245.6 405.9L255.4 419C255.6 418.1 256.3 417.3 257 416.7ZM208 372.8C206.9 373.1 205.8 372.4 205.5 371.3C205.2 370.2 205.9 369.1 207 368.8C208.1 368.5 209.2 369.2 209.5 370.3C209.8 371.4 209.1 372.5 208 372.8ZM209.7 362.8C208.1 362.2 207.7 361.3 205.1 362.6C204 363.2 203 362.6 202.8 362.1C202.5 361.2 202.9 360.5 203.8 360C207.4 358.1 212 360 212 361.6C212.1 362.6 211.3 363.4 209.7 362.8Z" fill="#F18554"/>
        <path d="M263.8 383.4C260.8 380.7 259.9 376.5 261.2 372.7C260.7 372 260.2 371.3 259.7 370.6C259.5 370.3 258.6 368.9 258.1 368.9C257.7 368.9 257.4 369.3 257 369.6C256.4 370.1 255.7 370.6 255.1 371.1C253.5 372.4 251.9 373.6 250.2 374.9C247 377.5 243.5 380 240.8 383.1C239.9 384.6 242.3 386.8 243.1 387.9C243.9 389.1 244.7 390.3 245.5 391.5C247.7 394.6 249.8 397.7 252 400.8C254.8 398.6 257.5 396.3 260.2 394C263 391.6 266.2 389.4 268.8 386.7C269.2 386.3 269.4 386.1 269.5 385.9C267.6 386.1 265.9 385.3 263.8 383.4Z" fill="#F18554"/>
        <path d="M217.1 395.8C218 391.6 214.7 389 211 391.8C209 393.3 207.4 394.1 205.8 394.6C206.5 396 207.3 397.6 208.3 399.2C209.2 400.9 210.2 402.6 211.2 404.3C213.9 401.8 216.6 398.2 217.1 395.8Z" fill="white"/>
        <path d="M342.2 480.1C342.8 489.5 358 527.7 358 527.7C358 527.7 365.6 523.9 374.5 525.5C371.2 468.9 348.3 443.1 337.8 434.2C346 467 342.2 480.1 342.2 480.1Z" fill="#E6BE5A"/>
        <path d="M300.1 561.3C301.1 550.6 309.6 545 318.5 539.9C318.6 540.4 318.7 540.9 318.8 541.5C317.9 533.9 315.6 523.4 311.1 518.2C311.1 518.2 311.1 518.2 311 518.2C304.7 523.7 295.3 524.1 290.5 524.3C283.4 524.7 281.8 520.9 280.9 517.6C279.5 515.2 278.3 512.4 277.3 509.5C277.2 509.2 277.1 509 277 508.7C276.9 508.4 276.8 508.2 276.8 507.9C276.7 507.6 276.6 507.4 276.6 507.1C276.5 506.8 276.5 506.6 276.4 506.3C276.3 506.1 276.3 505.8 276.2 505.6C276.1 505.4 276.1 505.1 276 504.9C276 504.9 276 504.9 276 504.8C275.9 504.6 275.9 504.3 275.8 504.1V504C275.7 503.8 275.7 503.5 275.6 503.3V503.2C275.5 503 275.5 502.8 275.4 502.5V502.4C275.3 502.2 275.3 502 275.2 501.8V501.7C275.2 501.5 275.1 501.3 275.1 501.1V501C275.1 500.8 275 500.6 275 500.4V500.3C275 500.1 274.9 499.9 274.9 499.7V499.6C274.9 499.4 274.8 499.2 274.8 499V498.9C274.8 498.7 274.7 498.5 274.7 498.3V498.2C274.7 498 274.6 497.8 274.6 497.6C274.6 497.6 274.6 497.6 274.6 497.5C274.2 495.3 273.9 493.5 273.7 492.2C273.4 492.1 273.2 492 272.9 491.9C272 491.4 272.3 490.5 272.7 490C271.9 489.6 270.3 488.7 267.3 486.1C262.4 481.9 266.5 479.6 270.4 474.8C272.4 472.4 270.7 464.3 269.5 455.9C261.6 460 254.1 462.2 249 463.4C249.6 472.5 248 481.6 252.7 485.9C281.7 511.9 270.8 533.3 270.8 533.3L225.7 539.4C226.5 545.1 228.3 550.4 229.3 555C229.5 556 229.9 556.8 230.3 557.5C255.5 555.1 277.4 558.6 285.8 574.8C285.9 574.9 285.9 575.1 286 575.2C293.5 567.1 300.1 561.3 300.1 561.3Z" fill="#E6BE5A"/>
        <path d="M200.7 437.2C204 434.1 207.9 431.7 212.6 431.4C215.8 431.2 218.7 432.4 221.3 434.1C223.1 434.5 224.8 435 226.5 435.7C225.5 434.9 224.5 434.1 223.5 433.4C220.3 431 216.7 429.3 212.6 429.6C205.7 430 200.5 434.5 196 439.4C197.6 438.7 199.2 438 200.7 437.2Z" fill="#2A88AA"/>
        <path d="M169.2 507.6C169.2 507.4 169.2 507.2 169.2 507C169.2 507 169.2 507 169.2 506.9C169.2 506.7 169.2 506.5 169.2 506.3C169.2 506.3 169.2 506.3 169.2 506.2C169.2 506 169.2 505.8 169.2 505.6C169.2 505.6 169.2 505.6 169.2 505.5C169.2 505.3 169.2 505.1 169.2 504.9C169.2 504.9 169.2 504.9 169.2 504.8C169.2 504.6 169.2 504.4 169.2 504.2C169.2 504 169.2 503.8 169.2 503.6C169.4 500 169.6 497.6 169.6 497.6C169.6 497.6 167.6 494.6 166 489.8C164.4 485 173.5 487.1 175.9 474.6C177.3 467.2 179.4 460.6 182.4 455.2C181.4 453 180.8 451.6 180.8 451.6C183.3 444.5 188.9 442 194.3 439.8C191.9 440.1 167.1 443.8 155.9 461.5C159.1 458 162.3 454.5 165.7 451.2C166.6 450.4 167.9 451.7 167 452.5C161.9 457.5 157.1 462.7 152.6 468.1C151.4 471.4 150.7 475.1 150.5 479.2C150.2 485.9 149.5 490.9 148.3 494.9C148.8 497.6 148.7 500.3 147.5 503.1C145.3 507.8 140.3 511.6 140.4 517.1C140.4 518.3 138.5 518.3 138.5 517.1C138.4 511.5 142.9 507.7 145.4 503.1C146 502 146.4 500.8 146.6 499.7C140.4 513 129.1 509.1 127.4 527.3L173.2 528.6C169.9 523.9 169.2 514.7 169.2 507.6Z" fill="#2A88AA"/>
        <path d="M46 497.6C43.4 498.4 43.4 509.4 43.4 509.4C43.4 509.4 23.9 483.9 22.2 485.7C20.5 487.5 33.2 507.3 33.2 507.3C33.2 507.3 19 486.6 17.1 488.7C15.2 490.8 29.8 510.1 29.8 510.1C29.8 510.1 14.3 490.6 12.5 493.2C10.7 495.8 27.2 513.1 27.2 513.1C27.2 513.1 6.00001 494.1 9.30001 501.1C14.3 511.5 34.2 526.2 42 532C46 526.1 50.2 520.7 53.5 517.3C48.2 509 48.2 496.9 46 497.6Z" fill="#F18554"/>
        <path d="M230.1 557.4C229.7 556.7 229.3 555.9 229.1 554.9C228.1 550.3 226.3 545 225.5 539.3L195.4 543.4C196.5 550.2 197.2 558.4 195.4 563.7C207.1 560.8 218.9 558.5 230.1 557.4Z" fill="#F18554"/>
        <path d="M202.8 503.7C208.1 491.3 208.9 481.3 197.9 474.5C190.3 469.9 185 460.5 182.6 455.4C179.6 460.9 177.6 467.5 176.1 474.8C173.7 487.3 164.6 485.3 166.2 490C167.8 494.8 169.8 497.8 169.8 497.8C169.8 497.8 169.5 500.2 169.4 503.8C169.4 503.6 169.4 503.4 169.4 503.2C169.7 503.1 170 502.9 170.3 502.7C173.5 500.3 178.8 499.9 177.4 506.2C176.7 509.5 173.4 512.2 169.5 513.8C169.4 511.6 169.3 509.5 169.3 507.5C169.3 514.6 170 523.8 173.5 528.8C174.5 530.2 175.7 531.3 177.1 531.9C180.4 533.3 184.5 533.3 187.7 533C189.3 520 201.5 506.7 202.8 503.7ZM179.9 471.2C183.4 470 187.3 472.4 187.1 473.8C187 474.7 186.2 475.4 184.8 474.6C183.4 473.8 183.2 473 180.7 473.8C179.6 474.1 178.8 473.5 178.7 473C178.6 472 179.1 471.5 179.9 471.2ZM180.2 479.3C181.2 479.2 182.1 480 182.2 481C182.3 482 181.5 482.9 180.5 483C179.5 483.1 178.6 482.3 178.5 481.3C178.4 480.3 179.2 479.4 180.2 479.3Z" fill="#F18554"/>
        <path d="M169.2 507.6C169.2 507.4 169.2 507.2 169.2 507C169.3 507.2 169.3 507.4 169.2 507.6Z" fill="#F18554"/>
        <path d="M169.3 504.5C169.3 504.7 169.3 504.9 169.3 505.1C169.3 505.1 169.3 505.1 169.3 505.2C169.3 505.4 169.3 505.6 169.3 505.8C169.3 505.8 169.3 505.8 169.3 505.9C169.3 506.1 169.3 506.3 169.3 506.5C169.3 506.5 169.3 506.5 169.3 506.6C169.3 506.8 169.3 507 169.3 507.2C169.3 507.2 169.3 507.2 169.3 507.3C169.3 507.5 169.3 507.7 169.3 507.9C169.3 509.9 169.3 512 169.5 514.2C173.4 512.7 176.7 509.9 177.4 506.6C178.8 500.3 173.5 500.8 170.3 503.1C170 503.3 169.7 503.5 169.4 503.6C169.4 503.8 169.4 504 169.4 504.2C169.3 504.1 169.3 504.3 169.3 504.5Z" fill="white"/>
        <path d="M225.5 539.3L270.6 533.2C270.6 533.2 281.5 511.8 252.5 485.8C247.7 481.5 249.3 472.4 248.8 463.3C248.4 457.7 247.3 452.2 243.3 447.8C243.3 447.7 243.2 447.7 243.2 447.6C238.5 442.5 232.8 438.2 226.5 435.7C224.8 435 223.1 434.5 221.3 434.1C214.7 432.6 207.7 433.3 200.7 437.2C199.2 438 197.7 438.7 196 439.4C195.5 439.6 194.9 439.8 194.4 440.1C189 442.3 183.4 444.8 180.9 451.9C180.9 451.9 181.4 453.3 182.5 455.5C185 460.7 190.2 470 197.8 474.6C208.9 481.3 208 491.4 202.7 503.8C201.4 506.8 189.2 520 187.6 533.1C187.1 536.9 187.5 540.7 189.3 544.2L195.4 543.4L225.5 539.3Z" fill="#2A88AA"/>
        <path d="M50.3 576.8C51.8 573.6 57.5 596.2 57.5 596.2C57.5 596.2 53 572.8 56.3 572.5C59.6 572.2 62.4 593.8 62.4 593.8C62.4 593.8 62 573.1 63.8 571.4C65.7 569.7 68 591.5 68 591.5C68 591.5 69.7 575.3 71.7 574.7C73.6 574.1 75.1 603.3 75.1 603.3C75.1 603.3 78.7 602.3 82.9 599.7C86 597.8 84.9 602 81.6 606.1C79.2 609.1 78.1 612.9 78.6 616.7C79 616.8 79.3 616.8 79.7 616.9C103.9 622.4 99.1 646.8 108.3 659.1C108.9 659.8 109.5 660.5 110.1 661.2C111.9 663 114.1 664.3 117 665.2C121.1 666.5 124.5 668.1 127.4 670.1C130.6 670.2 133.7 669.5 136.8 668.2L162.6 656.5L160.2 630.2L170.8 627.4C166.4 625.4 163.2 623.9 161.9 623.1C153.8 618.4 114.6 594 112.6 586.7C111.8 583.7 113.2 577.1 115.6 570.3C96.8 557 83.1 545.3 83.9 540.2C84.2 538.5 86.1 539.4 88.4 541.3C73.9 526.7 61.5 514.6 59.5 513.7C58.3 513.2 56.3 514.6 53.7 517.2C50.4 520.6 46.2 526.1 42.2 531.9C35.2 542.1 28.7 553.6 27.8 557.8C27.2 560.6 38 575.2 52.5 593.1C50.7 584.8 49.7 578 50.3 576.8Z" fill="#DC464C"/>
        <path d="M209.9 582.2C210.1 581.7 210.3 581.3 210.5 580.9C212.8 576.4 218 573.2 223 572.8C225.8 572.6 227.6 573.7 229.7 575.5C229.9 575.7 230.2 575.9 230.4 576.1C230.8 576.3 231.3 576.5 231.7 576.7C242.1 582.6 249.7 581.4 255.3 579.6C265.2 576.5 273.8 578.2 279.7 581.9C281.8 579.5 283.9 577.2 286 575.1C285.9 575 285.9 574.8 285.8 574.7C277.4 558.5 255.5 555 230.3 557.4C219.1 558.5 207.3 560.7 195.6 563.6C188.2 565.4 181 567.4 174 569.6C175.8 570.2 177.5 570.7 179.3 571.2C187.1 573.2 198.2 577.4 209.9 582.2Z" fill="#DC464C"/>
        <path d="M213.3 580.1C212.6 581 212.1 582 211.7 583C212.2 583.2 212.7 583.4 213.2 583.6C215.5 578.8 220.6 575.3 225.8 575.2C221.6 573.4 215.8 576.9 213.3 580.1Z" fill="#DC464C"/>
        <path d="M215.6 658.9C211.5 657.6 210 650.9 209.5 644.1C209.5 644 209.5 644 209.5 643.9C195 637.9 180.1 631.6 170.7 627.4L160.1 630.2L162.5 656.5L166.2 696.1C204.5 686.3 212.6 696.9 222.3 698.5C224.6 697.4 226.7 696.5 228.5 695.8C241.2 690.7 238.3 686.8 239 680.6C239.2 678.9 241.1 677.1 243.9 675.3C241.9 666 237.1 659.8 237.1 659.8C237.1 659.8 222 660.8 215.6 658.9Z" fill="#DC464C"/>
        <path d="M180.5 483C181.5 482.9 182.3 482 182.2 481C182.1 480 181.2 479.2 180.2 479.3C179.2 479.4 178.4 480.3 178.5 481.3C178.6 482.4 179.5 483.1 180.5 483Z" fill="#122144"/>
        <path d="M180.7 473.7C183.2 472.9 183.5 473.7 184.8 474.5C186.2 475.3 187 474.6 187.1 473.7C187.3 472.3 183.4 469.9 179.9 471.1C179.1 471.4 178.6 471.9 178.7 472.8C178.8 473.4 179.6 474 180.7 473.7Z" fill="#122144"/>
        <path d="M138.7 517.4C138.7 518.6 140.6 518.6 140.6 517.4C140.5 511.9 145.5 508.1 147.7 503.4C149 500.6 149 497.9 148.5 495.2C148 492.5 147.1 489.9 146.3 487.2C145.3 483.7 145.1 480.4 146.7 477C148.2 473.8 150.5 471.1 152.7 468.5C152.7 468.5 152.7 468.4 152.8 468.4C157.3 462.9 162.1 457.7 167.2 452.8C168.1 452 166.7 450.6 165.9 451.5C162.5 454.8 159.2 458.3 156.1 461.8C154.3 463.8 152.5 465.9 150.8 468.1C146.8 473 142.9 478 143.9 484.6C144.7 489.9 147.7 494.9 146.8 500.1C146.6 501.2 146.2 502.4 145.6 503.5C143.1 508 138.7 511.8 138.7 517.4Z" fill="#2A88AA"/>
        <path d="M325 479.6C324.4 472.5 325.7 463.1 321 457.6C316.2 452.2 310.1 457.6 308.6 462.8C307.1 468 303.3 471.1 300 469.5C296.7 467.9 299.8 447.2 298.9 442.3C297.3 434.2 275.3 444.9 268.3 445.4C268.4 448.6 268.8 452.2 269.4 455.7C270.6 464.1 272.3 472.1 270.3 474.6C266.4 479.4 262.3 481.8 267.2 485.9C270.2 488.5 271.8 489.4 272.6 489.8C272.9 489.4 273.1 489.2 273.1 489.2C273.1 489.2 285 481.2 285.8 486.3C286.2 488.8 282.8 487.9 279.1 490.1C276 491.9 274.7 492.4 273.5 492C273.7 493.3 274 495.2 274.4 497.3C277.6 495 281.7 491 286.1 492.8C292.1 495.3 286.1 506.7 277.5 509.3C278.5 512.2 279.7 515.1 281.1 517.4C281 517.1 281 516.9 280.9 516.6C280 513.1 296.6 513.3 305.1 507.6C308.5 505.3 308.2 501 308.7 496.3C309.2 491.6 317.6 484.6 317.6 501.7C317.6 509.6 314.9 514.7 311.2 518C311.3 518 311.3 518 311.3 518C315.8 523.2 318.2 533.7 319 541.3C319.9 545.8 320.8 550.3 321.5 554.8C329.8 554.7 350.2 552 359.4 543.4C358.6 533.5 358.1 527.5 358.1 527.5C358.1 527.5 342.9 489.3 342.3 479.9C342.2 480.1 326.1 493.3 325 479.6ZM279.1 469.9C278 470.2 276.9 469.5 276.6 468.4C276.3 467.3 277 466.2 278.1 465.9C279.2 465.6 280.3 466.3 280.6 467.4C280.9 468.6 280.2 469.7 279.1 469.9ZM280.8 461.6C279.2 461 278.8 460.1 276.2 461.4C275.1 462 274.1 461.4 273.9 460.9C273.6 460 274 459.3 274.9 458.8C278.5 456.9 283.1 458.8 283.1 460.4C283.2 461.4 282.4 462.2 280.8 461.6Z" fill="#A44946"/>
        <path d="M274.7 499.5C274.7 499.3 274.6 499.1 274.6 498.9C274.6 499.1 274.6 499.3 274.7 499.5Z" fill="#A44946"/>
        <path d="M274.8 500.2C274.8 500 274.7 499.8 274.7 499.6C274.7 499.8 274.8 500 274.8 500.2Z" fill="#A44946"/>
        <path d="M275 501C275 500.8 274.9 500.6 274.9 500.4C274.9 500.6 275 500.8 275 501Z" fill="#A44946"/>
        <path d="M276.8 507.9C276.7 507.6 276.6 507.4 276.6 507.1C276.7 507.4 276.8 507.7 276.8 507.9Z" fill="#A44946"/>
        <path d="M275.5 503.2C275.4 503 275.4 502.8 275.3 502.5C275.4 502.8 275.5 503 275.5 503.2Z" fill="#A44946"/>
        <path d="M274.5 498.8C274.5 498.6 274.4 498.4 274.4 498.2C274.5 498.4 274.5 498.6 274.5 498.8Z" fill="#A44946"/>
        <path d="M275.7 504C275.6 503.8 275.6 503.5 275.5 503.3C275.6 503.5 275.7 503.8 275.7 504Z" fill="#A44946"/>
        <path d="M276.6 507.1C276.5 506.8 276.5 506.6 276.4 506.3C276.5 506.6 276.5 506.9 276.6 507.1Z" fill="#A44946"/>
        <path d="M276.4 506.4C276.3 506.2 276.3 505.9 276.2 505.7C276.2 505.9 276.3 506.1 276.4 506.4Z" fill="#A44946"/>
        <path d="M274.4 498.2C274.4 498 274.3 497.8 274.3 497.6C274.3 497.8 274.4 498 274.4 498.2Z" fill="#A44946"/>
        <path d="M275.9 504.8C275.8 504.6 275.8 504.3 275.7 504.1C275.8 504.3 275.9 504.5 275.9 504.8Z" fill="#A44946"/>
        <path d="M277.3 509.5C277.2 509.2 277.1 509 277 508.7C277.2 509 277.3 509.2 277.3 509.5Z" fill="#A44946"/>
        <path d="M277.1 508.7C277 508.4 276.9 508.2 276.9 507.9C276.9 508.2 277 508.5 277.1 508.7Z" fill="#A44946"/>
        <path d="M275.2 501.7C275.2 501.5 275.1 501.3 275.1 501.1C275.1 501.3 275.1 501.5 275.2 501.7Z" fill="#A44946"/>
        <path d="M275.3 502.5C275.2 502.3 275.2 502.1 275.1 501.9C275.2 502 275.3 502.3 275.3 502.5Z" fill="#A44946"/>
        <path d="M276.1 505.6C276 505.4 276 505.1 275.9 504.9C276 505.1 276.1 505.3 276.1 505.6Z" fill="#A44946"/>
        <path d="M321.4 555C323.9 570.2 325.5 585.6 326.1 601L326.2 602.6C331 604.4 337.7 608.1 337.7 613.9C337.7 619.7 331.6 625 327.4 628.1C327.3 628.2 327.2 628.2 327.2 628.3L329.9 701.8C333.9 705.3 337.1 709.1 339.2 713.2C346.9 704.7 357.3 697.6 366.9 692.2C366.9 689.3 367 686.3 367 683.1C365.5 647.4 363.5 601.1 362.3 582.7C361.2 567 360.2 553.3 359.4 543.5C350.1 552.2 329.6 554.9 321.4 555Z" fill="white"/>
        <path d="M330.7 622.6C334 619.3 336.8 615.2 334.9 611.4C333.5 608.7 330.2 606.8 327.6 605.5C327.5 605.4 327.4 605.4 327.3 605.4C332 609.6 334.9 616.2 330.7 622.6Z" fill="white"/>
        <path d="M433.3 555C419.6 539.8 389.5 535.3 389.5 535.3C384.9 529.2 379.5 526.5 374.5 525.6C365.7 523.9 358 527.8 358 527.8C358 527.8 358.5 533.7 359.3 543.7C360.1 553.5 361.1 567.2 362.2 582.9C363.5 601.3 365.5 647.6 366.9 683.3C367 686.3 367.1 689.3 367.3 692.1C376.7 686.8 385.3 683 389.6 680.8L412.7 727.1H446.7C446.3 721.3 445.9 713.3 445.3 704.6C445.7 704.2 446 703.8 446.3 703.4C455.7 691.9 486.1 676.6 479.9 644.2C474.7 616.1 449.2 572.5 433.3 555Z" fill="#DDB789"/>
        <path d="M274.3 497.6C274.3 497.8 274.4 498 274.4 498.2V498.3C274.4 498.5 274.5 498.7 274.5 498.9V499C274.5 499.2 274.6 499.4 274.6 499.6V499.7C274.6 499.9 274.7 500.1 274.7 500.3V500.4C274.7 500.6 274.8 500.8 274.8 501V501.1C274.8 501.3 274.9 501.5 274.9 501.7V501.8C275 502 275 502.2 275.1 502.4V502.5C275.2 502.7 275.2 502.9 275.3 503.2V503.3C275.4 503.5 275.4 503.8 275.5 504V504.1C275.6 504.3 275.6 504.6 275.7 504.8C275.7 504.8 275.7 504.8 275.7 504.9C275.8 505.1 275.8 505.4 275.9 505.6C276 505.8 276 506.1 276.1 506.3C276.2 506.6 276.2 506.8 276.3 507.1C276.4 507.4 276.5 507.6 276.5 507.9C276.6 508.2 276.7 508.4 276.7 508.7C276.8 509 276.9 509.2 277 509.5C285.6 507 291.6 495.5 285.6 493C281.5 491.2 277.5 495.2 274.3 497.6C274.3 497.6 274.3 497.5 274.3 497.6Z" fill="white"/>
        <path d="M367.3 692C367.1 692.1 367 692.2 366.8 692.3C357.2 697.8 346.8 704.8 339.1 713.3C339.7 714.5 340.2 715.6 340.6 716.8C341.8 720.6 342.4 724 342.4 727H412.8L389.7 680.7C385.3 682.9 376.7 686.7 367.3 692Z" fill="#DDB789"/>
        <path d="M272 667.4C272.5 668.1 273 668.9 273.4 669.7C275.2 668.9 276.9 667.9 278.7 667.1C280.3 666.5 281.9 666.1 283.5 665.9C283 665.8 282.5 665.6 282 665.5C278.8 664.4 275.6 665.9 272 667.4Z" fill="#DDB789"/>
        <path d="M301.7 583.2C298.6 581.1 294.2 581.1 291.1 583.2C288.1 585.2 287 588.6 287.9 591.9C292.3 588.1 298.8 584.4 304.9 586.6C303.9 585.4 303 584.1 301.7 583.2Z" fill="#DDB789"/>
        <path d="M285.7 588.3C286.5 583.9 290.3 580.1 295.3 579.6C299.1 579.2 302.7 580.8 305.2 583.7C306.9 585.7 308.4 587.6 311 588.4C313.6 589.2 316.2 588.5 317.9 586.3C318.7 585.3 320.2 586.7 319.3 587.7C317.1 590.5 313.4 591.3 310.1 590.2C309.9 590.1 309.8 590.1 309.6 590C312.5 593.7 313.3 598.7 317.5 600.7C320.4 601.3 323.4 601.6 325.9 602.5C326 602.5 326.1 602.6 326.1 602.6L326 601C325.4 585.6 323.9 570.2 321.3 555C320.5 550.5 319.7 546 318.8 541.5C318.7 541 318.6 540.5 318.5 539.9C309.6 545 301.1 550.6 300.1 561.3C300.1 561.3 293.5 567.2 285.8 575.2C283.7 577.3 281.6 579.6 279.5 582C282.2 583.7 284.3 585.9 285.7 588.3Z" fill="#DDB789"/>
        <path d="M310 634.3L309.8 635C312.7 642.6 311.6 649.8 308.8 656.2C305.4 663.8 299.8 667.2 292.2 667.1C290.5 667.3 288.7 667.4 287 667.5C282.9 667.8 279.8 668.8 276.1 670.7C275.5 671 275 671.2 274.4 671.5C275.1 673 275.7 674.3 276.3 674.7C279.9 677.2 312 686.1 329.8 701.8L327.1 628.3C322 632 316 633.3 310 634.3Z" fill="#DDB789"/>
        <path d="M83.8 540.2C83 545.2 96.8 557 115.5 570.3C117.4 565 119.8 559.5 122.3 555.5C120 554.6 118.7 554.1 118.4 553.9L118.3 554C118.2 553.1 118.1 552.2 118 551.4C115.9 537.5 104 497.9 101.6 499.6C99.1 501.4 103.5 520.4 103.5 520.4C103.5 520.4 97.8 496.8 95.3 498.6C92.8 500.4 99.2 524 99.2 524C99.2 524 89.9 498.8 87.8 499.4C85.7 499.9 94 526.3 94 526.3C94 526.3 80.7 492.6 81.6 505.6C82.2 514 90.1 533.9 95.3 548C93.3 545.9 90.6 543.1 88.3 541.3C86 539.5 84 538.5 83.8 540.2Z" fill="#A44946"/>
        <path d="M309.8 635L310 634.3C309.9 634.3 309.7 634.3 309.6 634.4C309.6 634.6 309.7 634.8 309.8 635Z" fill="#A44946"/>
        <path d="M212 590.4C211.7 588 212.2 585.7 213.2 583.6C212.7 583.4 212.2 583.2 211.7 583C210.9 585.5 210.9 588.1 212 590.4Z" fill="#DDB789"/>
        <path d="M115.5 570.3C113.1 577.1 111.7 583.7 112.5 586.7C114.5 594 153.7 618.4 161.8 623.1C163.2 623.9 166.4 625.4 170.7 627.4C180.1 631.6 195 637.9 209.5 643.9C209.5 643.6 209.5 643.3 209.4 642.9C209.3 641.7 209.3 640.6 209.3 639.4C209.3 639 209.3 638.7 209.3 638.3V638.2C209.3 637.9 209.3 637.5 209.3 637.2V637.1C209.3 636.8 209.3 636.5 209.3 636.2V636.1C209.3 635.8 209.3 635.5 209.3 635.2C209.4 631.8 209.7 629.4 209.7 629.4C209.7 629.4 208 627.8 206.5 624.8C205 621.8 210.2 620.2 213.9 614C215.5 611.4 216.7 605.6 218.6 599.7C216.7 598.8 215.1 597.5 213.9 595.9C213.2 595.4 212.6 594.9 212 594.3C208.8 591 208 586.3 209.6 582.1C198 577.2 186.9 573.1 178.9 571C177.1 570.5 175.3 570 173.6 569.4C151.9 562.4 133.9 548.7 128.1 549.3C126.4 549.5 124.2 551.8 122.1 555.3C119.9 559.5 117.4 565 115.5 570.3Z" fill="#DDB789"/>
        <path d="M268.2 445.5C275.2 445.1 297.2 434.4 298.8 442.4C299.8 447.2 296.6 468 299.9 469.6C303.2 471.2 307 468.1 308.5 462.9C310 457.7 316.2 452.3 320.9 457.7C325.7 463.1 324.3 472.6 324.9 479.7C326.1 493.5 342.2 480.2 342.2 480.2C342.2 480.2 346 467.1 337.7 434.3C337.1 431.8 336.4 429.3 335.6 426.6C334.4 422.5 337.2 420.1 338.9 417C340 415 340.6 412.7 339.7 409.4C338.2 404.3 333.2 397.9 326.9 395.5C315.5 391.2 306.5 397.3 303.7 405.3C301.3 412.1 297.2 401.5 288.2 401.2C287.1 401.2 286 401.3 284.8 401.6C284.2 401.7 283.6 401.9 283 402.2C276.6 404.7 273.2 414.8 270.8 416.2C268.4 417.6 263 411 256.9 416.8C256.2 417.4 255.6 418.2 254.9 419C250.7 424.6 248.5 433.9 256.1 440.4C258.5 442.5 262 444.2 266.7 445.5C267.2 445.5 267.7 445.5 268.2 445.5Z" fill="#122144"/>
        <path d="M78.7 616.8C78.3 613 79.3 609.1 81.7 606.2C85 602.1 86.1 597.9 83 599.8C78.8 602.4 75.2 603.4 75.2 603.4C75.2 603.4 73.7 574.1 71.8 574.8C69.9 575.4 68.1 591.6 68.1 591.6C68.1 591.6 65.8 569.8 63.9 571.5C62 573.2 62.5 593.9 62.5 593.9C62.5 593.9 59.7 572.3 56.4 572.6C53.1 572.9 57.6 596.3 57.6 596.3C57.6 596.3 51.9 573.6 50.4 576.9C49.8 578.1 50.8 584.9 52.5 593.3C54.3 602.2 56.9 612.9 59.4 620.4C65.1 617 71.8 615.5 78.7 616.8Z" fill="#F18554"/>
        <path d="M222.3 698.5C212.6 696.9 204.5 686.3 166.2 696.1C166 696.2 165.8 696.2 165.6 696.2C145.6 701.4 144.6 681.4 127.4 670.2C124.5 668.3 121 666.6 117 665.3C114.1 664.4 111.9 663 110.1 661.3C109.4 660.7 108.8 660 108.3 659.2C99.1 646.8 104 622.5 79.7 617C79.3 616.9 79 616.8 78.6 616.8C71.7 615.5 65 617.1 59.2 620.3C47.4 626.8 39.7 640.4 43.6 651.7C49.5 668.8 69.9 672.6 70.2 686.2C70.5 699.7 74.6 721.1 90.7 724.5C92.8 724.9 94.8 725.9 96.9 727.2H192.3C197.1 713.1 211.9 703.6 222.3 698.5Z" fill="#2A88AA"/>
        <path d="M241.3 661.2C240.2 654.7 247.4 651.3 247.6 645C247.8 638.7 244.5 632.7 247.2 626.6C248.2 624.3 249.7 622.2 251 620C251.7 616.4 251.9 612.2 250.5 608.6C247.8 601.6 229.1 605 218.8 599.8C216.9 605.8 215.6 611.5 214.1 614.1C210.4 620.3 205.2 621.9 206.7 624.9C208.2 627.9 209.9 629.5 209.9 629.5C209.9 629.5 209.6 631.9 209.5 635.3C210.6 635.1 212.7 634.5 215.1 632.5C218.7 629.5 222.1 631.9 221.4 635.3C221 637.4 216.5 642.3 209.5 644.2C209.9 650.9 211.4 657.7 215.6 659C221.9 660.9 237 659.8 237 659.8C237 659.8 241.8 666 243.8 675.3C244.2 675.1 244.6 674.8 245 674.6C244.9 673.7 244.7 672.9 244.5 672C243.8 668.3 241.9 664.8 241.3 661.2ZM221.6 611.9C220.4 611.9 219.7 611 219.7 610.5C219.8 609.5 220.5 609.1 221.5 609C225.6 608.7 229 612.4 228.4 613.8C228 614.7 227 615.2 225.8 613.9C224.5 612.8 224.5 611.8 221.6 611.9ZM222.6 617.6C222.4 618.7 221.3 619.4 220.2 619.2C219.1 619 218.4 617.9 218.6 616.8C218.8 615.7 219.9 615 221 615.2C222.1 615.5 222.8 616.5 222.6 617.6Z" fill="#F18554"/>
        <path d="M209.5 643C209.5 643.3 209.5 643.6 209.6 644C209.6 644.1 209.6 644.1 209.6 644.2C209.5 643.8 209.5 643.4 209.5 643Z" fill="#F18554"/>
        <path d="M248.8 656.3C248.8 656.1 248.9 656 249 655.9C249.5 652.7 251.2 649.5 253 646.9C255.1 643.9 257.7 641.4 260.7 639.4C266.7 635.3 270.4 624.6 262.3 622C255.8 619.9 251.5 624.1 249.5 626.7C248.1 629.6 248 632.6 248.5 635.9C249 638.9 249.8 641.9 249.7 645C249.6 648.1 248.4 650.5 246.6 653C244.4 656 242.5 658.5 243.8 662.5C244.9 666.1 246.4 669.5 247 673.2C247 673.3 247 673.4 247 673.5C249.8 672 253.1 670.6 256.2 669.4C252.1 666.4 247.6 661.4 248.8 656.3Z" fill="#F18554"/>
        <path d="M209.5 643C209.4 641.8 209.4 640.7 209.4 639.5C209.4 640.6 209.5 641.8 209.5 643Z" fill="#F18554"/>
        <path d="M209.4 637.2C209.4 636.9 209.4 636.6 209.4 636.3C209.5 636.6 209.5 636.9 209.4 637.2Z" fill="#F18554"/>
        <path d="M209.6 644.2C216.5 642.3 221 637.5 221.5 635.3C222.2 631.9 218.9 629.5 215.2 632.5C212.8 634.5 210.7 635.1 209.6 635.3C209.6 635.6 209.6 635.9 209.6 636.2V636.3C209.6 636.6 209.6 636.9 209.6 637.2V637.3C209.6 637.6 209.6 637.9 209.6 638.3V638.4C209.6 638.7 209.6 639.1 209.6 639.5C209.6 640.6 209.6 641.8 209.7 643C209.5 643.4 209.5 643.8 209.6 644.2Z" fill="white"/>
        <path d="M340.6 716.8C340.2 715.6 339.7 714.4 339.1 713.3C337 709.2 333.7 705.3 329.8 701.9C311.9 686.2 279.9 677.3 276.3 674.8C275.7 674.3 275.1 673 274.4 671.6C268.9 673.9 263 673.7 257.7 670.4C257.2 670.1 256.8 669.8 256.3 669.5C253.2 670.7 249.9 672.1 247.1 673.6C247.7 677 247.8 680.5 247.6 684C247.5 685.3 245.5 685.3 245.6 684C245.8 680.9 245.7 677.8 245.2 674.7C244.8 674.9 244.4 675.2 244 675.4C241.2 677.2 239.3 679 239.1 680.7C238.4 687 241.3 690.9 228.6 695.9C226.9 696.6 224.8 697.5 222.4 698.6C212 703.7 197.1 713.2 192.4 727.1H342.3C342.3 724 341.8 720.6 340.6 716.8Z" fill="#2A88AA"/>
        <path d="M259.2 668.9C259.9 669.3 260.6 669.6 261.3 669.9C264.2 671.1 267.5 671.4 270.6 670.7C271.6 670.5 272.5 670.1 273.4 669.7C273 668.9 272.5 668.1 272 667.4C268.3 668.9 264.2 670.3 259.2 668.9Z" fill="#2A88AA"/>
        <path d="M250.5 608.6C251.9 612.2 251.7 616.4 251 620C251.5 619.1 252 618.2 252.3 617.3C253.7 613.8 254.3 610.1 254.2 606.4C254.2 605.1 256.2 605.1 256.2 606.4C256.3 610 255.8 613.5 254.6 616.9C253.5 620.1 251.6 622.7 249.9 625.6C249.7 626 249.5 626.4 249.3 626.7C251.3 624.1 255.5 619.9 262.1 622C270.2 624.6 266.5 635.2 260.5 639.4C257.5 641.4 254.9 643.9 252.8 646.9C251 649.5 249.3 652.7 248.8 655.9C249.4 655.2 250.8 655.7 250.6 656.8C249.9 660 252.4 663.1 254.5 665.3C255.8 666.7 257.4 667.9 259 668.9C264 670.4 268.1 668.9 271.8 667.4C275.4 665.9 278.6 664.4 281.8 665.4C282.3 665.6 282.8 665.7 283.3 665.8C287.1 665.3 291 665.4 294.7 664.6C300.4 663.3 302.3 658.1 303.7 653C304.1 651.7 306 652.3 305.7 653.5C304.2 658.7 302.2 664.3 296.6 666.1C295.1 666.6 293.5 666.9 291.9 667.1C299.5 667.2 305.1 663.8 308.5 656.2C311.4 649.8 312.4 642.6 309.5 635C309.4 634.8 309.3 634.6 309.2 634.4C308.8 634.5 308.4 634.5 308 634.6C307.4 634.7 306.9 634.3 306.8 633.8C301.9 633.6 297.2 632 293.2 628.9C282.8 620.8 285.5 593.7 285.5 593.7C285.6 593.6 285.7 593.5 285.8 593.4C285.1 591.7 285 589.9 285.3 588.3C284 585.9 281.9 583.7 279.2 582C273.4 578.2 264.7 576.6 254.8 579.7C249.2 581.4 241.7 582.6 231.2 576.8C230.8 576.6 230.4 576.4 229.9 576.2C232.2 578 234.6 579.5 237.4 580.5C238.6 580.9 238.1 582.9 236.9 582.5C234.9 581.8 233 580.9 231.2 579.7C229.3 578.5 227.8 576.6 225.8 575.6C225.7 575.5 225.6 575.5 225.4 575.4C220.2 575.5 215.1 579.1 212.8 583.8C211.8 585.9 211.3 588.2 211.6 590.6C212.1 591.6 212.7 592.5 213.5 593.3C217.1 596.8 222.4 597.6 227.2 598.1C228.5 598.2 228.5 600.3 227.2 600.1C222.5 599.6 217.5 598.8 213.7 596C214.9 597.6 216.5 598.9 218.4 599.8C229.1 605 247.8 601.6 250.5 608.6Z" fill="#122144"/>
        <path d="M307.8 632.6C314 631.6 320.4 630.5 325.7 626.8C327.1 625.8 329 624.3 330.8 622.6C335 616.2 332 609.5 327.4 605.4C324.6 604.1 321.7 603.4 318.7 602.9C313.8 602.1 308.2 600.8 305.9 595.9C305.3 594.7 307.1 593.7 307.7 594.9C309.5 598.8 313.4 600 317.6 600.8C313.5 598.9 312.6 593.8 309.7 590.1C308.3 589.5 307 588.6 305.9 587.6C305.6 587.3 305.3 586.9 305 586.6C298.9 584.4 292.3 588.1 288 591.9C288.2 592.8 288.6 593.6 289.1 594.4C289.8 595.5 288 596.5 287.3 595.4C286.9 594.8 286.6 594.1 286.3 593.4C286.2 593.5 286.1 593.6 286 593.7C286 593.7 283.3 620.9 293.7 628.9C297.6 631.9 302.4 633.5 307.3 633.8C306.9 633.3 307.1 632.7 307.8 632.6Z" fill="#122144"/>
        <path d="M227.7 600.1C229 600.2 229 598.2 227.7 598.1C222.9 597.5 217.6 596.8 214 593.3C213.2 592.5 212.5 591.6 212.1 590.6C211 588.3 211 585.6 211.8 583.2C212.2 582.2 212.7 581.2 213.4 580.3C215.9 577.1 221.7 573.6 225.9 575.4C226 575.5 226.2 575.5 226.3 575.6C228.3 576.6 229.8 578.5 231.7 579.7C233.5 580.9 235.4 581.8 237.4 582.5C238.6 582.9 239.2 581 237.9 580.5C235.1 579.5 232.7 578 230.4 576.2C230.1 576 229.9 575.8 229.7 575.6C227.7 573.9 225.8 572.7 223 572.9C218 573.3 212.8 576.5 210.5 581C210.3 581.4 210.1 581.9 209.9 582.3C208.4 586.5 209.1 591.2 212.3 594.5C212.9 595.1 213.5 595.6 214.2 596.1C218 598.8 223 599.5 227.7 600.1Z" fill="#122144"/>
        <path d="M287.2 595.3C287.9 596.4 289.7 595.4 289 594.3C288.5 593.5 288.1 592.7 287.9 591.8C287.1 588.6 288.1 585.1 291.1 583.1C294.2 581 298.6 581 301.7 583.1C303 584 303.9 585.3 304.9 586.5C305.2 586.8 305.5 587.2 305.8 587.5C306.9 588.6 308.2 589.4 309.6 590C309.8 590.1 309.9 590.1 310.1 590.2C313.4 591.3 317.1 590.5 319.3 587.7C320.1 586.7 318.7 585.2 317.9 586.3C316.2 588.4 313.6 589.2 311 588.4C308.4 587.6 306.9 585.7 305.2 583.7C302.7 580.8 299.2 579.2 295.3 579.6C290.2 580.1 286.4 583.8 285.7 588.3C285.4 589.9 285.6 591.7 286.2 593.4C286.4 594 286.7 594.7 287.2 595.3Z" fill="#122144"/>
        <path d="M317.5 600.8C313.4 600 309.5 598.8 307.6 594.9C307 593.7 305.3 594.7 305.8 595.9C308.1 600.9 313.7 602.1 318.6 602.9C321.6 603.4 324.5 604.1 327.3 605.4C327.4 605.4 327.5 605.5 327.6 605.5C330.2 606.8 333.5 608.6 334.9 611.4C336.8 615.2 334 619.4 330.7 622.6C328.9 624.3 327 625.8 325.6 626.8C320.3 630.5 313.9 631.6 307.7 632.6C307.1 632.7 306.9 633.3 307 633.7C307.1 634.2 307.6 634.6 308.2 634.5C308.6 634.4 309 634.4 309.4 634.3C309.5 634.3 309.7 634.3 309.8 634.2C315.8 633.2 321.8 631.8 326.9 628.2C327 628.1 327.1 628.1 327.1 628C331.4 624.8 337.4 619.6 337.4 613.8C337.4 608 330.6 604.3 325.9 602.5C325.8 602.5 325.7 602.4 325.7 602.4C323.4 601.7 320.4 601.3 317.5 600.8Z" fill="#122144"/>
        <path d="M286.9 667.5C288.6 667.4 290.4 667.3 292.1 667.1C293.7 666.9 295.3 666.7 296.8 666.1C302.4 664.2 304.4 658.7 305.9 653.5C306.3 652.2 304.3 651.7 303.9 653C302.4 658.1 300.6 663.3 294.9 664.6C291.2 665.5 287.3 665.3 283.5 665.8C281.9 666 280.3 666.4 278.7 667C276.9 667.8 275.2 668.8 273.4 669.6C272.5 670 271.6 670.4 270.6 670.6C267.5 671.3 264.2 671 261.3 669.8C260.6 669.5 259.9 669.2 259.2 668.8C257.5 667.8 256 666.6 254.7 665.2C252.6 663 250.1 660 250.8 656.7C251 655.6 249.6 655 249 655.8C248.9 655.9 248.9 656 248.8 656.2C247.7 661.3 252.1 666.4 256.3 669.3C256.8 669.6 257.2 669.9 257.7 670.2C263 673.5 268.9 673.6 274.4 671.4C275 671.2 275.5 670.9 276.1 670.6C279.7 668.8 282.8 667.8 286.9 667.5Z" fill="#122144"/>
        <path d="M218.6 616.9C218.4 618 219.1 619.1 220.2 619.3C221.3 619.5 222.4 618.8 222.6 617.7C222.8 616.6 222.1 615.5 221 615.3C219.9 615 218.8 615.7 218.6 616.9Z" fill="#122144"/>
        <path d="M228.4 613.9C229 612.5 225.6 608.8 221.5 609.1C220.5 609.2 219.9 609.6 219.7 610.6C219.6 611.2 220.3 612.1 221.6 612C224.5 611.9 224.5 612.8 225.7 614.1C227 615.3 228 614.8 228.4 613.9Z" fill="#122144"/>
        <path d="M243.7 662.5C242.5 658.5 244.3 656.1 246.5 653C248.3 650.6 249.5 648.1 249.6 645C249.7 641.9 248.9 638.9 248.4 635.9C247.9 632.6 248 629.7 249.4 626.7C249.6 626.3 249.8 625.9 250 625.6C251.7 622.7 253.5 620.1 254.7 616.9C255.9 613.5 256.4 610 256.3 606.4C256.3 605.1 254.2 605.1 254.3 606.4C254.4 610.1 253.8 613.9 252.4 617.3C252 618.2 251.6 619.1 251.1 620C249.8 622.2 248.3 624.2 247.3 626.6C244.6 632.8 247.9 638.7 247.7 645C247.5 651.2 240.4 654.7 241.4 661.2C242 664.9 243.9 668.3 244.7 671.9C244.9 672.8 245 673.6 245.2 674.5C245.7 677.6 245.8 680.7 245.6 683.8C245.5 685.1 247.6 685.1 247.6 683.8C247.8 680.3 247.6 676.9 247.1 673.4C247.1 673.3 247.1 673.2 247.1 673.1C246.3 669.4 244.8 666.1 243.7 662.5Z" fill="#122144"/>
        <path d="M278.2 465.9C277.1 466.2 276.4 467.3 276.7 468.4C277 469.5 278.1 470.2 279.2 469.9C280.3 469.6 281 468.5 280.7 467.4C280.4 466.4 279.3 465.7 278.2 465.9Z" fill="#122144"/>
        <path d="M274.9 458.8C274 459.3 273.6 459.9 273.9 460.9C274.1 461.4 275.1 462 276.2 461.4C278.8 460.1 279.2 461 280.8 461.6C282.4 462.2 283.1 461.4 283.1 460.4C283.1 458.8 278.5 456.9 274.9 458.8Z" fill="#122144"/>
        <path d="M205 352.7C207.8 351.7 210.7 350.1 212.8 347.7C211.9 348.9 211.5 350.9 213.1 351.8C216.3 353 218.9 351.3 221.3 349.4C220.8 347.8 221 346.2 221 346.2L246.6 339C246.6 339 247.3 343.1 233.4 350.4C233.3 350.4 233.3 350.5 233.2 350.5C233.9 353.3 234.3 356.7 235.3 358.9C236 360.5 236.8 361.9 237.7 362.9C238.5 363.9 239.4 364.4 240.3 364.3C245.6 363.5 244.9 352.2 254.6 353.4C262.1 354.3 264.3 364.8 261.5 371.9C264.8 376.4 267.9 381.1 270.7 386V386.1C271.7 385.9 272.9 385.6 274.3 385.1C274.3 385.1 278.9 377.3 281.5 366.5C282.6 361.7 283.4 356.4 283.2 350.8C282.9 341.1 277.8 329.9 268.7 321.7C267.7 320.8 266.6 319.9 265.5 319.1C264.6 318.1 263.6 317.3 262.6 316.5C261.9 316 261.2 315.5 260.4 315C257.3 313 253.8 311.6 250.1 310.6C247.8 310 245.5 309.6 243.2 309.4C240.9 309.2 238.6 309.2 236.3 309.4C235.5 309.5 234.6 309.6 233.9 309.7C232.4 310.1 230.9 310.7 229.5 311.3C228.1 312 226.7 312.7 225.3 313.5C224.6 314.2 223.8 314.8 222.9 315.3C221.8 316.1 220.6 316.8 219.4 317.3C218.2 317.9 178.6 328 191.6 353.1C192.1 354.1 194.6 354.1 197 354C199.1 353.9 201.1 353.6 202 353.4C203.1 353.1 204.1 352.9 205 352.7Z" fill="#DC464C"/>
        <path d="M269.3 385C268.9 384.1 268.3 383.3 267.8 382.4C267 381 266.1 379.7 265.2 378.3C263.9 376.4 262.6 374.5 261.3 372.7C259.9 376.4 260.9 380.7 263.9 383.4C266 385.3 267.6 386.1 269.6 386C269.6 385.8 269.5 385.6 269.3 385Z" fill="#DC464C"/>
        <path d="M207 368.8C205.9 369.1 205.2 370.2 205.5 371.3C205.8 372.4 206.9 373.1 208 372.8C209.1 372.5 209.8 371.4 209.5 370.3C209.2 369.2 208.1 368.5 207 368.8Z" fill="#122144"/>
        <path d="M203.8 360C202.9 360.5 202.5 361.1 202.8 362.1C203 362.6 204 363.2 205.1 362.6C207.7 361.3 208.1 362.2 209.7 362.8C211.3 363.4 212 362.6 212 361.6C212.1 360 207.5 358.1 203.8 360Z" fill="#DC464C"/>
        <path d="M246.7 338.9L221.1 346.1C221.1 346.1 220.9 347.7 221.4 349.3C222.2 352 224.9 354.7 233.4 350.3C233.5 350.3 233.5 350.2 233.6 350.2C247.4 343.1 246.7 338.9 246.7 338.9Z" fill="#DC464C"/>
        <path d="M290.5 524.3C295.3 524.1 304.6 523.7 311 518.2C314.7 514.9 317.4 509.9 317.4 501.9C317.4 484.8 309.1 491.8 308.5 496.5C308 501.2 308.3 505.5 304.9 507.8C296.3 513.6 279.8 513.3 280.7 516.8C280.8 517 280.8 517.3 280.9 517.6C281.8 521 283.5 524.7 290.5 524.3Z" fill="#122144"/>
        <path d="M272.6 491.8C272.9 491.9 273.1 492.1 273.4 492.1C274.6 492.5 275.9 492 279 490.2C282.8 488 286.1 488.9 285.7 486.4C284.9 481.3 273 489.3 273 489.3C273 489.3 272.7 489.5 272.5 489.9C272 490.5 271.7 491.3 272.6 491.8Z" fill="#122144"/>
        <path d="M261.7 371.7L261.6 371.6C260.9 370.6 259.5 367.9 258.2 367.7C257.4 367.6 256.6 368.8 255.9 369.3C250.6 373.5 244.7 377.5 240.1 382.5C240.1 382.5 240.1 382.6 240 382.6C239.3 383.7 239.9 384.6 240.4 385.7C241.1 387.3 242.4 388.9 243.4 390.3C246.1 394.1 248.7 397.9 251.5 401.7C251.7 402 252 402 252.2 401.8C258.4 396.7 264.6 391.6 270.6 386.3C270.7 386.2 270.8 386 270.7 385.8V385.7C268.1 380.9 265 376.3 261.7 371.7ZM268.9 386.8C266.4 389.5 263.2 391.7 260.3 394.1C257.6 396.4 254.8 398.7 252.1 400.9C249.9 397.8 247.8 394.7 245.6 391.6C244.7 390.4 244 389.2 243.2 388C242.5 386.9 240 384.7 240.9 383.2C243.7 380.1 247.1 377.6 250.3 375C251.9 373.7 253.5 372.4 255.2 371.2C255.8 370.7 256.5 370.2 257.1 369.7C257.4 369.4 257.8 369 258.2 369C258.8 369 259.6 370.4 259.8 370.7C260.3 371.4 260.8 372.1 261.3 372.8C262.6 374.7 264 376.5 265.2 378.4C266.1 379.7 266.9 381.1 267.8 382.5C268.3 383.3 268.9 384.2 269.3 385.1C269.5 385.7 269.6 385.9 269.5 386.1C269.5 386.2 269.3 386.4 268.9 386.8Z" fill="white"/>
    </g>
</svg>
