<svg width="260" height="63" viewBox="0 0 260 63" fill="none" xmlns="http://www.w3.org/2000/svg">
    <path d="M9.79866 4.50997C9.79866 2.28582 7.61383 0.494141 4.89933 0.494141C2.21794 0.494141 0 2.28582 0 4.50997V44.5756C0 46.7997 2.18484 48.5914 4.89933 48.5914C7.61383 48.5914 9.79866 46.7997 9.79866 44.5756V4.50997Z"
          fill="#E8431E"/>
    <path d="M17.4782 15.3838C14.7637 15.3838 12.5789 17.2372 12.5789 19.5232V44.4213C12.5789 46.7072 14.7637 48.5607 17.4782 48.5607C20.1927 48.5607 22.3775 46.7072 22.3775 44.4213V19.5232C22.3444 17.2372 20.1596 15.3838 17.4782 15.3838Z"
          fill="#E8431E"/>
    <path d="M22.3447 7.56845C22.3447 10.0706 20.1598 12.1403 17.4454 12.1403C14.7309 12.1403 12.546 10.1015 12.546 7.56845C12.546 5.03539 14.7309 2.99658 17.4454 2.99658C20.1598 2.99658 22.3447 5.03539 22.3447 7.56845Z"
          fill="#E8431E"/>
    <path d="M23.4705 22.1794L36.2485 46.0273C36.9768 47.3865 38.4333 48.2205 40.0554 48.2205C41.6775 48.2205 43.134 47.3556 43.8623 46.0273L56.6403 22.1794C57.6996 20.2024 56.8389 17.8238 54.7203 16.8353C52.6017 15.8468 50.0527 16.65 48.9934 18.627L40.0223 35.3699L31.0843 18.5961C30.025 16.65 27.476 15.8468 25.3574 16.8044C23.2719 17.8238 22.4112 20.2024 23.4705 22.1794Z"
          fill="#E8431E"/>
    <path d="M77.2305 37.9958C75.7077 39.4168 73.6222 40.3126 71.2718 40.3126C68.9215 40.3126 66.836 39.4477 65.3132 37.9958C63.7904 36.5748 62.8304 34.6287 62.8304 32.4354C62.8304 30.2422 63.7573 28.296 65.3132 26.875C66.836 25.4541 68.9215 24.5582 71.2718 24.5582C72.0332 24.5582 72.7615 24.6509 73.4567 24.8362C68.2925 29.6552 68.2925 29.6552 68.2925 29.6552C66.6373 31.1998 66.6373 33.6711 68.2925 35.2156C69.9477 36.7602 72.596 36.7602 74.2512 35.2156C74.2512 35.2156 74.2512 35.2156 83.1891 26.875C83.9836 26.1337 84.414 25.1143 84.414 24.0949C84.414 23.0446 83.9505 22.0561 83.1891 21.3147C80.1436 18.4727 75.9063 16.7119 71.2718 16.7119C66.6373 16.7119 62.4001 18.4727 59.3546 21.3147C56.309 24.1566 54.4221 28.1107 54.4221 32.4354C54.4221 36.7602 56.309 40.7142 59.3546 43.5562C62.4001 46.3982 66.6373 48.1589 71.2718 48.1589C75.9063 48.1589 80.1436 46.3982 83.1891 43.5562C84.8443 42.0116 84.8443 39.5404 83.1891 37.9958C81.534 36.4821 78.8857 36.4821 77.2305 37.9958Z"
          fill="#E8431E"/>
    <path d="M112.585 34.6598C111.824 32.9608 110.5 31.5089 108.878 30.4895C107.256 29.4701 105.269 28.8523 103.151 28.8523H94.9742C94.6763 28.8523 94.4115 28.7905 94.1797 28.6978C93.8156 28.5433 93.4846 28.2962 93.2859 28.0182C93.0542 27.7093 92.9549 27.3695 92.9549 26.9679C92.9549 26.6899 93.0211 26.4428 93.1204 26.2265C93.2859 25.8867 93.5508 25.5778 93.8818 25.3925C94.2128 25.1762 94.577 25.0836 95.0073 25.0836H108.315C110.566 25.0836 112.42 23.3845 112.42 21.284C112.42 19.1834 110.599 17.4844 108.315 17.4844H95.0073C93.617 17.4844 92.2597 17.7624 91.0349 18.2258C89.1811 18.9362 87.6252 20.141 86.5328 21.6547C85.4404 23.1683 84.7783 25.0218 84.7783 26.9679C84.7783 28.2653 85.0763 29.5319 85.5728 30.6748C86.3673 32.3738 87.6583 33.8257 89.2804 34.8451C90.9025 35.8645 92.8887 36.4823 95.0073 36.4823H103.184C103.482 36.4823 103.747 36.5441 103.978 36.6368C104.343 36.7912 104.674 37.0384 104.872 37.3164C105.104 37.6253 105.203 37.9651 105.236 38.3667C105.236 38.6447 105.17 38.8918 105.071 39.1081C104.905 39.4479 104.64 39.7259 104.309 39.9421C103.978 40.1584 103.614 40.251 103.151 40.251H89.8432C87.5921 40.251 85.7383 41.95 85.7383 44.0506C85.7383 46.1512 87.559 47.8502 89.8432 47.8502H103.151C104.541 47.8502 105.898 47.5722 107.123 47.1088C108.977 46.3983 110.533 45.1936 111.625 43.6799C112.718 42.1663 113.38 40.3128 113.38 38.3667C113.38 37.0384 113.082 35.7718 112.585 34.6598Z"
          fill="#E8431E"/>
    <path d="M145.126 26.1337C143.901 23.3535 141.849 21.0058 139.267 19.3376C136.685 17.6695 133.573 16.7119 130.229 16.7119C128.011 16.7119 125.86 17.1444 123.94 17.9167C121.027 19.0905 118.577 21.0367 116.822 23.5079C115.068 25.9483 114.042 28.9447 114.075 32.1265V59.0943C114.075 61.2258 115.896 62.9557 118.114 62.9557C120.331 62.9557 122.152 61.2258 122.152 59.0943V32.1265C122.152 31.0453 122.384 30.0568 122.781 29.1301C123.377 27.74 124.436 26.5661 125.727 25.7321C127.018 24.898 128.574 24.4038 130.229 24.4038C131.355 24.4038 132.414 24.62 133.374 24.9907C134.831 25.5776 136.056 26.5661 136.916 27.8018C137.777 29.0374 138.307 30.4893 138.307 32.0956C138.307 33.1768 138.075 34.1653 137.678 35.0921C137.082 36.4821 136.056 37.656 134.732 38.4901C133.44 39.3241 131.918 39.7875 130.229 39.7875C128.011 39.7875 126.191 41.5174 126.191 43.6488C126.191 45.7803 128.011 47.5102 130.229 47.5102C132.447 47.5102 134.599 47.0777 136.519 46.3055C139.432 45.1316 141.882 43.1855 143.636 40.7142C145.391 38.2738 146.384 35.2774 146.384 32.0956C146.417 29.995 145.954 27.9562 145.126 26.1337Z"
          fill="#E8431E"/>
    <path d="M178.826 25.8865C177.601 23.0754 175.515 20.7277 172.933 19.0287C170.351 17.3606 167.173 16.3721 163.83 16.3721C161.579 16.3721 159.427 16.8045 157.507 17.6077C154.594 18.7816 152.111 20.7586 150.357 23.2299C148.602 25.7011 147.576 28.7285 147.576 31.9411C147.576 34.0726 148.039 36.1423 148.867 37.9958C150.092 40.8068 152.177 43.1546 154.759 44.8536C157.341 46.5217 160.519 47.5102 163.863 47.5102C166.114 47.5102 167.935 45.7803 167.935 43.6179C167.935 41.4556 166.114 39.7257 163.863 39.7257C162.737 39.7257 161.678 39.5094 160.685 39.1078C159.228 38.5209 157.97 37.5324 157.11 36.2968C156.216 35.0611 155.719 33.5783 155.719 31.9411C155.719 30.8599 155.951 29.8405 156.348 28.9138C156.977 27.5237 158.003 26.319 159.294 25.4849C160.586 24.6509 162.141 24.1566 163.83 24.1566C164.955 24.1566 166.014 24.3728 167.008 24.7744C168.464 25.3613 169.722 26.3499 170.583 27.5855C171.477 28.8211 171.973 30.3039 171.973 31.9411V43.6179C171.973 45.7494 173.794 47.5102 176.045 47.5102C178.296 47.5102 180.117 45.7803 180.117 43.6179V31.9411C180.117 29.8096 179.653 27.7708 178.826 25.8865Z"
          fill="#E8431E"/>
    <path d="M220.635 25.2381C219.543 22.8286 217.755 20.8207 215.471 19.3997C213.187 17.9787 210.44 17.1138 207.493 17.1138C205.54 17.1138 203.653 17.4845 201.932 18.1641C199.383 19.1835 197.198 20.8516 195.675 22.9831C194.153 25.1145 193.226 27.6785 193.226 30.4278V43.7418C193.226 45.8424 195.046 47.5414 197.297 47.5414C199.548 47.5414 201.369 45.8424 201.369 43.7418V30.4278C201.369 29.6246 201.535 28.8832 201.833 28.2036C202.296 27.1842 203.057 26.3193 204.051 25.7015C205.044 25.0836 206.202 24.7438 207.46 24.7438C208.321 24.7438 209.115 24.8983 209.844 25.1763C210.936 25.6088 211.863 26.3193 212.525 27.246C213.187 28.1727 213.551 29.223 213.551 30.4278V43.7418C213.551 45.8424 215.372 47.5414 217.623 47.5414C219.874 47.5414 221.695 45.8424 221.695 43.7418V30.4278C221.761 28.5743 221.364 26.8135 220.635 25.2381Z"
          fill="#E8431E"/>
    <path d="M186.671 14.457C183.957 14.457 181.772 16.3105 181.772 18.5964V43.4946C181.772 45.7805 183.957 47.634 186.671 47.634C189.386 47.634 191.57 45.7805 191.57 43.4946V18.5964C191.57 16.3105 189.352 14.457 186.671 14.457Z"
          fill="#E8431E"/>
    <path d="M191.57 6.64169C191.57 9.14386 189.386 11.2136 186.671 11.2136C183.957 11.2136 181.772 9.17475 181.772 6.64169C181.772 4.10863 183.957 2.06982 186.671 2.06982C189.352 2.06982 191.57 4.10863 191.57 6.64169Z"
          fill="#E8431E"/>
    <path d="M242.914 47.9739C251.982 47.9739 259.334 41.1141 259.334 32.652C259.334 24.1899 251.982 17.3301 242.914 17.3301C233.846 17.3301 226.495 24.1899 226.495 32.652C226.495 41.1141 233.846 47.9739 242.914 47.9739Z"
          fill="#E8431E"/>
    <path d="M230.103 33.2385C230.103 32.8369 230.169 32.4353 230.335 32.0646C230.5 31.694 230.699 31.3542 230.997 31.0761C231.295 30.7981 231.659 30.551 232.089 30.3965C232.52 30.2421 233.016 30.1494 233.546 30.1494C234.274 30.1494 234.903 30.3039 235.433 30.5819C235.929 30.8599 236.327 31.2615 236.558 31.7249L234.638 32.25C234.373 31.8793 234.009 31.694 233.513 31.694C233.115 31.694 232.751 31.8484 232.486 32.1264C232.222 32.4045 232.089 32.7752 232.089 33.2694C232.089 33.5165 232.122 33.7328 232.189 33.9181C232.255 34.1035 232.354 34.2888 232.486 34.4124C232.619 34.5359 232.784 34.6595 232.95 34.7213C233.115 34.7831 233.314 34.8448 233.513 34.8448C233.744 34.8448 233.976 34.7831 234.175 34.6904C234.373 34.5668 234.539 34.4433 234.638 34.2579L236.558 34.814C236.327 35.2773 235.929 35.648 235.433 35.9569C234.903 36.2658 234.274 36.3894 233.546 36.3894C233.016 36.3894 232.52 36.2967 232.089 36.1423C231.659 35.9569 231.295 35.7407 230.997 35.4627C230.699 35.1846 230.467 34.8448 230.302 34.4742C230.202 34.0417 230.103 33.6401 230.103 33.2385Z"
          fill="white"/>
    <path d="M237.452 27.9253H239.405V34.1344C239.405 34.5977 239.604 34.814 240.034 34.814C240.133 34.814 240.233 34.814 240.365 34.7831C240.498 34.7522 240.597 34.7213 240.696 34.6595L240.961 36.0187C240.729 36.1114 240.431 36.2041 240.1 36.2659C239.769 36.3276 239.471 36.3585 239.207 36.3585C238.644 36.3585 238.213 36.235 237.915 35.9569C237.618 35.6789 237.452 35.2773 237.452 34.7831V27.9253Z"
          fill="white"/>
    <path d="M243.51 36.3587C242.848 36.3587 242.351 36.1734 242.02 35.7718C241.689 35.4011 241.524 34.8142 241.524 34.0728V30.2423H243.477V33.6712C243.477 34.0419 243.543 34.3199 243.709 34.5053C243.874 34.6906 244.073 34.7833 244.371 34.7833C244.636 34.7833 244.9 34.7215 245.132 34.5979C245.364 34.4744 245.596 34.2581 245.794 33.9183V30.2114H247.747V34.1655C247.747 34.3508 247.78 34.4744 247.847 34.5362C247.913 34.5979 248.012 34.6597 248.178 34.6597V36.2043C247.979 36.2352 247.847 36.2661 247.714 36.2661C247.582 36.2661 247.449 36.297 247.35 36.297C246.655 36.297 246.258 36.0498 246.158 35.5247L246.125 35.154C245.827 35.5556 245.463 35.8336 245.033 36.0189C244.536 36.2661 244.073 36.3587 243.51 36.3587Z"
          fill="white"/>
    <path d="M253.11 36.3585C252.614 36.3585 252.183 36.2659 251.819 36.0805C251.455 35.8952 251.157 35.6172 250.958 35.2774V36.2659H249.237V27.9253H251.19V31.2615C251.389 30.9217 251.687 30.6437 252.051 30.4584C252.415 30.273 252.812 30.1803 253.309 30.1803C253.706 30.1803 254.103 30.273 254.434 30.4275C254.765 30.5819 255.063 30.829 255.328 31.1071C255.56 31.3851 255.758 31.7249 255.891 32.0956C256.023 32.4663 256.089 32.8987 256.089 33.3312C256.089 33.7637 256.023 34.1653 255.858 34.536C255.692 34.9067 255.494 35.2465 255.229 35.5245C254.964 35.8025 254.633 36.0187 254.269 36.1732C253.938 36.2968 253.54 36.3585 253.11 36.3585ZM252.547 34.814C252.779 34.814 252.978 34.7831 253.176 34.6904C253.375 34.5977 253.54 34.5051 253.673 34.3506C253.805 34.2271 253.905 34.0417 254.004 33.8564C254.07 33.671 254.136 33.4548 254.136 33.2385C254.136 33.0223 254.103 32.837 254.037 32.6207C253.971 32.4045 253.871 32.25 253.739 32.1265C253.607 31.972 253.474 31.8793 253.276 31.7867C253.11 31.694 252.911 31.6631 252.713 31.6631C252.415 31.6631 252.117 31.7558 251.852 31.972C251.587 32.1574 251.389 32.4045 251.256 32.7134V33.9799C251.389 34.2271 251.587 34.4433 251.819 34.5977C252.018 34.7522 252.282 34.814 252.547 34.814Z"
          fill="white"/>
    <path d="M9.79866 4.54098C9.79866 7.04315 7.61383 9.11284 4.89933 9.11284C2.18484 9.11284 0 7.07404 0 4.54098C0 2.00791 2.21794 0 4.93244 0C7.61383 0 9.79866 2.0388 9.79866 4.54098Z"
          fill="#F59D35"/>
    <path d="M22.3447 44.5445C22.3447 47.0467 20.1598 49.1164 17.4454 49.1164C14.7309 49.1164 12.546 47.0776 12.546 44.5445C12.546 42.0424 14.7309 39.9727 17.4454 39.9727C20.1598 39.9727 22.3447 42.0424 22.3447 44.5445Z"
          fill="#F59D35"/>
    <path d="M84.5465 40.7761C84.5465 43.0002 82.6265 44.7919 80.243 44.7919C77.8596 44.7919 75.9396 43.0002 75.9396 40.7761C75.9396 38.5519 77.8596 36.7603 80.243 36.7603C82.5934 36.7603 84.5465 38.5519 84.5465 40.7761Z"
          fill="#F59D35"/>
    <path d="M113.082 21.2219C113.082 23.446 111.162 25.2377 108.778 25.2377C106.395 25.2377 104.475 23.446 104.475 21.2219C104.475 18.9977 106.395 17.2061 108.778 17.2061C111.162 17.2369 113.082 19.0286 113.082 21.2219Z"
          fill="#F59D35"/>
    <path d="M134.003 43.8342C134.003 46.0583 132.083 47.85 129.7 47.85C127.316 47.85 125.396 46.0583 125.396 43.8342C125.396 41.61 127.316 39.8184 129.7 39.8184C132.083 39.8184 134.003 41.6409 134.003 43.8342Z"
          fill="#F59D35"/>
    <path d="M180.117 44.0197C180.117 46.2439 178.197 48.0356 175.813 48.0356C173.43 48.0356 171.51 46.2439 171.51 44.0197C171.51 41.7956 173.43 40.0039 175.813 40.0039C178.197 40.0039 180.117 41.7956 180.117 44.0197Z"
          fill="#F59D35"/>
    <path d="M191.57 18.5655C191.57 21.0677 189.386 23.1374 186.671 23.1374C183.957 23.1374 181.772 21.0986 181.772 18.5655C181.772 16.0325 183.957 13.9937 186.671 13.9937C189.352 14.0245 191.57 16.0633 191.57 18.5655Z"
          fill="#F59D35"/>
    <path d="M222.191 43.8034C222.191 46.0276 220.271 47.8193 217.888 47.8193C215.504 47.8193 213.584 46.0276 213.584 43.8034C213.584 41.5793 215.504 39.7876 217.888 39.7876C220.271 39.7876 222.191 41.5793 222.191 43.8034Z"
          fill="#F59D35"/>
</svg>
